if (_typeface_js && _typeface_js.loadFace) _typeface_js.loadFace({"glyphs":{"0":{"ha":682,"x_min":37,"x_max":646,"o":"m 194 429 q 237 163 194 270 q 345 56 281 56 q 451 163 412 56 q 490 435 490 270 q 450 698 490 595 q 345 800 410 800 q 236 695 278 800 q 194 429 194 590 m 128 123 q 82 187 128 123 q 37 427 37 251 q 128 731 37 604 q 343 859 220 859 q 555 731 465 859 q 646 427 646 604 q 555 123 646 251 q 343 -4 465 -4 q 128 123 220 -4 z "},"1":{"ha":543,"x_min":80,"x_max":463,"o":"m 103 654 q 88 669 95 658 q 81 688 81 681 q 84 700 81 697 q 216 786 151 745 q 317 849 281 827 q 355 871 354 871 l 358 871 q 374 846 369 871 q 362 719 362 803 l 362 179 q 373 71 362 111 q 410 50 376 60 q 457 41 444 41 q 461 14 461 41 q 460 -5 461 0 q 389 0 457 -4 q 289 4 321 4 q 191 0 256 4 q 121 -5 126 -4 q 115 20 115 0 q 121 41 115 41 q 171 51 136 41 q 209 71 206 61 q 217 149 217 103 l 217 621 q 214 672 217 654 q 206 695 210 690 q 194 700 202 700 q 181 696 190 700 q 161 687 172 693 q 142 676 151 681 q 120 664 133 671 q 103 654 107 656 z "},"2":{"ha":631,"x_min":38,"x_max":593,"o":"m 320 871 q 476 805 416 871 q 536 643 536 739 q 522 559 536 604 q 492 480 509 515 q 442 399 476 445 q 385 325 408 353 q 317 252 362 297 q 254 189 273 206 q 191 129 236 171 q 189 122 187 126 q 195 118 190 118 l 442 118 q 494 135 473 118 q 524 172 515 152 q 543 231 532 191 q 564 243 547 243 q 591 236 582 243 q 547 20 553 56 q 525 0 544 0 l 54 0 q 38 43 39 8 q 280 351 178 190 q 382 617 382 513 q 348 726 382 684 q 258 768 313 768 q 222 764 240 768 q 191 753 205 760 q 165 739 178 747 q 143 722 152 730 q 125 704 134 715 q 111 687 115 693 q 101 672 107 681 q 95 662 95 663 q 74 671 85 662 q 62 690 62 681 q 88 737 71 711 q 136 795 106 764 q 216 849 167 827 q 320 871 264 871 z "},"3":{"ha":617,"x_min":47,"x_max":572,"o":"m 331 871 q 441 827 389 871 q 494 705 494 783 q 380 513 494 594 q 437 492 406 509 q 499 447 468 475 q 551 376 530 419 q 572 285 572 334 q 522 129 572 197 q 393 28 471 61 q 227 -5 316 -5 q 60 38 125 -5 q 49 76 49 52 q 62 128 49 107 q 102 149 75 149 q 125 143 113 149 q 143 132 137 137 q 163 112 149 126 q 179 95 176 98 q 279 57 218 57 q 381 105 339 57 q 423 250 423 153 q 378 381 423 328 q 266 434 332 434 q 184 426 231 434 q 174 464 174 438 q 178 480 174 475 q 313 544 263 495 q 363 670 363 593 q 332 753 363 722 q 263 784 301 784 q 227 779 244 784 q 197 769 209 774 q 172 755 184 764 q 154 741 160 747 q 140 728 148 735 q 133 720 133 720 q 117 733 126 720 q 109 757 109 746 q 331 871 191 871 z "},"4":{"ha":642,"x_min":28,"x_max":613,"o":"m 500 873 q 522 860 522 873 l 522 323 l 591 323 q 613 250 613 323 q 602 236 613 243 q 522 236 602 236 l 522 3 q 449 -8 503 -8 q 384 7 384 -8 l 384 236 l 43 236 q 28 290 28 254 q 257 584 75 345 q 467 857 439 823 q 500 873 481 873 m 384 323 l 384 640 q 378 651 384 651 l 376 648 l 141 339 q 140 335 140 338 q 149 323 140 323 l 384 323 z "},"5":{"ha":612,"x_min":42,"x_max":566,"o":"m 160 854 q 491 868 452 860 q 500 830 500 856 q 488 743 500 776 q 318 734 418 736 q 214 731 218 731 q 201 719 203 730 q 168 536 191 665 q 288 551 218 551 q 480 476 395 551 q 566 298 566 401 q 467 81 566 167 q 224 -5 369 -5 q 54 38 119 -5 q 43 77 43 53 q 56 128 43 107 q 96 149 69 149 q 119 144 107 149 q 138 132 132 138 q 157 113 144 126 q 174 95 171 99 q 277 57 213 57 q 376 110 338 57 q 415 247 415 163 q 370 386 415 330 q 241 442 324 442 q 114 425 172 442 q 90 444 99 431 q 127 660 98 492 q 160 854 156 827 z "},"6":{"ha":620,"x_min":38,"x_max":583,"o":"m 189 271 q 224 115 189 176 q 319 54 259 54 q 404 102 373 54 q 435 239 435 149 q 400 383 435 330 q 290 437 365 437 q 236 422 262 437 q 203 388 210 408 q 189 271 190 347 m 311 -8 q 118 75 198 -8 q 38 278 38 157 q 81 483 38 385 q 197 655 125 581 q 353 785 270 730 q 529 876 437 840 q 547 861 540 875 q 556 836 555 848 q 342 695 433 781 q 218 494 252 609 q 220 473 213 477 q 222 475 221 473 q 275 496 240 484 q 340 507 311 507 q 512 431 441 507 q 583 258 583 355 q 501 71 583 151 q 311 -8 419 -8 z "},"7":{"ha":627,"x_min":33,"x_max":605,"o":"m 179 738 q 149 730 163 738 q 127 714 134 722 q 110 686 119 707 q 98 658 100 665 q 87 627 95 651 q 64 618 85 620 q 34 623 42 617 q 84 846 80 818 q 109 863 88 863 l 505 863 q 559 864 525 863 q 595 865 594 865 q 605 854 605 865 q 567 762 605 838 l 202 -8 q 190 -11 198 -11 q 158 3 174 -11 q 142 30 142 16 l 495 738 l 179 738 z "},"8":{"ha":623,"x_min":42,"x_max":581,"o":"m 312 49 q 401 87 368 49 q 434 184 434 125 q 285 380 434 279 q 279 382 281 382 q 266 388 271 388 q 260 388 262 388 q 187 214 187 343 q 223 97 187 145 q 312 49 259 49 m 311 806 q 239 769 266 806 q 213 669 213 732 q 235 597 213 631 q 277 548 258 563 q 331 510 297 533 q 345 506 338 506 q 353 509 349 506 q 420 656 420 560 q 391 763 420 720 q 311 806 362 806 m 312 865 q 484 811 412 865 q 556 665 556 757 q 407 464 556 557 q 404 460 403 464 q 407 456 404 457 q 458 419 433 439 q 514 369 484 399 q 562 302 544 339 q 581 228 581 264 q 498 58 581 126 q 307 -11 415 -11 q 118 47 193 -11 q 43 212 43 106 q 58 280 43 247 q 87 333 72 313 q 132 376 102 353 q 173 407 163 400 q 210 429 183 414 q 213 434 213 431 q 209 439 213 437 q 165 473 184 457 q 123 517 146 490 q 87 579 100 544 q 75 655 75 614 q 147 804 75 742 q 312 865 220 865 z "},"9":{"ha":616,"x_min":35,"x_max":581,"o":"m 430 597 q 395 753 430 692 q 297 814 359 814 q 214 766 244 814 q 183 627 183 718 q 219 485 183 538 q 328 431 255 431 q 382 446 357 431 q 415 480 408 460 q 430 597 429 519 m 308 876 q 500 793 420 876 q 579 590 579 711 q 536 383 579 483 q 421 209 492 283 q 269 79 350 134 q 104 -8 189 24 q 85 9 94 -7 q 77 35 77 26 q 275 170 186 80 q 399 374 365 259 q 397 395 404 391 q 395 393 396 395 q 347 372 381 382 q 283 362 312 362 q 109 435 180 362 q 37 609 37 509 q 118 796 37 716 q 308 876 199 876 z "}," ":{"ha":283,"x_min":0,"x_max":0,"o":""},"!":{"ha":241,"x_min":31,"x_max":210,"o":"m 125 871 q 176 845 156 871 q 197 781 197 819 q 189 692 197 766 q 168 495 180 617 q 148 273 156 373 q 138 243 146 252 q 110 229 129 233 q 100 237 104 228 q 92 259 95 245 q 72 484 84 362 q 52 680 60 606 q 45 783 45 753 q 68 846 45 821 q 125 871 91 871 m 31 76 q 58 138 31 113 q 121 163 84 163 q 184 138 159 163 q 210 76 210 113 q 185 12 210 39 q 123 -16 160 -16 q 60 11 88 -16 q 31 76 31 38 z "},"\"":{"ha":435,"x_min":38,"x_max":396,"o":"m 113 947 l 134 947 q 165 930 155 947 q 175 859 175 913 q 156 734 175 818 q 133 609 137 650 q 109 589 130 589 q 84 606 87 589 q 58 753 77 670 q 38 861 38 836 q 63 914 38 882 q 113 947 88 947 m 334 947 l 357 947 q 386 930 376 947 q 396 859 396 913 q 376 734 396 818 q 351 609 355 651 q 327 589 350 589 q 307 606 309 589 q 280 753 300 670 q 260 861 260 836 q 285 915 260 883 q 334 947 309 947 z "},"#":{"ha":640,"x_min":35,"x_max":605,"o":"m 414 33 q 410 27 414 33 q 373 20 401 20 l 349 20 q 336 24 340 20 q 331 30 331 27 l 331 33 l 361 235 l 241 235 l 212 33 q 211 28 212 30 q 200 24 210 27 q 170 20 190 20 l 145 20 q 132 24 137 20 q 127 30 127 27 l 126 33 l 157 235 l 43 235 q 35 248 35 235 q 46 311 35 274 q 50 316 47 315 q 54 317 52 317 l 56 317 l 170 317 l 186 426 l 43 426 q 35 441 35 427 q 46 503 35 467 q 50 509 47 507 q 54 510 52 510 l 56 510 l 198 510 l 231 719 q 301 731 231 731 q 313 728 309 731 q 315 722 316 724 l 315 719 l 283 510 l 403 510 l 435 719 q 506 731 435 731 q 517 728 514 731 q 521 722 521 724 l 519 719 l 487 510 l 595 510 q 598 511 597 510 q 602 509 600 511 q 605 500 605 506 q 593 435 605 475 l 585 426 l 475 426 l 457 317 l 595 317 q 598 318 597 317 q 602 316 600 319 q 605 308 605 313 q 593 243 605 282 q 589 237 591 239 q 586 235 587 235 l 585 235 l 446 235 l 414 33 m 374 317 l 391 426 l 271 426 l 254 317 l 374 317 z "},"$":{"ha":620,"x_min":34,"x_max":586,"o":"m 361 917 q 410 906 410 917 l 252 -62 q 201 -50 201 -62 l 361 917 m 312 873 q 391 867 350 873 q 470 850 433 860 q 514 841 507 841 q 537 639 537 722 q 511 627 533 627 q 481 639 483 628 q 469 678 480 652 q 437 734 457 704 q 383 786 418 764 q 309 808 349 808 q 215 777 248 808 q 182 686 182 745 q 223 592 182 633 q 345 502 264 551 q 380 481 354 496 q 416 459 406 465 q 448 439 426 453 q 481 416 471 425 q 509 393 491 408 q 534 366 526 377 q 555 338 543 355 q 572 306 567 321 q 582 271 578 290 q 586 231 586 252 q 498 58 586 126 q 296 -11 410 -11 q 246 -9 271 -11 q 192 -2 221 -7 q 147 5 163 3 q 100 14 132 8 q 68 22 69 20 q 34 231 41 111 q 57 244 33 244 q 92 236 81 244 q 112 182 99 209 q 148 124 125 156 q 211 72 171 92 q 301 52 251 52 q 399 90 358 52 q 439 194 439 129 q 428 248 439 224 q 390 295 416 273 q 346 330 363 317 q 292 363 328 342 q 274 373 286 366 q 204 413 228 399 q 144 455 180 427 q 91 506 109 483 q 59 564 73 529 q 45 637 45 598 q 127 806 45 738 q 312 873 209 873 z "},"%":{"ha":875,"x_min":31,"x_max":842,"o":"m 229 831 q 161 787 183 831 q 140 682 140 742 q 168 551 140 609 q 248 492 197 492 q 315 535 294 492 q 335 639 335 578 q 309 773 335 715 q 229 831 282 831 m 91 810 q 121 841 91 810 q 239 872 151 872 q 387 810 327 872 q 446 659 446 747 q 387 511 446 574 q 239 449 328 449 q 92 510 152 449 q 31 659 31 571 q 91 810 31 747 m 628 377 q 559 332 582 377 q 536 229 536 288 q 564 97 536 156 q 644 38 593 38 q 711 81 690 38 q 731 186 731 125 q 706 319 731 262 q 628 377 681 377 m 488 357 q 518 388 488 357 q 636 419 548 419 q 783 357 724 419 q 842 206 842 294 q 784 58 842 121 q 636 -4 726 -4 q 488 57 549 -4 q 427 206 427 118 q 488 357 427 294 m 804 849 l 151 5 q 104 -11 140 -11 q 66 5 71 -11 l 720 852 q 746 869 735 869 q 804 849 779 869 z "},"&":{"ha":924,"x_min":34,"x_max":875,"o":"m 487 133 q 409 232 458 163 q 324 355 359 301 l 289 408 q 214 334 240 374 q 187 228 187 294 q 233 106 187 146 q 347 65 279 65 q 424 85 385 65 q 487 133 463 104 m 391 830 q 323 799 347 830 q 298 724 298 768 q 366 537 298 659 q 455 612 427 575 q 483 715 483 650 q 458 794 483 758 q 391 830 433 830 m 388 890 q 543 846 486 890 q 601 730 601 803 q 550 589 601 647 q 404 475 499 532 q 581 233 473 361 q 655 361 655 336 q 642 379 655 374 q 612 385 629 384 q 594 385 595 385 q 590 407 590 393 q 594 423 590 420 l 719 423 q 868 429 745 423 q 875 407 875 425 q 865 382 875 385 q 818 375 849 382 q 773 358 787 368 q 745 323 768 355 q 688 246 722 292 q 629 172 654 201 q 646 153 632 168 q 666 133 661 138 q 684 116 671 127 q 704 100 696 104 q 722 91 712 95 q 742 87 732 87 q 789 110 765 87 q 822 152 812 133 q 845 142 833 152 q 857 125 857 133 q 842 98 853 115 q 810 56 830 80 q 759 15 791 33 q 692 -3 727 -3 q 612 19 651 -3 q 553 62 572 41 l 534 84 q 301 -5 433 -5 q 111 52 186 -5 q 35 217 35 109 q 54 305 35 264 q 107 378 72 346 q 172 432 142 411 q 247 477 202 453 q 236 495 245 479 q 224 515 227 511 q 214 533 222 518 q 203 553 206 548 q 194 574 201 559 q 185 597 187 589 q 178 618 183 605 q 172 642 174 632 q 170 665 171 652 q 168 692 168 678 q 231 836 168 781 q 388 890 294 890 z "},"'":{"ha":273,"x_min":69,"x_max":206,"o":"m 142 947 l 165 947 q 196 930 186 947 q 206 859 206 913 q 185 734 206 818 q 160 609 164 651 q 136 589 157 589 q 115 606 118 589 q 89 753 109 670 q 69 861 69 836 q 94 915 69 883 q 142 947 118 947 z "},"(":{"ha":381,"x_min":37,"x_max":351,"o":"m 164 414 q 231 52 164 214 q 349 -136 297 -110 q 351 -144 351 -137 q 347 -163 351 -152 q 335 -175 342 -175 q 261 -130 309 -175 q 162 -12 213 -85 q 74 178 111 62 q 37 414 37 293 q 73 652 37 536 q 158 846 109 769 q 256 968 208 922 q 335 1015 305 1015 q 347 1002 342 1015 q 351 979 351 989 q 350 977 351 977 q 224 773 283 939 q 164 414 164 608 z "},")":{"ha":382,"x_min":30,"x_max":346,"o":"m 217 414 q 157 773 217 608 q 33 977 98 939 q 30 979 30 977 q 35 1001 30 987 q 47 1015 41 1015 q 127 967 79 1015 q 226 843 176 920 q 311 650 275 766 q 346 414 346 534 q 309 182 346 296 q 222 -7 273 68 q 124 -129 172 -83 q 47 -175 76 -175 q 35 -163 41 -175 q 30 -144 30 -152 q 33 -136 30 -137 q 151 54 84 -110 q 217 414 217 217 z "},"*":{"ha":563,"x_min":33,"x_max":525,"o":"m 399 838 q 439 859 416 856 q 476 846 461 861 q 489 808 491 830 q 469 769 487 787 q 402 724 448 749 q 338 681 357 699 q 332 666 330 677 q 343 655 334 658 q 415 635 365 644 q 492 613 465 627 q 524 582 515 602 q 524 543 533 562 q 492 518 513 524 q 448 525 471 513 q 385 574 423 538 q 323 624 347 610 q 308 625 313 629 q 300 613 300 621 q 304 538 297 589 q 307 458 311 488 q 286 418 302 434 q 248 406 269 401 q 216 429 227 410 q 209 472 205 448 q 237 548 214 500 q 263 621 259 595 q 262 636 263 635 q 245 637 256 642 q 176 612 221 633 q 102 585 132 590 q 56 592 77 581 q 33 624 35 604 q 44 663 30 646 q 84 682 58 680 q 165 680 113 686 q 243 675 217 673 q 256 684 255 675 q 254 699 258 690 q 207 757 241 720 q 159 821 172 793 q 151 865 146 842 q 175 897 156 887 q 216 897 195 906 q 245 865 236 888 q 268 788 258 838 q 289 713 278 738 q 292 706 289 711 q 300 701 296 701 q 313 709 305 701 q 353 772 330 727 q 399 838 377 817 z "},"+":{"ha":720,"x_min":35,"x_max":685,"o":"m 403 286 l 403 31 q 332 9 393 18 q 328 9 330 9 q 324 8 326 8 q 316 19 316 8 l 316 283 q 308 290 316 290 l 43 290 q 35 304 35 290 q 46 370 35 334 q 50 376 47 374 q 54 377 52 377 l 56 377 l 309 377 q 316 385 316 377 l 316 637 q 323 647 315 644 q 389 658 359 658 l 403 650 l 403 384 q 408 377 403 377 l 674 377 q 685 369 685 377 q 671 298 685 349 q 668 292 670 294 q 665 290 666 290 l 662 290 l 408 290 q 403 286 403 290 z "},",":{"ha":289,"x_min":33,"x_max":250,"o":"m 125 -22 q 104 35 125 0 q 84 94 84 69 q 113 151 84 122 q 187 179 141 179 q 231 171 217 179 q 250 76 250 133 q 239 11 250 49 q 180 -115 217 -65 q 65 -225 144 -164 l 64 -225 q 45 -211 57 -225 q 33 -187 33 -197 q 56 -165 33 -186 q 102 -106 79 -145 q 125 -22 125 -68 z "},"-":{"ha":439,"x_min":42,"x_max":396,"o":"m 42 281 q 58 358 42 358 l 60 358 l 387 374 l 388 374 q 396 362 396 374 q 392 312 396 332 q 382 286 388 292 l 378 281 l 52 266 q 49 266 50 266 q 45 270 47 266 q 42 281 42 274 z "},".":{"ha":259,"x_min":39,"x_max":221,"o":"m 195 140 q 208 126 195 140 q 221 76 221 113 q 195 12 221 39 q 132 -16 168 -16 q 66 12 94 -16 q 39 76 39 39 q 66 140 39 113 q 132 167 94 167 q 195 140 168 167 z "},"/":{"ha":564,"x_min":28,"x_max":536,"o":"m 536 1024 l 134 -16 q 108 -37 132 -26 q 53 -47 84 -47 q 37 -45 43 -47 q 30 -41 31 -43 l 28 -38 l 430 1002 q 496 1032 444 1032 q 536 1024 519 1032 z "},":":{"ha":258,"x_min":39,"x_max":221,"o":"m 195 558 q 208 545 195 558 q 221 495 221 532 q 195 430 221 458 q 132 401 168 401 q 66 430 94 401 q 39 495 39 458 q 66 558 39 532 q 132 585 94 585 q 195 558 168 585 m 195 140 q 208 126 195 140 q 221 76 221 113 q 195 12 221 39 q 132 -16 168 -16 q 66 12 94 -16 q 39 76 39 39 q 66 140 39 113 q 132 167 94 167 q 195 140 168 167 z "},";":{"ha":292,"x_min":30,"x_max":255,"o":"m 122 -22 q 102 35 122 0 q 81 94 81 69 q 110 151 81 122 q 184 179 138 179 q 228 171 214 179 q 247 76 247 133 q 236 11 247 49 q 178 -115 214 -65 q 62 -225 141 -164 l 61 -225 q 42 -211 54 -225 q 30 -187 30 -197 q 53 -165 30 -186 q 99 -106 76 -145 q 122 -22 122 -68 m 229 558 q 242 545 229 558 q 255 495 255 532 q 229 430 255 458 q 165 401 202 401 q 100 430 127 401 q 73 495 73 458 q 100 558 73 532 q 165 585 127 585 q 229 558 202 585 z "},"<":{"ha":629,"x_min":34,"x_max":595,"o":"m 595 54 q 587 12 595 45 q 574 -20 579 -20 q 567 -18 572 -20 l 58 240 q 34 294 34 254 q 58 327 34 315 l 562 581 q 568 583 567 583 q 591 513 578 583 l 587 500 l 151 283 l 591 62 q 595 54 595 61 z "},"=":{"ha":716,"x_min":42,"x_max":677,"o":"m 677 233 q 663 161 677 212 q 660 155 662 157 q 656 153 658 153 l 655 153 l 52 153 q 42 167 42 153 q 54 233 42 191 q 58 239 56 237 q 62 240 60 240 l 64 240 l 666 240 q 677 233 677 240 m 42 359 q 62 433 49 433 l 671 433 q 677 426 677 433 q 663 354 677 404 q 660 348 662 350 q 656 346 658 346 l 655 346 l 52 346 q 42 359 42 346 z "},">":{"ha":632,"x_min":35,"x_max":597,"o":"m 35 54 q 39 62 35 54 l 480 283 l 43 500 q 39 513 43 500 q 62 583 53 583 q 69 581 64 583 l 572 327 q 597 294 597 315 q 572 240 597 254 l 64 -18 q 57 -20 58 -20 q 43 12 52 -20 q 35 54 35 45 z "},"?":{"ha":442,"x_min":33,"x_max":411,"o":"m 103 873 q 318 804 225 873 q 411 624 411 735 q 374 490 411 537 q 262 404 338 442 q 242 395 256 401 q 221 385 228 388 q 203 374 214 381 q 184 363 191 368 q 170 352 178 358 q 159 340 163 346 q 153 328 155 335 q 149 289 149 317 q 146 254 149 260 q 111 239 137 239 q 92 355 92 239 q 108 451 92 423 q 170 510 123 479 q 210 533 179 517 q 262 563 241 549 q 302 601 283 576 q 320 654 320 625 q 292 720 320 693 q 224 747 263 747 q 170 741 203 747 q 115 734 136 734 q 58 754 83 734 q 34 806 34 774 q 42 857 34 830 q 103 873 77 873 m 188 140 q 201 126 188 140 q 214 76 214 113 q 188 12 214 39 q 125 -16 161 -16 q 60 12 87 -16 q 33 76 33 39 q 60 140 33 113 q 125 167 87 167 q 188 140 161 167 z "},"@":{"ha":1059,"x_min":37,"x_max":1023,"o":"m 947 290 q 844 589 947 467 q 571 711 741 711 q 256 595 384 711 q 127 302 127 479 q 243 -41 127 88 q 602 -171 359 -171 q 633 -168 616 -171 q 662 -160 651 -164 q 685 -152 673 -156 l 697 -146 q 700 -160 700 -159 q 654 -210 700 -187 q 528 -232 609 -232 q 328 -187 422 -232 q 172 -73 235 -142 q 73 83 109 -3 q 37 251 37 168 q 194 639 37 495 q 586 783 351 783 q 768 740 684 783 q 907 629 852 697 q 992 479 962 562 q 1023 316 1023 397 q 1000 154 1023 222 q 939 50 977 85 q 860 -1 901 15 q 776 -18 819 -18 q 664 23 709 -18 q 618 109 618 64 q 616 109 618 110 q 612 106 613 107 q 534 30 593 69 q 420 -9 476 -9 q 307 53 349 -9 q 266 191 266 115 q 370 446 266 336 q 646 556 473 556 l 774 544 q 765 472 768 500 l 734 182 q 731 144 731 155 q 789 41 730 41 q 871 68 837 41 q 920 140 905 96 q 941 220 935 183 q 947 290 947 256 m 640 453 q 637 470 640 464 q 621 481 635 476 q 583 487 608 487 q 452 408 510 487 q 393 194 393 328 q 458 72 393 72 q 562 139 507 72 q 618 239 616 206 l 637 437 q 640 453 640 445 z "},"A":{"ha":998,"x_min":37,"x_max":956,"o":"m 530 895 l 815 184 q 856 85 836 130 q 899 53 864 65 q 951 41 935 41 q 956 16 956 41 q 954 -4 956 0 q 783 4 791 4 q 606 -4 773 4 q 601 21 601 1 q 606 41 601 41 q 651 49 623 41 q 685 68 680 57 q 689 85 689 76 q 663 179 689 113 l 616 305 q 606 311 610 311 q 490 313 563 313 q 335 309 416 313 q 327 304 327 309 l 275 178 q 250 90 250 107 q 264 62 250 72 q 307 47 277 54 q 349 41 338 41 q 353 22 353 39 q 350 -4 353 4 q 286 0 343 -4 q 194 4 229 4 q 111 1 159 4 q 42 -4 62 -3 q 37 16 37 1 q 39 41 37 41 q 92 52 56 41 q 137 79 127 64 q 189 184 163 119 l 441 795 q 491 892 472 876 q 514 902 502 902 q 530 895 524 902 m 368 391 q 465 387 415 387 q 576 391 513 387 l 579 396 l 476 667 l 365 396 q 368 391 365 391 z "},"B":{"ha":795,"x_min":34,"x_max":758,"o":"m 593 239 q 545 382 593 326 q 389 438 496 438 q 305 431 350 438 q 294 404 294 425 l 294 152 q 311 81 294 95 q 397 68 328 68 q 456 74 427 68 q 517 96 484 80 q 572 149 551 111 q 593 239 593 186 m 141 194 l 141 707 q 132 818 141 788 q 94 842 127 833 q 39 852 60 852 q 34 872 34 852 q 39 897 34 891 q 220 892 129 892 q 336 893 289 892 q 418 894 384 894 q 515 882 467 894 q 610 844 564 869 q 686 772 656 819 q 715 662 715 724 q 686 571 715 613 q 633 512 658 529 q 590 488 608 495 q 585 480 579 484 q 696 409 635 472 q 758 254 758 346 q 664 68 758 137 q 414 0 570 -1 l 221 1 l 41 -4 q 37 18 37 0 q 41 41 37 41 q 92 50 58 41 q 132 71 126 58 q 141 194 141 99 m 452 513 q 551 646 551 534 q 395 829 551 829 q 308 822 331 829 q 297 807 297 819 l 294 677 l 294 518 q 376 505 294 505 q 452 513 426 505 z "},"C":{"ha":867,"x_min":34,"x_max":831,"o":"m 831 247 q 811 142 831 229 q 780 49 791 54 q 465 -8 662 -8 q 160 123 286 -8 q 34 437 34 255 q 163 767 34 629 q 480 905 292 905 q 800 868 633 905 q 808 779 804 867 q 812 670 812 692 q 780 650 812 650 q 761 655 772 650 q 741 705 755 680 q 699 764 727 731 q 614 817 670 796 q 486 838 559 838 q 279 728 353 838 q 205 465 205 618 q 288 176 205 294 q 524 57 372 57 q 715 133 644 57 q 747 184 732 152 q 768 237 761 216 q 779 259 776 259 q 831 247 826 259 z "},"D":{"ha":960,"x_min":34,"x_max":924,"o":"m 220 892 q 454 892 220 892 q 800 762 675 892 q 924 456 924 632 q 798 128 924 260 q 453 -4 673 -4 q 341 -1 425 -4 q 221 1 258 1 l 41 -4 q 37 18 37 0 q 41 41 37 41 q 92 50 58 41 q 132 71 126 58 q 141 194 141 99 l 141 707 q 132 818 141 788 q 94 842 127 833 q 39 852 60 852 q 34 872 34 852 q 39 897 34 891 q 220 892 129 892 m 294 719 l 294 187 q 309 87 294 111 q 475 65 331 65 q 750 461 750 65 q 676 719 750 613 q 465 825 602 825 l 458 825 q 312 803 328 825 q 294 719 294 779 z "},"E":{"ha":792,"x_min":34,"x_max":758,"o":"m 220 891 q 430 896 279 891 q 658 901 581 901 q 680 787 663 860 q 697 708 696 715 q 669 701 690 701 q 650 711 654 701 q 476 831 605 831 l 406 831 q 302 814 305 831 q 294 704 294 776 l 294 491 q 354 483 294 483 l 425 483 q 430 483 426 483 q 524 490 509 483 q 547 537 538 496 q 555 571 551 557 q 576 581 556 581 q 602 574 595 581 l 602 317 q 576 312 597 312 q 555 323 559 312 q 538 377 545 359 q 528 396 530 395 q 517 404 526 397 q 392 415 499 415 q 294 404 294 415 l 294 194 q 307 84 294 119 q 399 66 313 66 l 449 66 q 610 95 555 66 q 659 142 632 106 q 701 225 686 179 q 720 233 703 233 q 758 225 750 233 q 739 170 754 213 q 715 104 723 126 q 697 49 707 81 q 685 -4 688 16 q 460 0 631 -4 q 221 1 290 4 l 41 -4 q 37 18 37 0 q 41 41 37 41 q 92 50 58 41 q 132 71 126 58 q 141 194 141 99 l 141 707 q 132 818 141 788 q 94 842 127 833 q 39 852 60 852 q 34 872 34 852 q 39 897 34 891 q 220 891 129 891 z "},"F":{"ha":730,"x_min":34,"x_max":696,"o":"m 227 4 q 140 2 186 4 q 68 -3 94 0 l 41 -4 q 37 18 37 0 q 41 41 37 41 q 92 50 58 41 q 132 71 126 58 q 141 194 141 99 l 141 707 q 132 818 141 788 q 94 842 127 833 q 39 852 60 852 q 34 872 34 852 q 39 897 34 891 q 218 891 127 891 q 433 895 282 890 q 656 901 585 901 q 678 787 662 860 q 696 708 694 715 q 667 701 689 701 q 648 711 652 701 q 475 831 604 831 l 404 831 q 301 814 304 831 q 294 704 294 781 l 294 491 q 354 483 294 483 l 423 483 q 429 483 425 483 q 522 490 507 483 q 545 537 537 496 q 553 571 549 557 q 575 581 555 581 q 601 574 594 581 l 601 317 q 575 312 595 312 q 553 323 557 312 q 536 377 544 359 q 527 396 529 395 q 515 404 525 397 q 391 415 498 415 q 294 404 294 415 l 294 191 q 309 79 294 118 q 358 53 315 65 q 416 41 401 41 q 423 18 423 41 q 419 -4 423 1 q 227 4 256 4 z "},"G":{"ha":952,"x_min":34,"x_max":917,"o":"m 34 437 q 164 766 34 628 q 480 905 294 905 q 795 854 600 905 q 806 764 799 853 q 814 659 814 675 q 787 643 814 643 q 757 651 768 643 q 745 689 753 670 q 718 737 738 708 q 671 787 699 766 q 595 823 643 807 q 486 838 547 838 q 278 732 353 838 q 203 461 203 627 q 238 273 203 363 q 348 120 273 183 q 524 57 423 57 q 654 83 609 57 q 667 114 667 92 l 666 212 l 666 221 q 656 331 666 302 q 616 357 651 349 q 559 365 582 365 q 553 385 553 365 q 559 410 553 404 q 641 406 574 410 q 749 401 708 401 q 913 410 750 401 q 917 387 917 397 q 911 363 917 363 q 876 355 903 363 q 836 342 848 347 q 818 243 818 331 q 819 186 818 214 q 819 155 819 157 q 826 113 819 130 q 833 92 833 95 q 803 60 833 73 q 723 26 749 35 q 625 3 697 16 q 464 -11 552 -11 q 159 122 285 -11 q 34 437 34 255 z "},"H":{"ha":960,"x_min":35,"x_max":921,"o":"m 913 41 q 918 15 918 41 q 916 -4 918 4 q 743 4 753 4 q 686 3 716 4 q 621 -1 656 1 q 563 -4 585 -3 q 557 15 557 1 q 563 41 557 41 q 614 50 579 41 q 652 71 648 60 q 663 184 663 113 l 663 418 l 661 423 q 481 426 533 426 q 294 419 294 423 l 294 193 q 307 71 294 118 q 344 51 309 61 q 391 41 378 41 q 396 15 396 41 q 393 -4 396 4 q 221 4 231 4 q 164 3 194 4 q 98 -1 134 1 q 41 -4 62 -3 q 35 15 35 1 q 41 41 35 41 q 92 50 57 41 q 130 71 126 60 q 141 184 141 113 l 141 708 q 130 822 141 789 q 92 843 125 833 q 43 853 60 853 q 38 873 38 853 q 41 898 38 895 q 116 894 47 898 q 221 890 184 890 q 395 898 232 890 q 399 876 399 886 q 393 853 399 853 q 345 842 381 853 q 305 822 308 831 q 294 703 294 780 l 294 505 l 297 500 q 481 498 430 498 q 661 500 538 498 q 663 506 663 503 l 663 708 q 652 822 663 789 q 614 843 647 833 q 566 853 582 853 q 560 873 560 853 q 563 898 560 895 q 638 894 570 898 q 743 890 707 890 q 917 898 754 890 q 921 876 921 886 q 916 853 921 853 q 867 842 903 853 q 827 822 830 831 q 817 703 817 780 l 817 193 q 829 71 817 118 q 866 51 831 61 q 913 41 901 41 z "},"I":{"ha":438,"x_min":35,"x_max":399,"o":"m 141 708 q 130 822 141 789 q 92 843 125 833 q 43 853 60 853 q 38 873 38 853 q 41 898 38 895 q 116 894 47 898 q 221 890 184 890 q 395 898 232 890 q 399 876 399 886 q 393 853 399 853 q 345 842 381 853 q 305 822 308 831 q 294 703 294 780 l 294 193 q 307 71 294 118 q 344 51 309 61 q 391 41 378 41 q 396 15 396 41 q 393 -4 396 4 q 221 4 231 4 q 164 3 194 4 q 98 -1 134 1 q 41 -4 62 -3 q 35 15 35 1 q 41 41 35 41 q 92 50 57 41 q 130 71 126 60 q 141 184 141 113 l 141 708 z "},"J":{"ha":632,"x_min":31,"x_max":597,"o":"m 494 703 l 494 155 q 392 -174 494 -46 q 123 -301 290 -301 q 79 -293 103 -301 q 49 -279 54 -285 q 31 -218 31 -256 q 57 -165 31 -187 q 117 -144 83 -144 q 178 -179 145 -144 q 231 -214 212 -214 q 310 -121 281 -214 q 339 144 339 -28 l 339 711 q 330 822 339 787 q 292 846 326 838 q 237 853 259 853 q 232 873 232 853 q 235 898 232 895 q 293 895 255 897 q 362 891 331 892 q 420 890 393 890 q 593 898 430 890 q 597 876 597 886 q 591 853 597 853 q 543 842 579 853 q 505 822 507 831 q 494 703 494 780 z "},"K":{"ha":979,"x_min":35,"x_max":937,"o":"m 294 703 l 294 484 q 296 478 294 480 q 301 475 298 476 l 302 475 l 313 475 q 384 521 342 475 q 623 792 492 637 q 644 833 644 818 q 614 852 644 846 q 564 857 585 857 q 557 873 559 857 q 559 898 556 888 q 723 890 709 890 q 774 891 749 890 q 828 895 799 892 q 876 898 857 897 q 878 875 879 892 q 873 857 878 857 q 736 800 779 846 l 484 513 q 487 475 469 495 l 804 98 q 870 54 829 68 q 930 41 911 41 q 937 15 937 41 q 933 -4 937 4 q 747 4 770 4 q 644 1 704 4 q 559 -4 583 -3 q 553 21 553 1 q 559 41 553 41 q 597 50 574 41 q 620 71 620 60 q 582 127 620 77 q 477 256 544 178 q 346 401 411 334 q 316 407 340 407 q 294 391 294 407 l 294 190 q 307 71 294 118 q 344 51 309 61 q 391 41 378 41 q 396 15 396 41 q 393 -4 396 4 q 221 4 231 4 q 164 3 194 4 q 98 -1 134 1 q 41 -4 62 -3 q 35 15 35 1 q 41 41 35 41 q 92 50 57 41 q 130 71 126 60 q 141 184 141 113 l 141 708 q 130 822 141 789 q 92 843 125 833 q 43 853 60 853 q 38 873 38 853 q 41 898 38 895 q 116 894 47 898 q 221 890 184 890 q 395 898 232 890 q 399 876 399 886 q 393 853 399 853 q 345 842 381 853 q 305 822 308 831 q 294 703 294 780 z "},"L":{"ha":792,"x_min":37,"x_max":758,"o":"m 294 703 l 294 193 q 307 84 294 126 q 399 66 313 66 l 449 66 q 610 95 555 66 q 659 142 632 106 q 701 225 686 179 q 720 233 703 233 q 758 225 750 233 q 739 170 754 213 q 715 104 723 126 q 697 49 707 81 q 685 -4 688 16 q 460 0 631 -4 q 221 1 290 4 l 41 -4 q 37 18 37 0 q 41 41 37 41 q 92 50 58 41 q 132 71 126 58 q 141 194 141 99 l 141 707 q 130 822 141 789 q 92 843 125 833 q 43 853 60 853 q 38 873 38 853 q 41 898 38 895 q 116 894 47 898 q 221 890 184 890 q 395 898 232 890 q 399 876 399 886 q 393 853 399 853 q 345 842 381 853 q 305 822 308 831 q 294 703 294 780 z "},"M":{"ha":1238,"x_min":35,"x_max":1199,"o":"m 241 890 q 374 898 248 890 q 430 758 387 860 q 536 508 473 655 q 637 266 600 361 q 642 263 637 263 q 646 267 646 263 q 836 738 765 553 l 884 895 q 996 891 925 891 q 1157 898 1048 891 q 1161 876 1161 892 q 1156 853 1161 853 l 1153 853 q 1086 831 1116 853 q 1069 758 1066 817 q 1088 198 1074 637 q 1109 73 1089 125 q 1147 51 1115 61 q 1194 41 1180 41 q 1199 16 1199 41 q 1196 -4 1199 4 q 1029 4 1034 4 q 972 3 1002 4 q 907 -1 943 1 q 849 -4 871 -3 q 844 16 844 1 q 849 41 844 41 q 892 50 864 41 q 930 69 921 58 q 944 117 944 87 l 944 193 l 930 605 q 914 689 925 689 q 907 681 910 689 l 648 49 q 597 -3 625 -3 q 583 0 591 -3 l 279 730 q 258 125 270 392 q 262 83 258 95 q 316 54 269 68 q 380 41 363 41 q 385 16 385 41 q 382 -4 385 4 q 212 4 220 4 q 115 0 175 4 q 41 -4 54 -4 q 35 18 35 1 q 41 41 35 41 q 109 54 62 41 q 161 90 155 68 q 176 180 174 114 q 184 424 179 283 q 192 663 189 564 q 195 787 195 762 q 191 825 195 812 q 146 845 187 836 q 87 854 104 854 q 81 878 81 854 q 87 898 81 892 q 157 893 107 897 q 241 890 206 890 z "},"N":{"ha":1021,"x_min":37,"x_max":986,"o":"m 774 709 q 761 818 774 781 q 715 844 754 834 q 655 853 677 853 q 649 873 650 853 q 652 898 648 892 q 823 888 798 888 q 914 893 859 888 q 983 898 970 898 q 986 876 986 892 q 981 853 986 853 q 922 843 962 853 q 871 815 883 833 q 856 703 856 779 l 856 189 q 861 -1 856 140 q 831 -7 856 -7 q 788 24 810 -7 l 248 741 l 248 191 q 259 80 248 110 q 309 52 266 64 q 370 41 353 41 q 375 22 374 41 q 373 -4 376 3 q 203 4 210 4 q 113 1 167 4 q 42 -4 60 -3 q 37 19 37 1 q 42 41 37 41 q 104 51 65 41 q 153 81 142 61 q 167 195 167 110 l 167 727 q 152 826 167 800 q 105 844 146 836 q 45 852 64 852 q 39 872 39 852 q 43 898 38 892 q 205 891 186 891 q 327 898 250 891 q 421 753 353 849 q 609 501 490 658 q 772 285 728 345 q 774 340 774 301 l 774 709 z "},"O":{"ha":940,"x_min":34,"x_max":903,"o":"m 448 838 q 269 732 331 838 q 208 475 208 625 q 235 281 208 373 q 330 121 263 189 q 490 54 396 54 q 668 162 605 54 q 731 419 731 270 q 704 615 731 524 q 610 772 677 707 q 448 838 544 838 m 161 121 q 98 188 161 121 q 34 445 34 255 q 161 770 34 635 q 468 905 289 905 q 775 770 647 905 q 903 445 903 635 q 775 121 903 255 q 468 -14 647 -14 q 161 121 289 -14 z "},"P":{"ha":741,"x_min":35,"x_max":705,"o":"m 221 892 q 312 895 260 892 q 404 897 363 897 q 485 889 445 897 q 565 863 525 882 q 635 816 605 844 q 686 745 666 788 q 705 648 705 701 q 672 524 705 585 q 572 420 639 463 q 420 377 505 377 q 363 387 392 377 q 324 412 335 397 q 319 426 321 415 q 319 446 317 437 q 323 456 320 456 q 399 442 354 442 q 502 496 464 442 q 540 631 540 549 q 503 774 540 722 q 391 827 467 827 q 312 818 334 827 q 296 677 296 810 l 296 193 q 307 77 296 111 q 352 51 311 61 q 412 41 393 41 q 418 18 418 41 q 415 -5 418 3 q 222 3 266 3 q 140 1 186 3 q 68 -3 95 -1 l 41 -5 q 37 19 37 0 q 41 41 37 41 q 93 50 58 41 q 133 71 127 58 q 141 194 141 95 l 141 707 q 133 818 141 784 q 93 840 129 829 q 41 852 57 852 q 35 872 35 852 q 41 897 35 892 q 221 892 183 892 z "},"Q":{"ha":1009,"x_min":33,"x_max":1019,"o":"m 445 833 q 265 728 328 833 q 202 475 202 623 q 231 282 202 374 q 326 123 259 190 q 488 57 393 57 q 667 163 604 57 q 731 419 731 270 q 715 567 731 496 q 665 699 699 637 q 575 796 632 760 q 445 833 518 833 m 905 -107 q 951 -104 929 -107 q 986 -98 972 -100 q 1002 -95 1000 -95 q 1019 -122 1019 -95 l 1019 -129 q 770 -190 905 -190 q 663 -166 720 -190 q 560 -112 605 -142 q 456 -48 515 -81 q 350 0 396 -15 q 249 50 301 15 q 147 140 197 85 q 65 275 98 194 q 33 445 33 355 q 91 675 33 570 q 249 843 149 781 q 466 905 349 905 q 684 843 583 905 q 842 675 784 781 q 901 445 901 570 q 869 273 901 354 q 791 138 838 193 q 694 50 745 84 q 597 7 643 16 q 678 -37 632 -11 q 749 -75 724 -62 q 814 -97 773 -87 q 905 -107 854 -107 z "},"R":{"ha":929,"x_min":35,"x_max":906,"o":"m 391 827 q 312 818 334 827 q 296 677 297 811 l 296 521 q 319 481 296 491 q 382 472 342 472 l 418 472 q 508 519 468 472 q 548 643 548 567 q 391 827 548 827 m 412 895 q 486 888 448 895 q 566 863 525 880 q 640 819 608 845 q 693 751 673 793 q 713 656 713 709 q 666 518 713 583 q 551 426 618 453 q 545 412 540 422 q 697 182 621 275 q 800 82 745 123 q 901 41 854 41 q 906 19 906 33 q 901 -5 906 5 q 859 -8 884 -8 q 733 8 789 -8 q 635 56 677 24 q 567 118 594 88 q 510 194 540 148 q 467 258 491 221 q 429 314 442 294 q 400 355 416 334 q 372 388 384 377 q 350 403 361 399 q 317 407 342 407 q 296 384 296 407 l 296 193 q 307 77 296 111 q 352 51 311 61 q 412 41 393 41 q 418 18 418 41 q 415 -5 418 3 q 222 3 266 3 q 140 1 186 3 q 68 -3 95 -1 l 41 -5 q 37 19 37 0 q 41 41 37 41 q 93 50 58 41 q 133 71 127 58 q 141 194 141 95 l 141 707 q 133 818 141 784 q 93 840 129 829 q 41 852 57 852 q 35 872 35 852 q 41 897 35 892 q 221 892 184 892 q 315 894 259 892 q 412 895 372 895 z "},"S":{"ha":643,"x_min":34,"x_max":608,"o":"m 52 665 q 137 836 52 766 q 330 906 222 906 q 396 902 368 906 q 475 885 425 898 q 545 868 526 872 q 562 659 562 776 q 545 647 559 647 q 506 659 509 647 q 448 781 498 722 q 326 841 397 841 q 230 806 263 841 q 197 711 197 770 q 201 672 197 690 q 220 636 206 654 q 243 607 235 618 q 277 578 252 595 q 311 553 302 560 q 352 527 320 547 q 391 505 384 507 q 436 475 399 498 q 488 443 473 453 q 532 408 503 433 q 573 362 560 384 q 597 307 586 340 q 608 236 608 274 q 520 57 608 127 q 317 -14 433 -14 q 68 24 236 -14 q 45 147 56 73 q 35 244 35 221 q 57 255 37 255 q 96 244 92 255 q 115 191 102 220 q 153 128 129 161 q 216 74 176 95 q 307 53 256 53 q 412 91 370 53 q 454 205 454 129 q 446 250 454 228 q 425 286 437 271 q 391 319 414 301 q 354 346 369 336 q 310 372 339 355 q 269 396 281 389 q 254 407 264 400 q 194 445 214 431 q 142 485 174 458 q 94 534 110 511 q 64 591 77 557 q 52 665 52 625 z "},"T":{"ha":901,"x_min":33,"x_max":867,"o":"m 299 893 q 345 891 299 893 q 449 890 391 890 q 600 893 507 890 q 747 898 692 897 q 841 911 781 898 l 867 704 q 830 694 857 694 q 817 701 819 694 q 766 802 798 776 q 669 829 735 829 q 537 806 543 829 q 525 678 525 766 l 525 189 q 537 71 525 115 q 574 51 538 61 q 621 41 609 41 q 627 16 627 41 q 624 -5 627 3 q 572 -1 606 -4 q 508 3 537 1 q 452 4 479 4 q 351 0 415 4 q 271 -5 286 -4 q 266 16 266 0 q 271 41 266 41 q 322 50 288 41 q 361 71 357 60 q 372 183 372 107 l 372 674 q 359 806 372 787 q 231 829 349 829 q 133 802 164 829 q 81 703 102 776 q 68 694 80 694 q 33 705 42 694 l 58 911 q 152 898 118 898 q 299 893 208 897 z "},"U":{"ha":994,"x_min":33,"x_max":962,"o":"m 217 890 q 391 898 241 890 q 393 876 393 887 q 388 853 393 853 q 339 843 376 853 q 301 822 302 833 q 290 703 290 781 l 290 391 q 351 168 290 251 q 518 84 411 84 q 686 153 623 84 q 749 380 749 221 l 749 711 q 735 819 749 793 q 687 843 727 831 q 629 854 647 854 q 623 873 624 854 q 627 898 623 892 q 798 888 773 888 q 888 893 831 888 q 958 898 944 898 q 960 876 960 888 q 955 854 960 854 q 897 844 936 854 q 845 817 857 834 q 830 704 830 783 l 830 385 q 804 203 830 279 q 731 82 779 126 q 623 18 684 38 q 486 -3 563 -3 q 229 96 323 -3 q 136 412 136 194 l 136 708 q 125 822 136 795 q 87 843 119 833 q 38 853 54 853 q 33 873 33 853 q 37 898 33 894 q 217 890 209 890 z "},"V":{"ha":970,"x_min":20,"x_max":962,"o":"m 201 890 q 387 898 220 890 q 391 873 391 892 q 385 853 391 853 q 357 850 374 853 q 320 835 339 846 q 301 806 301 823 q 404 528 301 780 q 431 461 420 484 q 472 364 448 419 q 514 274 496 309 q 532 241 532 239 l 730 709 q 757 803 757 773 q 725 840 757 827 q 661 853 693 853 q 656 873 655 853 q 659 898 656 892 q 724 894 671 898 q 810 890 777 890 q 891 893 845 890 q 958 898 937 897 q 960 878 960 891 q 958 854 960 854 q 911 844 940 854 q 865 815 882 834 q 807 696 845 783 l 525 35 q 472 -14 505 -14 q 450 0 458 -14 l 171 694 q 119 815 140 776 q 77 843 110 833 q 26 853 45 853 q 20 873 20 853 q 24 898 20 892 q 99 894 34 898 q 201 890 164 890 z "},"W":{"ha":1462,"x_min":5,"x_max":1454,"o":"m 191 890 q 355 898 206 890 q 357 872 357 890 q 353 853 358 854 q 331 851 343 853 q 303 839 319 849 q 288 811 288 829 q 312 739 288 785 l 578 214 q 588 211 582 208 q 597 220 594 214 l 696 412 l 551 705 q 481 821 510 788 q 446 844 469 834 q 403 853 422 853 q 397 876 397 853 q 401 898 397 894 q 581 890 572 890 q 741 898 591 890 q 744 872 743 890 q 741 853 745 854 q 715 850 728 853 q 689 838 703 848 q 675 811 675 827 q 700 741 675 789 l 783 571 l 863 735 q 887 810 887 784 q 854 844 887 834 q 796 854 821 854 q 791 873 791 854 q 795 898 791 892 q 944 890 914 890 q 1000 891 975 890 q 1054 895 1025 892 q 1100 898 1082 897 q 1103 873 1103 890 q 1099 854 1103 856 q 1049 842 1082 854 q 1002 814 1016 830 q 925 686 972 780 l 826 486 l 958 217 q 975 224 966 203 q 1103 499 1002 288 q 1213 732 1203 711 q 1237 808 1237 784 q 1204 844 1237 833 q 1150 854 1172 854 q 1144 873 1145 854 q 1149 898 1143 892 q 1299 890 1268 890 q 1354 891 1329 890 q 1405 895 1378 892 q 1451 898 1432 897 q 1454 871 1454 888 q 1449 854 1454 854 q 1402 843 1432 854 q 1356 817 1371 831 q 1278 688 1320 774 l 967 30 q 942 -3 956 8 q 917 -14 928 -14 q 903 -8 909 -14 l 738 326 l 583 30 q 558 -3 572 8 q 534 -14 544 -15 q 521 -8 526 -14 l 161 705 q 91 823 123 781 q 54 845 80 837 q 11 853 27 853 q 5 875 5 853 q 9 898 5 894 q 191 890 182 890 z "},"X":{"ha":1020,"x_min":33,"x_max":977,"o":"m 274 890 q 458 898 309 890 q 460 873 460 892 q 456 853 460 853 q 406 844 433 853 q 378 817 378 836 q 392 781 378 803 l 545 549 q 590 606 557 566 q 642 672 623 647 q 685 728 662 697 q 720 781 708 760 q 732 811 732 802 q 702 840 732 826 q 635 853 671 853 q 629 873 629 853 q 633 898 628 892 q 803 890 772 890 q 970 898 821 890 q 972 873 972 892 q 968 853 972 853 q 904 842 948 853 q 842 807 860 830 l 587 484 q 846 96 841 104 q 905 54 868 68 q 971 41 943 41 q 977 14 977 41 q 974 -5 977 3 q 803 3 825 3 q 736 1 769 3 q 663 -2 704 0 q 597 -5 623 -4 q 592 20 591 0 q 598 41 593 41 q 646 51 616 41 q 675 79 675 61 q 670 94 675 85 l 480 382 q 274 81 274 107 q 302 54 274 66 q 370 41 330 41 q 377 15 377 41 q 374 -5 377 0 q 208 3 243 3 q 38 -5 187 3 q 33 14 33 7 q 38 41 33 41 q 98 51 57 41 q 157 81 140 61 l 434 452 l 248 735 q 167 833 199 812 q 92 853 134 853 q 88 873 88 853 q 92 898 88 892 q 151 895 117 897 q 215 891 186 892 q 274 890 244 890 z "},"Y":{"ha":891,"x_min":30,"x_max":879,"o":"m 212 890 q 399 898 236 890 q 401 873 401 892 q 396 854 400 854 q 347 845 374 854 q 320 817 320 836 q 332 781 320 804 l 476 518 q 490 521 483 511 q 602 700 548 608 q 656 817 656 792 q 631 843 656 831 q 566 854 606 854 q 560 873 560 854 q 564 898 560 892 q 727 890 701 890 q 783 891 758 890 q 835 895 808 892 q 876 898 861 897 q 879 876 879 887 q 873 854 879 854 q 817 842 853 854 q 765 810 781 830 q 624 587 726 751 q 522 404 522 422 l 522 193 q 533 71 522 113 q 570 50 536 61 q 616 38 605 38 q 621 16 621 38 q 618 -5 621 3 q 567 -1 601 -4 q 505 3 533 1 q 449 4 476 4 q 349 0 412 4 q 271 -5 286 -4 q 266 16 266 0 q 270 38 266 38 q 320 49 286 38 q 358 71 354 60 q 369 190 369 110 l 369 391 q 360 417 369 397 q 330 477 351 437 q 292 546 308 517 q 239 640 275 575 q 184 736 202 705 q 114 830 145 810 q 74 847 100 840 q 35 854 47 854 q 31 868 31 854 q 33 887 30 882 q 212 890 65 890 z "},"Z":{"ha":844,"x_min":43,"x_max":808,"o":"m 304 890 l 452 890 q 751 903 562 890 q 760 886 755 902 q 765 859 765 869 q 638 665 764 853 q 388 293 513 477 l 263 107 q 255 87 255 92 q 274 73 255 73 l 534 73 q 753 235 694 73 q 770 241 755 241 q 808 231 798 241 q 742 0 750 47 l 54 0 q 43 35 43 12 q 49 58 43 52 l 559 819 l 298 819 q 217 808 250 818 q 164 774 184 799 q 133 725 144 749 q 109 656 122 701 q 92 650 106 650 q 49 659 57 650 q 91 901 83 829 q 191 893 104 897 q 304 890 277 890 z "},"[":{"ha":373,"x_min":47,"x_max":345,"o":"m 72 1025 q 336 1046 203 1025 q 345 1028 345 1046 q 326 989 345 998 q 263 970 308 979 q 180 960 218 960 q 171 948 171 960 l 171 -68 q 180 -79 171 -79 q 327 -113 248 -79 q 340 -144 340 -118 q 332 -168 340 -168 q 72 -144 178 -144 q 47 -113 47 -144 l 47 993 q 72 1025 47 1025 z "},"\\":{"ha":555,"x_min":28,"x_max":525,"o":"m 525 -8 q 511 -42 525 -31 q 487 -53 498 -53 l 454 -50 l 28 1024 q 58 1032 39 1032 q 132 1002 118 1032 l 519 18 q 525 -8 525 9 z "},"]":{"ha":374,"x_min":30,"x_max":327,"o":"m 301 1025 q 327 993 327 1025 l 327 -113 q 301 -144 327 -144 q 41 -168 195 -144 q 33 -144 33 -168 q 47 -113 33 -118 q 193 -79 126 -79 q 203 -68 203 -79 l 203 948 q 193 960 203 960 q 111 970 155 960 q 49 989 66 979 q 30 1028 30 998 q 38 1046 30 1046 q 301 1025 171 1025 z "},"^":{"ha":526,"x_min":76,"x_max":488,"o":"m 471 640 q 391 692 453 640 q 281 800 328 745 q 175 693 239 746 q 94 640 111 640 q 83 650 88 640 q 77 667 79 659 l 76 677 q 110 711 77 681 q 187 798 142 742 q 262 918 232 853 q 264 926 263 921 q 267 932 266 930 q 269 935 267 933 q 275 936 271 936 q 295 928 288 936 q 308 908 302 921 q 332 864 313 895 q 377 798 351 833 q 418 751 391 780 q 466 702 445 723 q 488 678 487 681 q 483 656 488 671 q 471 640 477 640 z "},"_":{"ha":793,"x_min":83,"x_max":718,"o":"m 83 -45 q 103 18 90 18 l 712 18 q 718 11 718 18 q 704 -50 718 0 q 701 -56 703 -54 q 697 -58 699 -58 l 696 -58 l 92 -58 q 83 -45 83 -58 z "},"`":{"ha":335,"x_min":60,"x_max":292,"o":"m 60 895 q 64 908 60 901 q 83 924 69 916 q 119 932 98 932 q 165 920 153 932 q 220 848 189 892 q 271 770 251 803 q 292 732 292 736 q 285 718 292 726 q 271 711 278 711 q 157 786 254 711 q 60 895 60 861 z "},"a":{"ha":613,"x_min":38,"x_max":589,"o":"m 260 79 q 323 98 297 79 q 350 141 350 117 l 350 279 q 310 266 340 275 q 263 250 279 256 q 225 231 247 243 q 193 201 203 218 q 183 163 183 183 q 205 99 183 119 q 260 79 227 79 m 321 600 q 448 555 406 600 q 490 404 490 511 l 490 137 q 502 96 490 110 q 534 81 514 81 q 581 99 555 81 q 589 84 589 96 q 581 43 589 57 q 526 9 560 27 q 461 -8 492 -8 q 400 15 430 -8 q 361 65 370 38 q 351 56 359 64 q 326 38 342 49 q 291 16 311 27 q 245 -2 271 5 q 191 -9 218 -9 q 81 28 123 -9 q 38 130 38 65 q 54 191 38 163 q 91 238 69 220 q 149 274 113 256 q 212 300 186 292 q 280 321 239 309 q 338 339 321 334 q 350 361 350 345 l 350 435 q 328 510 350 483 q 270 537 307 537 q 206 512 229 537 q 183 441 183 487 q 163 401 183 414 q 117 388 142 388 q 46 420 66 388 q 135 543 46 486 q 321 600 224 600 z "},"b":{"ha":712,"x_min":12,"x_max":670,"o":"m 382 600 q 534 557 467 600 q 635 448 601 514 q 670 312 670 382 q 576 85 670 179 q 358 -9 481 -9 q 259 1 301 -9 q 195 11 217 11 q 160 1 183 11 q 133 -8 137 -8 q 113 0 129 -8 q 98 14 98 8 q 100 38 98 18 q 107 96 103 58 q 111 179 111 134 l 111 732 q 103 825 111 784 q 33 846 96 846 l 20 846 q 12 868 12 846 q 20 890 12 890 q 100 901 62 894 q 163 914 138 907 q 207 928 189 921 q 235 938 225 935 q 245 941 245 941 l 248 941 q 259 934 254 941 q 266 920 264 926 q 251 792 251 867 l 251 575 l 251 574 q 251 568 251 570 q 252 562 251 566 q 254 557 252 557 q 259 559 256 557 q 314 586 278 572 q 382 600 350 600 m 353 526 q 279 500 308 526 q 251 439 251 475 l 251 152 q 287 80 251 104 q 372 56 323 56 q 478 119 442 56 q 514 274 514 183 q 472 458 514 391 q 353 526 430 526 z "},"c":{"ha":590,"x_min":34,"x_max":545,"o":"m 328 600 q 456 576 400 600 q 537 524 513 552 q 522 447 537 477 q 475 416 506 416 q 433 430 449 416 q 401 475 418 444 q 311 537 370 537 q 218 478 252 537 q 183 330 183 419 q 233 149 183 208 q 361 90 283 90 q 400 92 381 90 q 435 98 419 94 q 464 107 452 103 q 489 119 476 111 q 507 131 502 127 q 524 142 513 134 q 534 149 534 149 q 541 141 537 148 q 545 127 545 134 q 537 102 545 113 q 457 28 517 65 q 324 -8 397 -8 q 119 80 203 -8 q 34 296 34 168 q 115 509 34 419 q 328 600 197 600 z "},"d":{"ha":705,"x_min":28,"x_max":680,"o":"m 330 537 q 221 476 258 537 q 184 312 184 415 q 227 132 184 197 q 345 68 269 68 q 419 92 391 68 q 448 152 448 115 l 448 437 q 443 465 448 450 q 427 497 438 480 q 390 526 415 514 q 330 537 365 537 m 342 602 q 441 583 400 602 q 448 605 448 583 l 448 732 q 439 825 448 784 q 369 846 433 846 l 358 846 q 350 868 350 846 q 358 890 350 890 q 437 901 399 894 q 501 914 476 907 q 545 928 526 921 q 572 938 563 935 q 583 941 582 941 l 586 941 q 597 934 591 941 q 602 920 602 926 q 589 792 589 867 l 589 195 q 597 95 589 133 q 610 80 598 85 q 636 73 623 75 q 662 71 650 72 q 675 71 674 71 q 678 54 678 68 q 670 27 678 27 q 622 22 651 26 q 565 13 593 18 q 512 3 537 8 q 471 -5 487 -1 q 456 -8 456 -8 q 448 15 448 -8 l 448 38 q 446 43 448 42 q 442 43 444 45 q 301 -7 377 -7 q 110 74 191 -7 q 28 277 28 155 q 121 507 28 411 q 342 602 214 602 z "},"e":{"ha":591,"x_min":34,"x_max":566,"o":"m 305 537 q 247 518 273 537 q 208 472 221 499 q 188 421 194 445 q 182 381 182 397 q 190 372 182 372 l 410 372 q 422 392 422 372 q 390 488 422 439 q 305 537 358 537 m 315 600 q 429 574 378 600 q 507 511 479 549 q 551 431 536 472 q 566 351 566 389 q 555 314 566 321 q 514 307 545 307 l 190 307 q 180 298 180 307 q 198 203 180 250 q 258 123 216 157 q 361 90 301 90 q 400 92 381 90 q 435 98 419 94 q 464 107 452 103 q 489 119 476 111 q 507 131 502 127 q 524 142 513 134 q 534 149 534 149 q 541 141 537 148 q 545 127 545 134 q 537 102 545 113 q 457 28 517 65 q 323 -8 397 -8 q 119 79 205 -8 q 34 292 34 167 q 113 514 34 429 q 315 600 193 600 z "},"f":{"ha":473,"x_min":38,"x_max":567,"o":"m 423 943 q 517 928 480 943 q 567 894 555 914 q 559 819 572 852 q 510 785 547 785 q 469 808 487 785 q 430 852 450 830 q 382 875 410 875 q 321 840 346 875 q 287 754 297 804 q 277 644 277 704 l 277 582 q 279 578 277 581 q 285 575 282 575 l 434 575 q 441 574 439 575 q 442 566 442 572 q 426 503 442 536 l 285 503 q 277 495 277 503 l 277 193 q 288 71 277 113 q 323 51 290 61 q 369 41 357 41 q 374 21 373 41 q 372 -5 374 1 q 301 0 363 -4 q 206 4 239 4 q 114 0 174 4 q 43 -5 54 -4 q 38 9 39 -1 q 38 31 37 20 q 43 41 39 41 q 91 51 58 41 q 126 71 123 61 q 138 182 138 118 l 138 494 q 130 503 138 503 l 49 503 q 46 511 46 503 q 65 551 46 526 q 109 575 84 575 l 130 575 q 138 583 138 575 l 138 597 q 223 841 138 739 q 423 943 308 943 z "},"g":{"ha":647,"x_min":33,"x_max":610,"o":"m 483 -113 q 414 -50 483 -65 q 231 -34 346 -34 q 224 -35 228 -34 q 217 -39 221 -37 q 190 -51 199 -46 q 168 -66 180 -56 q 150 -90 156 -76 q 144 -122 144 -103 q 195 -203 144 -171 q 311 -236 247 -236 q 435 -201 387 -236 q 483 -113 483 -165 m 193 400 q 220 288 193 334 q 296 243 247 243 q 370 281 346 243 q 393 377 393 320 q 366 494 393 449 q 288 538 339 538 q 216 496 239 538 q 193 400 193 454 m 296 597 q 408 579 345 597 q 517 562 472 562 l 594 562 q 604 544 597 562 q 610 517 610 526 q 602 498 610 498 l 514 498 q 509 494 509 498 q 521 458 509 492 q 533 393 533 425 q 466 249 533 313 q 298 184 399 184 q 214 190 250 184 q 184 165 198 183 q 171 132 171 146 q 184 109 171 118 q 224 95 197 99 q 270 90 251 91 q 324 87 289 88 q 345 87 339 87 q 543 50 480 83 q 606 -50 606 16 q 509 -227 608 -152 q 279 -301 410 -301 q 106 -263 180 -302 q 33 -152 33 -224 q 71 -76 33 -113 q 155 -24 110 -39 q 90 17 119 -14 q 60 88 60 47 q 160 209 60 146 q 87 279 121 227 q 53 389 53 331 q 123 541 53 486 q 296 597 194 597 z "},"h":{"ha":784,"x_min":37,"x_max":753,"o":"m 480 600 q 654 332 654 600 l 654 193 q 665 71 654 110 q 701 51 666 61 q 747 41 735 41 q 752 21 751 41 q 751 -5 753 1 q 679 0 742 -4 q 586 4 616 4 q 494 0 552 4 q 423 -5 437 -4 q 419 20 419 0 q 423 41 419 41 q 470 51 439 41 q 505 71 500 61 q 513 170 513 111 l 513 302 q 482 458 513 415 q 385 500 452 500 q 311 477 345 500 q 277 426 277 454 l 277 193 q 288 71 277 110 q 323 51 290 61 q 369 41 357 41 q 374 21 373 41 q 372 -5 374 1 q 300 0 361 -4 q 209 4 240 4 q 115 0 176 4 q 42 -5 53 -4 q 37 20 37 0 q 42 41 37 41 q 92 51 58 41 q 127 71 125 61 q 137 168 137 111 l 137 732 q 130 825 137 787 q 60 846 123 846 l 47 846 q 39 868 39 846 q 47 890 39 890 q 127 901 90 894 q 191 914 165 907 q 234 928 216 921 q 262 938 252 935 q 273 941 273 941 l 275 941 q 286 934 281 941 q 293 920 292 926 q 277 792 277 867 l 277 518 q 282 510 277 510 q 288 514 283 510 q 371 573 316 547 q 480 600 426 600 z "},"i":{"ha":407,"x_min":37,"x_max":378,"o":"m 137 760 q 125 773 137 760 q 113 820 113 785 q 137 879 113 854 q 197 903 161 903 q 256 879 232 903 q 281 820 281 854 q 256 760 281 785 q 197 735 232 735 q 137 760 161 735 m 278 193 q 289 71 278 110 q 326 51 292 61 q 372 41 359 41 q 378 21 377 41 q 376 -5 378 1 q 303 0 366 -4 q 210 4 240 4 q 115 0 176 4 q 43 -5 53 -4 q 38 20 38 0 q 43 41 38 41 q 92 51 58 41 q 129 71 126 61 q 138 170 138 111 l 138 391 q 117 477 138 454 q 85 498 104 491 q 53 506 66 505 q 39 510 39 507 q 47 551 39 549 q 157 567 85 553 q 264 591 229 581 q 271 593 266 591 q 275 594 275 594 q 286 585 282 594 q 289 570 290 575 q 278 453 278 483 l 278 193 z "},"j":{"ha":380,"x_min":3,"x_max":300,"o":"m 146 391 q 125 477 146 454 q 95 498 114 491 q 62 506 76 505 q 49 510 49 507 q 57 551 49 549 q 167 567 95 553 q 274 591 239 581 q 280 593 275 591 q 285 594 285 594 q 296 585 292 594 q 298 570 300 575 q 288 453 288 477 l 288 127 q 228 -151 288 -58 q 128 -249 195 -202 q 23 -304 61 -296 q 3 -278 5 -294 q 3 -272 3 -277 q 4 -266 3 -267 q 13 -262 4 -266 q 34 -248 22 -258 q 62 -222 46 -237 q 92 -178 77 -206 q 119 -114 107 -151 q 139 -22 132 -77 q 146 98 146 33 l 146 391 m 142 760 q 130 773 142 760 q 118 820 118 785 q 142 879 118 854 q 202 903 167 903 q 262 879 237 903 q 286 820 286 854 q 262 760 286 785 q 202 735 237 735 q 142 760 167 735 z "},"k":{"ha":808,"x_min":37,"x_max":766,"o":"m 604 509 q 517 448 576 492 q 410 353 458 403 q 509 243 449 311 q 608 132 568 175 q 662 76 647 88 q 714 49 682 60 q 760 38 746 38 q 765 15 765 38 q 764 -4 765 0 q 605 3 614 3 q 553 1 579 3 q 494 -2 526 0 q 444 -5 463 -4 q 438 19 438 0 q 444 38 438 38 q 475 44 457 38 q 492 57 492 50 q 491 60 492 60 l 293 281 l 277 277 l 277 193 q 288 71 278 104 q 324 51 290 61 q 372 41 358 41 q 376 21 376 41 q 374 -5 377 1 q 302 0 365 -4 q 209 4 240 4 q 115 0 176 4 q 42 -5 53 -4 q 37 20 37 0 q 42 41 37 41 q 92 51 58 41 q 127 71 125 61 q 137 170 137 111 l 137 732 q 130 825 137 787 q 60 846 123 846 l 47 846 q 39 868 39 846 q 47 890 39 890 q 127 901 90 894 q 191 914 165 907 q 234 928 216 921 q 262 938 252 935 q 273 941 273 941 l 275 941 q 286 934 281 941 q 293 920 292 926 q 277 792 277 867 l 277 339 q 317 354 309 347 q 379 408 346 380 q 427 448 412 435 q 457 474 442 460 q 477 496 472 488 q 481 513 481 505 q 451 531 481 528 q 420 536 420 534 q 416 559 416 545 q 422 575 416 574 q 553 575 525 575 q 697 581 590 575 q 704 566 703 576 q 703 545 705 555 q 697 536 701 536 q 604 509 648 536 z "},"l":{"ha":400,"x_min":34,"x_max":362,"o":"m 273 195 q 282 73 273 111 q 315 52 285 64 q 357 41 346 41 q 361 22 361 41 q 359 -4 362 3 q 309 -1 340 -3 q 251 3 277 1 q 202 4 225 4 q 151 3 176 4 q 94 -1 125 1 q 42 -4 62 -3 q 37 21 37 1 q 42 41 37 41 q 87 52 57 41 q 121 73 118 64 q 132 174 132 121 l 132 738 q 123 830 132 789 q 56 852 117 852 l 42 852 q 34 868 34 852 q 42 890 34 890 q 122 901 84 894 q 185 914 160 907 q 229 927 210 921 q 258 937 247 933 l 267 941 l 270 941 q 281 933 275 941 q 289 920 288 925 q 273 792 273 868 l 273 195 z "},"m":{"ha":1145,"x_min":38,"x_max":1122,"o":"m 480 600 q 568 573 532 600 q 623 505 605 547 q 722 572 662 545 q 849 600 781 600 q 932 578 898 600 q 987 517 967 556 q 1015 433 1006 479 q 1024 335 1024 388 l 1024 193 q 1034 71 1024 110 q 1070 51 1036 61 q 1116 41 1104 41 q 1121 21 1120 41 q 1119 -5 1122 1 q 1048 0 1109 -4 q 955 4 986 4 q 862 0 922 4 q 789 -5 802 -4 q 785 20 785 0 q 789 41 785 41 q 838 51 806 41 q 873 71 871 61 q 883 165 883 111 l 883 304 q 757 500 883 500 q 682 479 712 500 q 647 437 652 457 q 646 426 647 433 q 647 415 646 419 q 651 331 651 385 l 651 187 q 661 71 651 110 q 697 51 663 61 q 743 41 731 41 q 748 21 747 41 q 746 -5 749 1 q 675 0 736 -4 q 582 4 613 4 q 489 0 549 4 q 416 -5 429 -4 q 412 20 412 0 q 416 41 412 41 q 465 51 433 41 q 500 71 498 61 q 510 170 510 111 l 510 300 q 479 453 510 406 q 387 500 448 500 q 312 477 346 500 q 278 426 278 454 l 278 193 q 289 71 278 110 q 324 51 292 61 q 369 41 357 41 q 375 21 374 41 q 373 -5 376 1 q 302 0 362 -4 q 210 4 241 4 q 115 0 176 4 q 43 -5 54 -4 q 38 20 38 0 q 43 41 38 41 q 92 51 58 41 q 129 71 126 61 q 138 170 138 111 l 138 391 q 117 477 138 454 q 86 498 106 491 q 53 506 66 505 q 39 510 39 507 q 47 551 39 549 q 264 591 110 556 q 269 593 266 593 q 273 594 271 594 q 275 594 275 594 q 286 585 282 594 q 289 570 290 575 q 283 521 283 532 q 286 514 283 515 q 293 518 288 514 q 376 575 326 551 q 480 600 427 600 z "},"n":{"ha":792,"x_min":38,"x_max":754,"o":"m 480 600 q 655 321 655 600 l 655 193 q 665 71 655 110 q 702 51 667 61 q 749 41 736 41 q 753 21 753 41 q 751 -5 754 1 q 680 0 743 -4 q 586 4 617 4 q 496 0 553 4 q 426 -5 438 -4 q 420 20 420 0 q 426 41 420 41 q 471 51 441 41 q 505 71 502 61 q 515 170 515 111 l 515 298 q 485 456 515 411 q 388 500 454 500 q 312 477 345 500 q 279 426 279 453 l 279 193 q 289 71 279 110 q 325 51 292 61 q 369 41 358 41 q 375 21 374 41 q 373 -5 376 1 q 302 0 362 -4 q 210 4 241 4 q 116 0 178 4 q 43 -5 54 -4 q 38 20 38 0 q 43 41 38 41 q 93 51 60 41 q 129 71 126 61 q 138 170 138 111 l 138 391 q 117 477 138 454 q 86 498 106 491 q 54 506 66 505 q 41 510 41 507 q 47 551 41 549 q 266 591 110 556 q 269 593 267 593 q 273 594 271 594 q 277 594 275 594 q 286 585 282 594 q 290 570 290 575 q 285 521 285 532 q 286 514 285 515 q 293 518 288 514 q 376 575 326 551 q 480 600 427 600 z "},"o":{"ha":688,"x_min":37,"x_max":651,"o":"m 326 536 q 227 474 262 536 q 191 327 191 412 q 235 136 191 217 q 358 54 279 54 q 458 117 422 54 q 494 263 494 179 q 476 394 494 334 q 419 495 458 454 q 326 536 380 536 m 343 600 q 561 511 471 600 q 651 296 651 422 q 562 80 651 170 q 345 -9 473 -9 q 126 80 216 -9 q 37 296 37 170 q 125 511 37 423 q 343 600 214 600 z "},"p":{"ha":732,"x_min":33,"x_max":694,"o":"m 407 598 q 562 553 494 598 q 662 445 629 509 q 694 312 694 381 q 600 81 694 172 q 376 -11 506 -11 q 279 8 336 -11 q 274 -11 274 8 l 274 -103 q 285 -225 274 -187 q 321 -246 286 -236 q 368 -256 355 -256 q 372 -276 372 -256 q 372 -301 373 -296 q 299 -297 362 -301 q 206 -293 236 -293 q 111 -297 172 -293 q 38 -301 49 -301 q 34 -276 34 -296 q 38 -256 34 -256 q 87 -246 54 -256 q 125 -225 121 -236 q 133 -127 133 -186 l 133 391 q 111 479 133 456 q 81 498 100 492 q 49 506 62 505 q 35 510 35 507 q 43 551 35 549 q 245 589 156 562 q 258 592 245 589 q 271 595 270 595 q 277 567 277 595 q 274 551 277 562 q 334 583 296 567 q 407 598 373 598 m 374 526 q 302 500 330 526 q 274 431 274 475 l 274 152 q 311 81 274 107 q 389 54 347 54 q 494 111 452 54 q 537 271 537 168 q 494 454 537 381 q 374 526 450 526 z "},"q":{"ha":661,"x_min":42,"x_max":701,"o":"m 358 602 q 457 592 412 602 q 521 582 502 582 q 555 591 533 582 q 581 600 578 600 q 602 591 586 600 q 618 578 618 583 q 614 555 618 576 q 606 494 610 534 q 602 407 602 453 l 602 -113 q 612 -227 602 -187 q 648 -247 614 -236 q 694 -258 682 -258 q 701 -277 700 -258 q 699 -301 701 -296 q 627 -297 689 -301 q 533 -293 564 -293 q 439 -297 500 -293 q 366 -301 377 -301 q 361 -277 361 -297 q 366 -258 361 -258 q 416 -247 382 -258 q 452 -227 449 -236 q 461 -127 461 -186 l 461 16 q 461 23 461 20 q 460 29 461 26 q 457 33 458 33 q 453 33 456 33 q 326 -8 385 -8 q 126 77 210 -8 q 42 282 42 163 q 136 507 42 411 q 358 602 229 602 m 342 537 q 271 516 301 537 q 227 461 241 495 q 205 392 212 427 q 198 319 198 357 q 241 138 198 208 q 363 68 283 68 q 430 89 399 68 q 461 149 461 110 l 461 434 q 433 506 461 475 q 342 537 404 537 z "},"r":{"ha":583,"x_min":38,"x_max":547,"o":"m 434 600 q 545 555 509 600 q 480 439 545 439 q 427 467 456 439 q 369 494 399 494 q 303 451 327 494 q 279 362 279 408 l 279 193 q 289 71 279 110 q 325 51 292 61 q 370 41 358 41 q 375 21 374 41 q 374 -5 376 1 q 302 0 363 -4 q 210 4 241 4 q 116 0 178 4 q 43 -5 54 -4 q 38 20 38 0 q 43 41 38 41 q 93 51 60 41 q 129 71 126 61 q 138 170 138 111 l 138 391 q 117 477 138 454 q 86 498 106 491 q 54 506 66 505 q 41 510 41 507 q 47 551 41 549 q 266 591 110 556 q 271 593 266 591 q 277 594 275 594 q 286 585 282 594 q 290 569 290 575 q 288 550 289 563 q 284 523 286 537 q 282 505 282 509 q 349 570 307 541 q 434 600 391 600 z "},"s":{"ha":496,"x_min":38,"x_max":458,"o":"m 258 601 q 415 578 334 601 q 430 426 429 517 q 412 415 430 415 q 380 426 382 415 q 340 507 370 473 q 258 540 309 540 q 196 522 218 540 q 174 472 174 505 q 181 437 174 453 q 205 408 189 422 q 235 387 222 395 q 274 365 248 378 q 288 358 283 359 q 308 347 290 357 q 330 335 326 338 q 352 322 335 332 q 376 307 369 312 q 397 290 382 301 q 417 271 411 279 q 433 250 423 263 q 448 226 444 237 q 455 200 452 214 q 458 171 458 186 q 393 36 458 85 q 233 -14 327 -14 q 58 24 149 -14 q 45 100 52 47 q 38 178 38 152 q 57 184 46 184 q 90 174 88 184 q 143 82 100 117 q 236 47 186 47 q 298 66 274 47 q 323 122 323 85 q 319 147 323 136 q 307 170 316 159 q 291 189 297 182 q 267 208 285 197 q 239 223 248 218 q 205 241 231 228 q 171 259 180 254 q 75 332 109 292 q 41 429 41 372 q 106 556 41 511 q 258 601 171 601 z "},"t":{"ha":475,"x_min":23,"x_max":441,"o":"m 115 505 l 33 505 q 23 540 23 505 q 24 552 23 549 q 129 624 79 576 q 168 664 146 642 q 203 704 189 686 q 217 722 217 722 q 243 718 231 722 q 255 711 255 715 l 255 578 q 353 577 290 578 q 420 576 416 576 q 431 564 431 576 q 418 505 431 532 l 255 505 l 255 178 q 278 95 255 123 q 342 66 301 66 q 370 70 355 66 q 395 77 385 73 q 412 85 404 81 q 422 90 420 90 q 434 77 427 91 q 439 60 441 64 q 382 16 431 41 q 285 -9 332 -9 q 165 36 214 -9 q 115 176 115 81 l 115 505 z "},"u":{"ha":753,"x_min":23,"x_max":719,"o":"m 629 453 l 629 184 q 640 90 629 119 q 656 79 644 83 q 680 73 667 75 q 702 72 692 72 q 713 71 712 72 q 719 58 719 69 q 716 40 719 53 q 708 27 713 27 q 660 22 689 27 q 604 13 631 18 q 552 3 576 8 q 513 -5 528 -3 q 498 -8 498 -8 q 488 14 488 -8 l 488 73 q 484 80 487 80 q 401 19 453 46 q 294 -8 350 -8 q 214 15 248 -8 q 159 75 179 38 q 131 153 140 111 q 122 239 122 195 l 122 391 q 100 477 122 454 q 69 498 88 491 q 37 506 50 505 q 23 510 23 507 q 30 551 23 549 q 141 567 69 553 q 248 591 213 581 q 254 593 250 591 q 259 594 258 594 q 269 585 266 594 q 273 570 273 575 q 260 450 260 477 l 260 288 q 290 136 260 182 q 387 90 320 90 q 460 116 430 90 q 490 167 490 142 l 490 391 q 468 477 490 454 q 437 498 457 491 q 404 506 418 505 q 391 510 391 507 q 399 551 391 549 q 509 567 437 553 q 616 591 581 581 q 622 593 617 591 q 627 594 627 594 q 637 585 633 594 q 640 570 642 575 q 629 453 629 477 z "},"v":{"ha":760,"x_min":19,"x_max":735,"o":"m 537 514 q 442 551 519 551 q 438 570 438 551 q 442 594 438 589 q 508 590 461 594 q 585 586 555 586 q 665 590 616 586 q 731 594 713 594 q 735 572 735 589 q 727 551 735 551 q 674 538 708 551 q 628 499 640 525 l 401 20 q 384 -3 396 9 q 361 -15 372 -15 q 345 -7 347 -15 q 271 162 317 54 q 190 345 224 270 q 113 513 156 419 q 24 551 96 551 q 19 572 19 551 q 24 594 19 589 q 96 590 37 594 q 189 586 156 586 q 282 590 221 586 q 353 594 343 594 q 356 570 357 589 q 350 551 355 551 q 302 543 332 551 q 271 521 271 534 q 274 507 271 511 l 408 195 l 530 464 q 537 514 547 499 z "},"w":{"ha":1105,"x_min":19,"x_max":1081,"o":"m 887 496 q 876 524 887 513 q 848 541 865 536 q 817 547 831 545 q 789 549 803 549 l 784 549 q 778 570 779 549 q 781 594 777 590 q 853 590 799 594 q 940 586 907 586 q 1013 590 968 586 q 1077 594 1057 594 q 1080 571 1080 585 q 1074 551 1080 551 q 1021 534 1058 551 q 974 492 983 517 l 773 14 q 755 -6 768 3 q 728 -15 742 -15 q 711 -5 715 -15 l 545 369 l 400 15 q 385 -4 396 7 q 355 -15 373 -15 q 336 -5 342 -15 q 262 166 305 65 q 184 345 220 267 q 103 513 149 422 q 68 540 94 530 q 24 549 42 549 q 19 571 19 549 q 24 594 19 590 q 93 590 38 594 q 179 586 148 586 q 271 590 210 586 q 342 594 332 594 q 345 570 345 587 q 340 551 345 552 q 294 541 323 551 q 264 513 264 532 q 400 201 264 510 q 435 287 415 239 q 465 360 454 335 q 485 411 475 385 q 499 450 495 437 q 503 467 503 463 q 486 521 503 494 q 456 543 476 534 q 407 551 441 551 q 401 570 401 551 q 407 594 401 590 q 474 590 422 594 q 559 586 526 586 q 647 590 589 586 q 716 594 705 594 q 718 569 719 589 q 713 549 718 549 q 644 502 644 549 q 772 201 644 476 q 825 334 793 258 q 872 448 857 411 q 887 496 887 486 z "},"x":{"ha":768,"x_min":39,"x_max":723,"o":"m 43 572 q 49 594 43 586 q 209 586 198 586 q 372 594 220 586 q 374 575 374 589 q 369 551 374 551 q 331 543 350 551 q 312 522 312 536 q 319 506 312 515 l 404 385 q 441 435 414 399 q 481 492 468 472 q 494 524 494 513 q 482 539 494 533 q 458 547 471 545 q 431 549 445 548 q 415 551 416 549 q 410 572 410 551 q 415 594 410 589 q 572 586 563 586 q 713 594 582 586 q 716 572 716 585 q 713 551 716 551 q 594 507 621 540 l 450 339 q 448 328 448 334 q 453 315 448 320 l 606 104 q 719 38 647 47 q 723 15 723 38 q 718 -5 723 3 q 668 -1 697 -4 q 615 3 639 1 q 564 4 591 4 q 509 3 534 4 q 451 -1 483 1 q 396 -5 419 -4 q 393 12 393 8 q 397 41 393 41 q 437 50 416 41 q 457 73 457 60 q 454 81 457 76 l 357 217 l 271 98 q 262 73 262 85 q 267 60 262 65 q 282 51 271 54 q 300 46 293 47 q 323 43 308 45 q 342 41 339 41 q 346 18 346 41 q 340 -5 346 0 q 292 -1 320 -4 q 241 3 264 1 q 193 4 218 4 q 144 3 167 4 q 92 -1 121 1 q 43 -5 64 -4 q 41 18 41 5 q 46 41 41 41 q 164 92 134 54 l 309 269 q 312 279 312 274 q 308 289 312 283 l 152 500 q 104 535 137 521 q 49 549 72 549 q 43 572 43 549 z "},"y":{"ha":711,"x_min":8,"x_max":694,"o":"m 182 586 q 267 590 212 586 q 336 594 323 594 q 339 570 339 585 q 334 551 339 551 q 291 541 320 551 q 260 518 262 530 l 260 510 q 387 201 263 488 q 439 334 397 225 q 488 460 481 444 q 496 502 496 483 q 475 535 496 519 q 410 551 453 551 q 404 571 404 551 q 410 594 404 589 q 476 590 426 594 q 559 586 526 586 q 629 590 587 586 q 689 594 670 594 q 694 572 694 586 q 689 551 694 551 q 634 537 670 551 q 587 496 598 524 l 339 -103 q 137 -301 255 -301 q 83 -282 102 -301 q 64 -239 64 -263 q 90 -186 64 -203 q 275 -75 231 -186 q 312 18 308 7 l 114 479 q 98 510 103 503 q 58 541 84 530 q 14 551 31 551 q 8 570 8 551 q 12 594 8 591 q 85 590 20 594 q 182 586 149 586 z "},"z":{"ha":585,"x_min":35,"x_max":549,"o":"m 214 73 q 221 66 214 69 q 231 64 228 64 l 362 64 q 498 170 463 64 q 522 183 502 183 q 548 172 541 183 l 524 0 l 62 0 q 35 31 35 16 q 37 37 35 35 l 350 510 l 206 513 q 180 509 193 513 q 159 501 168 506 q 140 488 149 496 q 127 473 132 480 q 116 456 122 467 q 107 441 110 446 q 100 426 104 435 q 96 415 96 416 q 62 407 92 407 q 47 410 47 407 q 57 479 47 416 q 69 583 66 543 q 198 575 149 575 l 363 575 q 534 586 445 575 q 537 553 537 579 l 225 92 q 214 73 214 79 z "},"{":{"ha":393,"x_min":30,"x_max":363,"o":"m 35 396 q 30 420 30 407 q 35 445 30 435 q 95 463 73 454 q 136 494 117 472 q 155 551 155 517 q 132 660 155 585 q 109 779 109 735 q 186 952 109 887 q 358 1017 263 1017 q 363 1004 363 1017 q 353 975 363 977 q 271 932 313 972 q 228 831 228 891 q 251 711 228 784 q 274 581 274 639 q 237 467 274 517 q 163 418 201 418 q 238 370 202 418 q 274 260 274 323 q 251 137 274 202 q 228 24 228 72 q 271 -80 228 -35 q 353 -127 315 -125 q 363 -157 363 -129 q 358 -170 363 -170 q 189 -98 267 -170 q 111 76 111 -26 q 133 190 111 117 q 155 297 155 263 q 152 324 155 312 q 140 345 149 336 q 126 360 132 354 q 106 372 121 366 q 85 381 91 378 q 59 389 79 384 q 35 396 39 395 z "},"|":{"ha":197,"x_min":47,"x_max":151,"o":"m 151 -144 q 107 -157 151 -149 q 56 -165 64 -165 q 47 -156 47 -165 l 47 1027 q 54 1038 46 1035 q 138 1047 87 1047 q 146 1045 144 1047 q 149 1042 149 1043 l 149 1039 l 151 -144 z "},"}":{"ha":392,"x_min":28,"x_max":362,"o":"m 358 396 q 334 389 354 395 q 309 381 315 384 q 288 372 302 378 q 267 360 273 366 q 253 345 262 354 q 241 324 244 336 q 239 297 239 312 q 260 190 239 263 q 282 76 282 117 q 203 -98 282 -26 q 34 -170 125 -170 q 28 -157 28 -170 q 41 -127 28 -130 q 121 -80 79 -125 q 164 24 164 -35 q 141 137 164 72 q 118 260 118 202 q 155 370 118 323 q 231 418 191 418 q 156 467 193 418 q 119 581 119 517 q 142 711 119 639 q 164 831 164 784 q 121 932 164 891 q 41 975 79 972 q 28 1004 28 977 q 34 1017 28 1017 q 207 952 129 1017 q 285 779 285 887 q 262 660 285 735 q 239 551 239 585 q 269 480 239 502 q 357 445 300 458 q 362 420 362 435 q 358 396 362 404 z "},"~":{"ha":705,"x_min":38,"x_max":669,"o":"m 50 347 q 38 377 38 353 q 71 431 38 410 q 214 483 142 483 q 374 448 278 483 q 534 412 471 412 q 553 414 544 412 q 570 417 563 415 q 586 424 576 419 q 600 431 595 429 q 615 440 605 433 q 628 450 625 448 q 642 460 631 452 q 656 472 654 469 q 669 442 669 467 q 637 388 669 411 q 495 336 570 336 q 335 372 431 336 q 174 407 239 407 q 125 396 149 407 q 90 378 100 385 q 50 347 80 372 z "},"":{"ha":283,"x_min":0,"x_max":0,"o":""},"":{"ha":243,"x_min":34,"x_max":210,"o":"m 123 -313 q 68 -288 90 -313 q 47 -225 47 -263 q 56 -119 47 -202 q 77 92 64 -35 q 96 309 90 218 q 121 347 100 340 q 140 338 132 349 q 152 312 149 328 q 174 73 161 202 q 193 -129 186 -56 q 199 -225 199 -202 q 178 -288 199 -263 q 123 -313 156 -313 m 60 438 q 47 451 60 438 q 34 502 34 464 q 61 567 34 540 q 123 594 88 594 q 185 566 160 594 q 210 502 210 538 q 184 439 210 465 q 121 412 159 412 q 60 438 85 412 z "},"":{"ha":628,"x_min":58,"x_max":570,"o":"m 376 643 q 426 632 426 643 l 313 -61 q 263 -49 263 -61 l 376 643 m 353 598 q 484 574 426 598 q 562 521 543 551 q 499 416 562 416 q 465 430 479 416 q 434 472 450 444 q 392 521 414 505 q 334 537 370 537 q 241 479 275 537 q 206 331 206 422 q 256 145 206 206 q 387 84 307 84 q 439 90 414 84 q 485 104 465 95 q 517 121 505 114 q 543 139 530 129 q 559 149 556 149 q 566 142 562 149 q 570 127 570 134 q 562 102 570 111 q 478 27 537 65 q 346 -11 419 -11 q 140 75 222 -11 q 58 296 58 160 q 142 508 58 418 q 353 598 227 598 z "},"":{"ha":654,"x_min":62,"x_max":623,"o":"m 73 444 l 442 444 q 450 430 450 444 q 445 406 450 420 q 429 385 439 392 l 72 385 q 65 404 65 385 q 73 444 65 431 m 388 865 q 471 851 433 865 q 524 812 509 837 q 520 771 524 791 q 504 733 517 751 q 469 715 491 715 q 433 728 449 715 q 407 758 416 742 q 381 789 397 774 q 345 803 365 803 q 267 757 289 803 q 244 629 244 711 q 258 492 244 598 q 271 351 271 387 q 212 127 271 217 q 296 138 241 138 q 405 118 335 138 q 495 98 475 98 q 524 102 511 98 q 549 120 537 107 q 566 141 560 133 q 583 168 572 149 q 597 193 594 187 q 613 184 605 193 q 621 165 621 175 q 620 151 621 156 q 593 85 609 117 q 541 21 578 53 q 461 -11 505 -11 q 326 14 414 -11 q 208 38 239 38 q 183 35 195 38 q 162 28 171 31 q 142 19 153 26 q 125 9 130 12 q 109 -3 121 5 q 98 -11 98 -11 q 72 1 81 -9 q 62 20 62 12 q 98 71 73 38 q 130 111 123 103 q 149 317 149 155 q 136 444 149 340 q 122 585 122 547 q 198 787 122 709 q 388 865 274 865 z "},"":{"ha":635,"x_min":31,"x_max":604,"o":"m 330 214 q 414 267 384 214 q 444 388 444 319 q 407 551 444 481 q 304 621 370 621 q 221 568 251 621 q 191 442 191 514 q 228 282 191 350 q 330 214 264 214 m 471 621 l 545 692 q 563 688 551 697 q 587 662 575 680 q 604 629 600 644 l 529 560 q 574 418 574 494 q 522 263 574 332 l 590 193 q 587 175 595 187 q 560 151 578 163 q 528 134 543 138 l 460 206 q 317 163 395 163 q 160 214 229 163 l 88 148 q 71 151 83 142 q 47 177 58 160 q 31 210 35 194 l 102 277 q 61 418 61 338 q 114 575 61 505 l 45 648 q 48 666 39 654 q 74 690 57 678 q 107 705 91 701 l 176 632 q 317 674 239 674 q 471 621 400 674 z "},"":{"ha":913,"x_min":30,"x_max":873,"o":"m 209 863 q 391 871 231 863 q 393 846 393 865 q 388 827 393 827 q 340 819 368 827 q 313 792 313 810 q 326 757 313 779 l 467 496 q 480 499 475 490 q 591 676 538 586 q 644 792 644 766 q 620 817 644 806 q 556 827 595 827 q 550 846 551 827 q 555 871 549 865 q 700 863 689 863 q 869 871 731 863 q 873 849 873 860 q 868 827 873 827 q 806 816 846 827 q 751 784 766 804 q 612 564 712 726 q 513 384 513 401 l 513 347 l 621 347 q 629 331 629 347 q 621 292 629 305 l 513 292 l 513 240 l 621 240 q 629 222 629 240 q 621 184 629 197 l 513 184 q 524 71 513 109 q 559 50 525 61 q 605 38 593 38 q 610 18 610 38 q 608 -5 610 3 q 539 0 604 -4 q 439 4 475 4 q 341 0 404 4 q 264 -5 278 -4 q 259 15 259 0 q 263 38 259 38 q 313 49 279 38 q 350 71 346 60 q 361 184 361 109 l 251 184 q 244 201 244 184 q 252 240 244 224 l 361 240 l 361 292 l 251 292 q 244 309 244 292 q 252 347 244 331 l 361 347 q 361 380 361 377 q 350 405 359 385 q 319 463 340 425 q 280 532 297 502 q 229 623 263 563 q 179 711 195 684 q 114 803 145 774 q 35 827 84 827 q 31 841 31 827 q 33 860 30 854 q 209 863 65 863 z "},"":{"ha":194,"x_min":46,"x_max":149,"o":"m 149 562 q 106 548 149 556 q 54 540 62 540 q 46 549 46 540 l 46 1027 q 53 1038 45 1035 q 137 1047 85 1047 q 145 1045 142 1047 q 148 1042 148 1043 l 148 1039 l 149 562 m 149 -144 q 106 -157 149 -149 q 54 -165 62 -165 q 46 -156 46 -165 l 46 321 q 53 332 45 330 q 137 342 85 342 q 145 340 142 342 q 148 336 148 338 l 148 334 l 149 -144 z "},"":{"ha":534,"x_min":34,"x_max":499,"o":"m 499 374 q 471 264 499 312 q 414 195 444 217 q 431 122 431 156 q 395 13 431 56 q 317 -43 359 -30 q 229 -56 275 -56 q 149 -41 183 -56 q 103 -8 115 -26 q 102 3 103 -5 q 102 14 102 11 q 145 79 102 79 q 203 45 167 79 q 273 11 240 11 q 333 30 309 11 q 357 81 357 49 q 323 160 357 127 q 243 216 290 193 q 148 266 195 239 q 67 342 100 293 q 34 458 34 391 q 117 632 34 572 q 100 703 100 661 q 159 836 100 789 q 302 883 217 883 q 382 867 349 883 q 427 833 415 852 q 429 822 427 830 q 430 811 430 814 q 384 746 430 746 q 330 781 366 746 q 260 817 293 817 q 201 800 227 817 q 175 743 175 783 q 208 668 175 700 q 289 613 241 636 q 385 564 336 590 q 466 490 433 538 q 499 374 499 442 m 392 243 q 422 305 422 273 q 387 393 422 355 q 309 452 353 431 q 214 508 264 473 q 140 583 163 543 q 113 518 113 562 q 146 430 113 467 q 222 374 179 393 q 317 319 266 354 q 392 243 368 285 z "},"":{"ha":496,"x_min":37,"x_max":469,"o":"m 334 642 q 322 653 334 642 q 311 697 311 665 q 334 753 311 730 q 389 777 357 777 q 446 753 422 777 q 469 697 469 730 q 446 642 469 665 q 389 618 422 618 q 334 642 357 618 m 60 642 q 48 653 60 642 q 37 697 37 665 q 60 753 37 730 q 115 777 83 777 q 172 753 148 777 q 195 697 195 730 q 172 642 195 665 q 115 618 148 618 q 60 642 83 618 z "},"":{"ha":814,"x_min":37,"x_max":779,"o":"m 182 689 q 135 642 182 689 q 88 464 88 595 q 182 239 88 332 q 408 145 275 145 q 633 238 540 145 q 727 464 727 331 q 633 690 727 597 q 408 783 540 783 q 182 689 275 783 m 145 202 q 91 256 145 202 q 37 464 37 311 q 145 726 37 617 q 407 834 254 834 q 669 726 560 834 q 779 464 779 617 q 669 202 779 311 q 407 94 560 94 q 145 202 254 94 m 568 369 q 559 329 568 361 q 541 293 549 297 q 406 267 490 267 q 273 323 327 267 q 218 456 218 378 q 273 595 218 537 q 408 654 327 654 q 549 632 481 654 q 558 591 551 632 q 566 545 566 551 q 549 537 566 537 q 536 540 541 537 q 522 567 532 553 q 485 595 513 581 q 416 610 457 610 q 336 568 366 610 q 305 469 305 526 q 342 354 305 399 q 433 309 378 309 q 517 332 491 309 q 530 350 524 339 q 539 368 536 361 q 544 374 543 374 q 568 369 566 374 z "},"":{"ha":448,"x_min":37,"x_max":414,"o":"m 250 441 l 250 533 q 216 522 243 530 q 176 507 189 513 q 150 488 163 502 q 137 456 137 473 q 152 412 137 427 q 189 397 167 397 q 231 411 213 397 q 250 441 250 425 m 346 437 q 377 393 346 393 q 393 397 385 393 q 404 404 400 400 q 408 407 407 407 q 414 399 414 407 q 407 369 414 389 q 327 339 366 339 q 286 355 305 339 q 259 388 266 370 l 247 380 q 222 361 236 370 q 186 345 209 353 q 141 336 164 336 q 64 365 91 336 q 37 439 37 393 q 50 485 37 465 q 90 519 62 505 q 137 542 117 534 q 195 560 157 549 q 241 575 232 571 q 250 590 250 578 l 250 646 q 235 693 250 675 q 197 711 220 711 q 152 692 170 711 q 134 640 134 673 q 84 613 134 613 q 43 643 43 613 q 101 718 43 681 q 222 754 159 754 q 315 724 283 754 q 346 624 346 694 l 346 437 z "},"":{"ha":637,"x_min":34,"x_max":606,"o":"m 406 336 q 457 283 411 331 q 514 227 503 236 q 604 136 598 145 q 605 127 605 132 q 566 99 605 113 q 539 124 564 102 q 445 199 514 146 q 286 308 376 251 q 277 327 277 312 q 288 363 277 351 q 384 426 338 393 q 462 484 430 458 q 517 529 494 509 q 553 562 541 549 l 567 574 q 594 561 582 570 q 606 544 606 552 q 514 445 606 532 l 406 336 m 163 336 q 214 283 168 331 q 270 227 259 236 q 359 137 354 145 q 362 127 362 132 q 323 99 362 113 q 296 124 321 102 q 202 199 271 146 q 43 308 133 251 q 34 327 34 312 q 45 363 34 351 q 141 426 95 393 q 219 484 187 458 q 275 529 251 509 q 312 562 298 549 l 324 574 q 351 561 339 570 q 363 544 363 552 q 273 445 363 530 l 163 336 z "},"":{"ha":726,"x_min":38,"x_max":680,"o":"m 38 502 q 58 575 45 575 q 663 575 58 575 q 680 559 680 575 l 680 229 q 606 209 667 217 l 601 209 q 593 218 601 209 l 593 475 q 588 484 593 479 q 576 488 583 488 l 46 488 q 38 502 38 488 z "},"":{"ha":812,"x_min":37,"x_max":779,"o":"m 358 435 q 363 381 359 397 q 378 372 365 377 q 397 368 392 368 q 400 360 400 368 q 399 350 400 353 q 316 354 330 354 l 235 350 q 233 358 233 351 q 235 368 233 368 q 256 372 241 368 q 271 381 270 377 q 275 431 275 395 l 275 659 q 271 708 275 694 q 256 717 270 712 q 235 722 241 722 q 233 730 233 722 q 235 741 233 739 q 275 738 241 741 q 316 735 308 735 q 357 737 334 735 q 399 739 381 739 q 490 716 448 739 q 533 639 533 693 q 517 577 533 605 q 473 538 500 549 q 471 529 468 536 q 552 406 494 468 q 614 368 586 368 q 617 358 617 362 q 616 350 617 353 q 600 349 612 349 q 438 439 503 349 q 411 480 425 458 q 390 512 397 502 q 376 526 382 522 q 368 528 374 528 q 358 518 358 528 l 358 435 m 401 556 q 437 576 420 556 q 453 629 453 595 q 437 688 453 669 q 400 708 422 708 q 363 705 372 708 q 359 700 359 705 q 358 646 358 684 l 358 576 q 364 562 358 567 q 378 557 370 557 q 403 556 385 556 l 401 556 m 182 773 q 135 726 182 773 q 88 548 88 680 q 182 323 88 416 q 408 229 275 229 q 633 322 540 229 q 727 548 727 415 q 633 774 727 681 q 408 867 540 867 q 182 773 275 867 m 145 286 q 91 340 145 286 q 37 548 37 395 q 145 810 37 701 q 407 918 254 918 q 669 810 560 918 q 779 548 779 701 q 669 286 779 395 q 407 178 560 178 q 145 286 254 178 z "},"":{"ha":521,"x_min":92,"x_max":429,"o":"m 92 734 q 97 779 92 747 q 111 811 102 811 l 422 811 q 429 802 429 811 q 418 731 429 770 q 414 725 416 727 q 410 722 412 723 l 408 722 l 100 722 q 95 724 100 722 q 92 734 92 728 z "},"":{"ha":317,"x_min":24,"x_max":292,"o":"m 103 782 q 92 771 103 782 q 80 727 80 760 q 103 671 80 694 q 159 648 126 648 q 214 671 191 648 q 236 727 236 694 q 214 782 236 760 q 159 804 191 804 q 103 782 126 804 m 64 633 q 44 653 64 633 q 24 727 24 673 q 64 821 24 781 q 159 860 103 860 q 253 821 214 860 q 292 727 292 781 q 252 632 292 671 q 159 593 213 593 q 64 633 103 593 z "},"":{"ha":722,"x_min":37,"x_max":686,"o":"m 663 5 l 45 5 q 37 19 37 5 q 47 85 37 49 q 51 91 49 90 q 54 92 53 92 l 57 92 l 675 92 q 686 84 686 92 q 673 14 686 64 q 669 7 671 9 q 665 5 667 5 l 663 5 m 404 415 l 404 160 q 334 138 395 146 q 329 138 331 138 q 326 137 327 137 q 317 148 317 137 l 317 412 q 309 419 317 419 l 45 419 q 37 433 37 419 q 47 499 37 463 q 51 505 49 503 q 54 506 53 506 l 57 506 l 311 506 q 317 514 317 506 l 317 766 q 324 776 316 773 q 391 787 361 787 l 404 779 l 404 513 q 410 506 404 506 l 675 506 q 686 498 686 506 q 673 427 686 477 q 669 421 671 423 q 665 419 667 419 l 663 419 l 410 419 q 404 415 404 419 z "},"":{"ha":445,"x_min":35,"x_max":412,"o":"m 182 800 q 159 797 171 800 q 139 789 148 793 q 119 776 130 784 q 103 763 109 768 q 90 750 98 758 q 80 741 81 742 q 64 753 75 739 q 53 774 53 766 q 54 784 53 781 q 123 846 76 817 q 222 876 171 876 q 329 834 286 876 q 372 730 372 792 q 353 646 372 688 q 290 562 334 605 q 222 497 247 518 q 144 434 198 476 q 142 429 141 431 q 146 426 144 426 l 316 426 q 347 432 335 426 q 363 444 359 438 q 373 464 368 450 q 381 481 378 477 q 389 486 382 486 q 412 479 407 486 q 380 345 407 461 l 225 345 l 52 345 q 35 376 35 358 q 38 391 35 380 q 141 503 100 456 q 221 613 182 549 q 260 719 260 677 q 239 774 260 749 q 182 800 218 800 z "},"":{"ha":399,"x_min":35,"x_max":363,"o":"m 225 876 q 301 850 263 876 q 339 776 339 823 q 244 648 339 705 q 321 609 278 648 q 363 507 363 570 q 300 377 363 420 q 144 334 236 334 q 38 366 68 334 q 35 382 35 372 q 49 415 35 401 q 79 429 62 429 q 123 406 98 429 q 171 382 149 382 q 244 413 214 382 q 274 499 274 444 q 178 600 274 600 q 127 595 172 600 q 117 618 117 606 q 125 636 117 632 q 239 751 239 661 q 220 793 239 777 q 179 808 202 808 q 118 783 149 808 q 84 757 87 757 q 68 773 76 757 q 62 795 60 789 q 131 852 85 829 q 225 876 176 876 z "},"":{"ha":335,"x_min":60,"x_max":292,"o":"m 292 895 q 195 786 292 861 q 80 711 98 711 q 66 718 73 711 q 60 732 60 726 q 80 770 60 736 q 132 848 100 803 q 186 920 163 892 q 232 932 198 932 q 268 924 254 932 q 287 908 282 916 q 292 895 292 901 z "},"":{"ha":696,"x_min":47,"x_max":673,"o":"m 244 -12 q 227 -10 235 -12 q 211 -3 218 -8 q 198 7 203 3 q 186 21 193 11 q 178 36 180 31 q 170 54 175 41 q 163 70 164 66 q 157 87 161 73 q 152 103 152 102 q 153 31 152 102 q 161 -125 155 -39 q 182 -281 168 -210 q 160 -299 175 -290 q 130 -308 145 -308 q 81 -289 115 -308 q 47 -258 47 -270 q 56 -14 47 -214 q 76 277 65 187 q 73 341 76 293 q 71 404 71 389 l 71 572 q 93 590 76 581 q 122 600 110 600 q 168 580 134 600 q 201 548 201 560 q 174 347 201 475 l 165 302 q 186 161 165 218 q 244 104 208 104 q 399 308 354 104 l 399 404 l 399 572 q 421 590 404 581 q 450 600 438 600 q 500 580 463 600 q 537 548 537 560 q 506 334 537 480 l 499 302 q 502 223 499 258 q 512 159 505 189 q 534 114 519 130 q 572 98 549 98 q 619 113 595 98 q 654 140 643 127 q 669 125 659 140 q 673 103 673 117 q 623 26 659 58 q 547 -5 587 -5 q 474 47 502 -4 q 437 174 446 99 q 354 39 400 90 q 244 -12 308 -12 z "},"":{"ha":635,"x_min":35,"x_max":601,"o":"m 374 372 l 377 72 q 406 54 377 54 q 422 60 415 54 q 429 73 429 66 q 434 384 434 134 q 429 389 434 389 q 420 388 426 389 q 405 385 415 387 q 385 382 395 384 q 374 372 374 381 m 279 884 q 355 882 320 884 q 430 879 391 879 q 510 881 471 879 q 570 884 549 883 l 589 887 q 593 863 594 882 q 586 845 591 845 q 540 838 568 845 q 507 819 511 830 q 503 678 503 806 q 504 554 503 629 q 505 473 505 479 q 507 467 505 469 q 511 467 509 465 l 570 479 q 575 457 575 468 q 548 420 575 433 q 513 410 536 414 q 506 403 506 407 q 515 65 506 100 q 549 45 519 54 q 595 35 579 35 q 601 19 601 35 q 595 -5 601 0 q 498 -1 570 -4 q 377 3 426 3 q 323 1 350 3 q 264 -2 296 0 q 216 -5 233 -4 q 214 18 213 0 q 218 35 214 35 q 261 45 231 35 q 294 65 292 56 q 301 248 301 94 l 301 366 q 274 376 301 376 q 100 453 164 376 q 35 629 35 530 q 111 817 35 749 q 279 884 186 884 m 377 810 q 374 454 374 593 q 385 448 374 448 q 426 454 406 448 q 434 464 434 457 q 431 811 434 776 q 422 821 431 815 q 404 826 414 826 q 377 810 377 826 z "},"":{"ha":298,"x_min":65,"x_max":247,"o":"m 220 426 q 234 412 220 426 q 247 362 247 399 q 220 298 247 326 q 157 270 194 270 q 92 298 119 270 q 65 362 65 326 q 92 426 65 399 q 157 453 119 453 q 220 426 194 453 z "},"":{"ha":601,"x_min":210,"x_max":399,"o":"m 302 -38 q 332 -37 327 -37 q 380 -57 361 -37 q 399 -104 399 -77 q 362 -180 399 -152 q 269 -209 326 -209 q 214 -193 231 -209 q 210 -171 210 -176 q 216 -158 210 -164 q 225 -152 221 -152 q 249 -161 229 -152 q 283 -171 269 -171 q 325 -159 311 -171 q 339 -129 339 -146 q 328 -98 339 -110 q 301 -87 317 -87 q 263 -95 283 -87 q 253 -87 260 -95 q 247 -76 245 -80 q 269 -36 254 -64 q 288 -4 285 -8 l 324 -4 l 302 -38 z "},"":{"ha":370,"x_min":31,"x_max":335,"o":"m 50 743 q 31 768 31 750 q 33 780 31 779 q 138 829 85 804 q 216 868 191 854 q 243 882 241 882 l 244 882 q 256 869 248 882 q 264 852 263 857 q 248 741 248 803 l 248 456 q 262 399 248 422 q 294 386 267 392 q 330 380 320 380 q 335 358 335 380 q 332 342 335 347 q 270 345 319 342 q 197 347 221 347 q 117 345 171 347 q 52 342 62 342 q 47 362 47 345 q 52 380 47 380 q 92 386 65 380 q 123 399 119 392 q 136 442 136 423 l 136 711 q 114 765 136 765 q 50 743 109 765 z "},"":{"ha":499,"x_min":37,"x_max":464,"o":"m 240 709 q 171 665 194 709 q 148 564 148 621 q 176 432 148 488 q 262 376 203 376 q 329 420 307 376 q 351 521 351 464 q 325 653 351 597 q 240 709 298 709 m 99 690 q 130 721 99 690 q 251 751 161 751 q 402 690 340 751 q 464 543 464 628 q 402 396 464 457 q 251 335 340 335 q 99 396 161 335 q 37 543 37 457 q 99 690 37 629 z "},"":{"ha":642,"x_min":34,"x_max":606,"o":"m 235 336 q 126 445 235 336 q 34 544 34 532 q 46 561 34 552 q 73 574 58 570 l 87 562 q 123 529 99 549 q 178 484 146 509 q 256 426 210 458 q 353 363 302 393 q 363 327 363 351 q 354 308 363 312 q 195 199 264 251 q 101 124 126 146 q 75 99 76 102 q 35 127 35 113 q 100 202 35 140 q 126 227 117 217 q 183 283 137 236 q 235 336 229 331 m 477 336 l 368 445 q 277 544 277 530 q 289 561 277 552 q 316 574 301 570 l 328 562 q 366 529 342 549 q 421 484 389 509 q 499 426 453 458 q 595 363 545 393 q 606 327 606 351 q 597 308 606 312 q 438 199 507 251 q 344 124 369 146 q 317 99 319 102 q 278 127 278 113 q 334 193 278 138 q 370 227 357 213 q 427 283 381 236 q 477 336 472 331 z "},"":{"ha":922,"x_min":30,"x_max":892,"o":"m 49 743 q 30 768 30 750 q 31 780 30 779 q 137 829 84 804 q 215 868 190 854 q 241 882 240 882 l 243 882 q 254 869 247 882 q 263 852 262 857 q 247 741 247 803 l 247 456 q 260 399 247 422 q 292 386 266 392 q 328 380 319 380 q 334 358 334 380 q 331 342 334 347 q 269 345 317 342 q 195 347 220 347 q 115 345 170 347 q 50 342 61 342 q 46 362 46 345 q 50 380 46 380 q 91 386 64 380 q 122 399 118 392 q 134 442 134 423 l 134 711 q 113 765 134 765 q 49 743 107 765 m 787 -5 q 731 5 731 -5 l 731 141 q 724 146 730 146 l 517 146 q 502 179 502 156 l 787 528 q 815 540 796 540 q 838 529 838 540 l 838 217 q 846 212 838 212 l 876 212 q 892 152 892 212 q 890 147 892 149 q 887 144 888 145 l 884 144 l 844 144 q 838 137 838 144 l 838 1 q 787 -5 831 -5 m 731 385 l 716 368 q 686 331 701 350 l 670 312 l 597 222 q 597 217 595 221 q 602 213 600 213 l 727 213 q 731 216 731 213 l 731 385 m 707 872 q 715 876 708 876 q 748 863 731 876 q 765 841 765 849 l 765 840 q 764 837 764 838 l 292 -19 q 285 -22 289 -22 q 253 -8 270 -22 q 236 11 236 5 l 236 15 l 707 872 z "},"":{"ha":956,"x_min":30,"x_max":926,"o":"m 696 456 q 673 452 685 456 q 653 444 662 449 q 633 431 644 439 q 617 418 623 423 q 604 406 612 414 q 594 396 595 397 q 578 408 589 395 q 567 430 567 422 q 568 439 567 437 q 637 502 590 472 q 735 532 684 532 q 842 490 799 532 q 884 385 884 448 q 865 302 884 343 q 803 217 846 260 q 735 153 760 174 q 656 90 711 132 q 655 83 654 87 q 659 79 656 79 l 830 79 q 861 85 849 79 q 878 98 873 92 q 888 119 883 104 q 895 137 892 133 q 903 141 897 141 q 926 134 921 141 q 892 0 914 96 l 738 0 l 566 0 q 549 31 549 14 q 552 46 549 35 q 773 374 773 277 q 753 430 773 404 q 696 456 732 456 m 49 743 q 30 768 30 750 q 31 780 30 779 q 137 829 84 804 q 215 868 190 854 q 241 882 240 882 l 243 882 q 254 869 247 882 q 263 852 262 857 q 247 741 247 803 l 247 456 q 260 399 247 422 q 292 386 266 392 q 328 380 319 380 q 334 358 334 380 q 331 342 334 347 q 269 345 317 342 q 195 347 220 347 q 115 345 170 347 q 50 342 61 342 q 46 362 46 345 q 50 380 46 380 q 91 386 64 380 q 122 399 118 392 q 134 442 134 423 l 134 711 q 113 765 134 765 q 49 743 107 765 m 686 872 q 694 876 689 876 q 728 863 711 876 q 745 841 745 849 l 743 840 q 743 837 743 838 l 271 -19 q 264 -22 269 -22 q 233 -8 250 -22 q 216 11 216 5 l 216 15 l 686 872 z "},"":{"ha":937,"x_min":31,"x_max":907,"o":"m 722 872 q 730 876 724 876 q 763 863 746 876 q 780 841 780 849 l 779 840 q 779 837 779 838 l 307 -19 q 300 -22 304 -22 q 268 -8 285 -22 q 251 11 251 5 l 251 15 l 722 872 m 221 876 q 296 850 259 876 q 334 776 334 823 q 240 648 334 704 q 328 615 279 648 q 376 521 376 582 q 303 384 376 434 q 138 334 231 334 q 33 366 62 334 q 31 382 31 369 q 44 415 31 401 q 73 429 57 429 q 118 406 92 429 q 165 382 144 382 q 239 413 209 382 q 270 499 270 444 q 172 600 270 600 q 122 595 167 600 q 113 618 113 605 q 119 636 113 632 q 232 751 232 661 q 214 793 232 777 q 174 808 197 808 q 130 795 151 808 q 97 770 110 783 q 80 757 84 757 q 64 773 73 757 q 58 795 56 789 q 127 852 81 829 q 221 876 172 876 m 802 -5 q 746 5 746 -5 l 746 141 q 739 146 745 146 l 532 146 q 517 179 517 156 l 802 528 q 830 540 811 540 q 853 529 853 540 l 853 217 q 861 212 853 212 l 891 212 q 907 152 907 212 q 905 147 907 149 q 901 144 903 145 l 899 144 l 859 144 q 853 137 853 144 l 853 1 q 802 -5 846 -5 m 746 385 l 731 368 q 700 331 716 350 l 685 312 l 612 222 q 612 217 610 221 q 617 213 614 213 l 742 213 q 746 216 746 213 l 746 385 z "},"":{"ha":441,"x_min":31,"x_max":410,"o":"m 339 -296 q 124 -227 217 -296 q 31 -46 31 -157 q 68 88 31 41 q 180 174 104 136 q 200 183 186 176 q 221 193 214 190 q 239 203 228 197 q 258 215 251 210 q 272 226 264 220 q 283 237 279 232 q 289 250 288 243 q 293 289 293 260 q 296 324 293 317 q 331 339 305 339 q 350 222 350 339 q 334 127 350 155 q 273 68 319 99 q 232 45 263 61 q 180 15 201 28 q 140 -23 159 1 q 122 -76 122 -47 q 151 -142 122 -115 q 218 -170 179 -170 q 273 -163 239 -170 q 327 -156 307 -156 q 384 -176 359 -156 q 408 -228 408 -197 q 400 -279 408 -252 q 339 -296 365 -296 m 254 438 q 241 452 254 438 q 228 502 228 465 q 254 566 228 538 q 317 594 281 594 q 382 566 355 594 q 410 502 410 538 q 382 438 410 465 q 317 411 355 411 q 254 438 281 411 z "},"":{"ha":998,"x_min":37,"x_max":956,"o":"m 492 1079 q 523 1049 492 1079 q 553 1010 553 1019 q 548 995 553 1002 q 537 987 543 987 q 402 1042 511 987 q 293 1128 293 1096 q 315 1161 293 1149 q 366 1173 336 1173 q 391 1169 382 1173 q 492 1079 430 1139 m 530 895 l 815 184 q 856 85 836 130 q 899 53 864 65 q 951 41 935 41 q 956 16 956 41 q 954 -4 956 0 q 783 4 791 4 q 606 -4 773 4 q 601 21 601 1 q 606 41 601 41 q 651 49 623 41 q 685 68 680 57 q 689 85 689 76 q 663 179 689 113 l 616 305 q 606 311 610 311 q 490 313 563 313 q 335 309 416 313 q 327 304 327 309 l 275 178 q 250 90 250 107 q 264 62 250 72 q 307 47 277 54 q 349 41 338 41 q 353 22 353 39 q 350 -4 353 4 q 286 0 343 -4 q 194 4 229 4 q 111 1 159 4 q 42 -4 62 -3 q 37 16 37 1 q 39 41 37 41 q 92 52 56 41 q 137 79 127 64 q 189 184 163 119 l 441 795 q 491 892 472 876 q 514 902 502 902 q 530 895 524 902 m 368 391 q 465 387 415 387 q 576 391 513 387 l 579 396 l 476 667 l 365 396 q 368 391 365 391 z "},"":{"ha":998,"x_min":37,"x_max":956,"o":"m 438 995 q 435 999 438 995 q 433 1010 433 1002 q 494 1079 433 1019 q 595 1169 556 1139 q 620 1173 604 1173 q 671 1161 650 1173 q 693 1128 693 1149 q 584 1042 693 1096 q 449 987 475 987 q 438 995 444 987 m 530 895 l 815 184 q 856 85 836 130 q 899 53 864 65 q 951 41 935 41 q 956 16 956 41 q 954 -4 956 0 q 783 4 791 4 q 606 -4 773 4 q 601 21 601 1 q 606 41 601 41 q 651 49 623 41 q 685 68 680 57 q 689 85 689 76 q 663 179 689 113 l 616 305 q 606 311 610 311 q 490 313 563 313 q 335 309 416 313 q 327 304 327 309 l 275 178 q 250 90 250 107 q 264 62 250 72 q 307 47 277 54 q 349 41 338 41 q 353 22 353 39 q 350 -4 353 4 q 286 0 343 -4 q 194 4 229 4 q 111 1 159 4 q 42 -4 62 -3 q 37 16 37 1 q 39 41 37 41 q 92 52 56 41 q 137 79 127 64 q 189 184 163 119 l 441 795 q 491 892 472 876 q 514 902 502 902 q 530 895 524 902 m 368 391 q 465 387 415 387 q 576 391 513 387 l 579 396 l 476 667 l 365 396 q 368 391 365 391 z "},"":{"ha":998,"x_min":37,"x_max":956,"o":"m 650 987 q 498 1069 624 987 q 412 1017 465 1046 q 346 987 358 987 q 332 1013 332 987 q 364 1041 334 1015 q 425 1096 395 1067 q 481 1160 460 1130 q 498 1172 492 1172 q 514 1160 505 1172 q 570 1097 555 1112 q 614 1056 593 1076 q 649 1025 636 1036 q 663 1013 662 1015 q 650 987 663 987 m 530 895 l 815 184 q 856 85 836 130 q 899 53 864 65 q 951 41 935 41 q 956 16 956 41 q 954 -4 956 0 q 783 4 791 4 q 606 -4 773 4 q 601 21 601 1 q 606 41 601 41 q 651 49 623 41 q 685 68 680 57 q 689 85 689 76 q 663 179 689 113 l 616 305 q 606 311 610 311 q 490 313 563 313 q 335 309 416 313 q 327 304 327 309 l 275 178 q 250 90 250 107 q 264 62 250 72 q 307 47 277 54 q 349 41 338 41 q 353 22 353 39 q 350 -4 353 4 q 286 0 343 -4 q 194 4 229 4 q 111 1 159 4 q 42 -4 62 -3 q 37 16 37 1 q 39 41 37 41 q 92 52 56 41 q 137 79 127 64 q 189 184 163 119 l 441 795 q 491 892 472 876 q 514 902 502 902 q 530 895 524 902 m 368 391 q 465 387 415 387 q 576 391 513 387 l 579 396 l 476 667 l 365 396 q 368 391 365 391 z "},"":{"ha":998,"x_min":37,"x_max":956,"o":"m 248 1001 q 237 1027 237 1001 q 262 1086 237 1050 q 374 1149 312 1149 q 498 1107 423 1149 q 621 1066 572 1066 q 679 1101 646 1066 q 715 1135 712 1135 q 724 1108 724 1135 q 701 1048 724 1084 q 590 987 655 987 q 467 1029 541 987 q 343 1070 392 1070 q 304 1053 326 1070 q 269 1018 283 1035 q 248 1001 254 1001 m 530 895 l 815 184 q 856 85 836 130 q 899 53 864 65 q 951 41 935 41 q 956 16 956 41 q 954 -4 956 0 q 783 4 791 4 q 606 -4 773 4 q 601 21 601 1 q 606 41 601 41 q 651 49 623 41 q 685 68 680 57 q 689 85 689 76 q 663 179 689 113 l 616 305 q 606 311 610 311 q 490 313 563 313 q 335 309 416 313 q 327 304 327 309 l 275 178 q 250 90 250 107 q 264 62 250 72 q 307 47 277 54 q 349 41 338 41 q 353 22 353 39 q 350 -4 353 4 q 286 0 343 -4 q 194 4 229 4 q 111 1 159 4 q 42 -4 62 -3 q 37 16 37 1 q 39 41 37 41 q 92 52 56 41 q 137 79 127 64 q 189 184 163 119 l 441 795 q 491 892 472 876 q 514 902 502 902 q 530 895 524 902 m 368 391 q 465 387 415 387 q 576 391 513 387 l 579 396 l 476 667 l 365 396 q 368 391 365 391 z "},"":{"ha":998,"x_min":37,"x_max":956,"o":"m 594 1012 q 582 1024 594 1012 q 570 1072 570 1036 q 594 1131 570 1107 q 654 1156 618 1156 q 713 1131 689 1156 q 738 1072 738 1107 q 713 1012 738 1036 q 654 987 689 987 q 594 1012 618 987 m 315 1012 q 302 1024 315 1012 q 290 1072 290 1036 q 315 1131 290 1107 q 374 1156 339 1156 q 434 1131 410 1156 q 458 1072 458 1107 q 434 1012 458 1036 q 374 987 410 987 q 315 1012 339 987 m 530 895 l 815 184 q 856 85 836 130 q 899 53 864 65 q 951 41 935 41 q 956 16 956 41 q 954 -4 956 0 q 783 4 791 4 q 606 -4 773 4 q 601 21 601 1 q 606 41 601 41 q 651 49 623 41 q 685 68 680 57 q 689 85 689 76 q 663 179 689 113 l 616 305 q 606 311 610 311 q 490 313 563 313 q 335 309 416 313 q 327 304 327 309 l 275 178 q 250 90 250 107 q 264 62 250 72 q 307 47 277 54 q 349 41 338 41 q 353 22 353 39 q 350 -4 353 4 q 286 0 343 -4 q 194 4 229 4 q 111 1 159 4 q 42 -4 62 -3 q 37 16 37 1 q 39 41 37 41 q 92 52 56 41 q 137 79 127 64 q 189 184 163 119 l 441 795 q 491 892 472 876 q 514 902 502 902 q 530 895 524 902 m 368 391 q 465 387 415 387 q 576 391 513 387 l 579 396 l 476 667 l 365 396 q 368 391 365 391 z "},"":{"ha":998,"x_min":37,"x_max":956,"o":"m 435 1029 q 457 977 435 998 q 509 955 479 955 q 559 977 538 955 q 581 1029 581 998 q 559 1082 581 1061 q 509 1103 538 1103 q 456 1081 477 1103 q 435 1029 435 1059 m 419 939 q 400 958 419 939 q 381 1029 381 977 q 418 1119 381 1082 q 509 1156 456 1156 q 597 1119 560 1156 q 633 1029 633 1082 q 597 939 633 977 q 509 901 560 901 q 419 939 457 901 m 530 895 l 815 184 q 856 85 836 130 q 899 53 864 65 q 951 41 935 41 q 956 16 956 41 q 954 -4 956 0 q 783 4 791 4 q 606 -4 773 4 q 601 21 601 1 q 606 41 601 41 q 651 49 623 41 q 685 68 680 57 q 689 85 689 76 q 663 179 689 113 l 616 305 q 606 311 610 311 q 490 313 563 313 q 335 309 416 313 q 327 304 327 309 l 275 178 q 250 90 250 107 q 264 62 250 72 q 307 47 277 54 q 349 41 338 41 q 353 22 353 39 q 350 -4 353 4 q 286 0 343 -4 q 194 4 229 4 q 111 1 159 4 q 42 -4 62 -3 q 37 16 37 1 q 39 41 37 41 q 92 52 56 41 q 137 79 127 64 q 189 184 163 119 l 441 795 q 491 892 472 876 q 514 902 502 902 q 530 895 524 902 m 368 391 q 465 387 415 387 q 576 391 513 387 l 579 396 l 476 667 l 365 396 q 368 391 365 391 z "},"":{"ha":1240,"x_min":5,"x_max":1222,"o":"m 605 673 q 600 678 605 678 q 589 670 593 678 q 416 393 589 670 q 418 388 415 388 q 514 384 464 384 q 585 388 521 384 q 591 389 587 388 q 600 394 595 391 q 605 401 605 397 l 605 673 m 576 792 q 583 814 583 803 q 581 821 583 815 q 551 839 575 831 q 511 846 528 846 q 506 868 506 846 q 511 892 506 887 q 684 887 593 887 q 894 892 743 887 q 1122 898 1044 898 q 1143 785 1127 857 q 1161 705 1160 712 q 1133 699 1154 699 q 1114 708 1118 699 q 940 829 1069 829 l 869 829 q 766 811 769 829 q 758 701 758 773 l 758 488 q 818 480 758 480 l 888 480 q 894 480 890 480 q 987 487 972 480 q 1010 534 1002 494 q 1019 568 1015 555 q 1040 578 1020 578 q 1066 571 1059 578 l 1066 315 q 1040 309 1061 309 q 1019 320 1023 309 q 1002 374 1009 357 q 992 393 994 392 q 981 401 990 395 q 856 412 963 412 q 758 401 758 412 l 758 191 q 770 81 758 117 q 863 64 777 64 l 913 64 q 1074 92 1019 64 q 1123 140 1096 103 q 1165 222 1150 176 q 1184 231 1166 231 q 1222 222 1214 231 q 1202 167 1218 210 q 1179 101 1187 123 q 1161 46 1171 79 q 1149 -7 1152 14 q 907 -3 1072 -7 q 685 0 743 0 l 511 -8 q 506 16 506 -3 q 511 41 506 41 q 560 49 529 41 q 595 68 591 57 q 605 180 605 104 l 605 302 q 598 308 602 308 q 521 311 555 311 q 366 307 448 311 q 357 301 357 307 l 278 175 q 233 87 237 107 q 241 57 229 69 q 279 41 252 47 q 319 34 307 34 q 319 16 323 33 q 312 -8 316 0 q 252 -3 298 -7 q 170 0 205 0 q 79 -3 133 0 q 7 -8 24 -7 q 5 14 3 -4 q 15 33 8 33 q 68 47 30 33 q 118 76 106 61 q 193 182 153 117 l 576 792 z "},"":{"ha":867,"x_min":34,"x_max":831,"o":"m 460 -39 q 495 -39 460 -39 q 551 -63 528 -39 q 574 -118 574 -87 q 531 -208 574 -174 q 420 -241 488 -241 q 355 -221 382 -241 q 351 -197 351 -201 q 357 -182 351 -189 q 369 -175 362 -175 q 397 -186 374 -175 q 437 -197 420 -197 q 486 -182 468 -197 q 503 -148 503 -168 q 490 -112 503 -126 q 458 -98 477 -98 q 415 -107 438 -98 q 404 -98 412 -107 q 396 -85 395 -90 q 444 0 412 -58 l 486 0 l 460 -39 m 831 247 q 811 142 831 229 q 780 49 791 54 q 465 -8 662 -8 q 160 123 286 -8 q 34 437 34 255 q 163 767 34 629 q 480 905 292 905 q 800 868 633 905 q 808 779 804 867 q 812 670 812 692 q 780 650 812 650 q 761 655 772 650 q 741 705 755 680 q 699 764 727 731 q 614 817 670 796 q 486 838 559 838 q 279 728 353 838 q 205 465 205 618 q 288 176 205 294 q 524 57 372 57 q 715 133 644 57 q 747 184 732 152 q 768 237 761 216 q 779 259 776 259 q 831 247 826 259 z "},"":{"ha":792,"x_min":34,"x_max":758,"o":"m 429 1079 q 460 1049 429 1079 q 491 1010 491 1019 q 486 995 491 1002 q 475 987 480 987 q 340 1042 449 987 q 231 1128 231 1096 q 252 1161 231 1149 q 304 1173 274 1173 q 328 1169 320 1173 q 429 1079 368 1139 m 220 891 q 430 896 279 891 q 658 901 581 901 q 680 787 663 860 q 697 708 696 715 q 669 701 690 701 q 650 711 654 701 q 476 831 605 831 l 406 831 q 302 814 305 831 q 294 704 294 776 l 294 491 q 354 483 294 483 l 425 483 q 430 483 426 483 q 524 490 509 483 q 547 537 538 496 q 555 571 551 557 q 576 581 556 581 q 602 574 595 581 l 602 317 q 576 312 597 312 q 555 323 559 312 q 538 377 545 359 q 528 396 530 395 q 517 404 526 397 q 392 415 499 415 q 294 404 294 415 l 294 194 q 307 84 294 119 q 399 66 313 66 l 449 66 q 610 95 555 66 q 659 142 632 106 q 701 225 686 179 q 720 233 703 233 q 758 225 750 233 q 739 170 754 213 q 715 104 723 126 q 697 49 707 81 q 685 -4 688 16 q 460 0 631 -4 q 221 1 290 4 l 41 -4 q 37 18 37 0 q 41 41 37 41 q 92 50 58 41 q 132 71 126 58 q 141 194 141 99 l 141 707 q 132 818 141 788 q 94 842 127 833 q 39 852 60 852 q 34 872 34 852 q 39 897 34 891 q 220 891 129 891 z "},"":{"ha":792,"x_min":34,"x_max":758,"o":"m 327 995 q 324 999 327 995 q 321 1010 321 1002 q 383 1079 321 1019 q 484 1169 445 1139 q 509 1173 492 1173 q 560 1161 538 1173 q 582 1128 582 1149 q 473 1042 582 1096 q 338 987 363 987 q 327 995 332 987 m 220 891 q 430 896 279 891 q 658 901 581 901 q 680 787 663 860 q 697 708 696 715 q 669 701 690 701 q 650 711 654 701 q 476 831 605 831 l 406 831 q 302 814 305 831 q 294 704 294 776 l 294 491 q 354 483 294 483 l 425 483 q 430 483 426 483 q 524 490 509 483 q 547 537 538 496 q 555 571 551 557 q 576 581 556 581 q 602 574 595 581 l 602 317 q 576 312 597 312 q 555 323 559 312 q 538 377 545 359 q 528 396 530 395 q 517 404 526 397 q 392 415 499 415 q 294 404 294 415 l 294 194 q 307 84 294 119 q 399 66 313 66 l 449 66 q 610 95 555 66 q 659 142 632 106 q 701 225 686 179 q 720 233 703 233 q 758 225 750 233 q 739 170 754 213 q 715 104 723 126 q 697 49 707 81 q 685 -4 688 16 q 460 0 631 -4 q 221 1 290 4 l 41 -4 q 37 18 37 0 q 41 41 37 41 q 92 50 58 41 q 132 71 126 58 q 141 194 141 99 l 141 707 q 132 818 141 788 q 94 842 127 833 q 39 852 60 852 q 34 872 34 852 q 39 897 34 891 q 220 891 129 891 z "},"":{"ha":792,"x_min":34,"x_max":758,"o":"m 549 987 q 397 1069 524 987 q 311 1017 365 1046 q 245 987 258 987 q 232 1013 232 987 q 264 1041 233 1015 q 324 1096 294 1067 q 381 1160 359 1130 q 397 1172 392 1172 q 414 1160 404 1172 q 469 1097 454 1112 q 514 1056 492 1076 q 549 1025 536 1036 q 563 1013 562 1015 q 549 987 563 987 m 220 891 q 430 896 279 891 q 658 901 581 901 q 680 787 663 860 q 697 708 696 715 q 669 701 690 701 q 650 711 654 701 q 476 831 605 831 l 406 831 q 302 814 305 831 q 294 704 294 776 l 294 491 q 354 483 294 483 l 425 483 q 430 483 426 483 q 524 490 509 483 q 547 537 538 496 q 555 571 551 557 q 576 581 556 581 q 602 574 595 581 l 602 317 q 576 312 597 312 q 555 323 559 312 q 538 377 545 359 q 528 396 530 395 q 517 404 526 397 q 392 415 499 415 q 294 404 294 415 l 294 194 q 307 84 294 119 q 399 66 313 66 l 449 66 q 610 95 555 66 q 659 142 632 106 q 701 225 686 179 q 720 233 703 233 q 758 225 750 233 q 739 170 754 213 q 715 104 723 126 q 697 49 707 81 q 685 -4 688 16 q 460 0 631 -4 q 221 1 290 4 l 41 -4 q 37 18 37 0 q 41 41 37 41 q 92 50 58 41 q 132 71 126 58 q 141 194 141 99 l 141 707 q 132 818 141 788 q 94 842 127 833 q 39 852 60 852 q 34 872 34 852 q 39 897 34 891 q 220 891 129 891 z "},"":{"ha":792,"x_min":34,"x_max":758,"o":"m 481 1012 q 469 1024 481 1012 q 457 1072 457 1036 q 481 1131 457 1107 q 541 1156 506 1156 q 601 1131 576 1156 q 625 1072 625 1107 q 601 1012 625 1036 q 541 987 576 987 q 481 1012 506 987 m 202 1012 q 190 1024 202 1012 q 178 1072 178 1036 q 202 1131 178 1107 q 262 1156 227 1156 q 321 1131 297 1156 q 346 1072 346 1107 q 321 1012 346 1036 q 262 987 297 987 q 202 1012 227 987 m 220 891 q 430 896 279 891 q 658 901 581 901 q 680 787 663 860 q 697 708 696 715 q 669 701 690 701 q 650 711 654 701 q 476 831 605 831 l 406 831 q 302 814 305 831 q 294 704 294 776 l 294 491 q 354 483 294 483 l 425 483 q 430 483 426 483 q 524 490 509 483 q 547 537 538 496 q 555 571 551 557 q 576 581 556 581 q 602 574 595 581 l 602 317 q 576 312 597 312 q 555 323 559 312 q 538 377 545 359 q 528 396 530 395 q 517 404 526 397 q 392 415 499 415 q 294 404 294 415 l 294 194 q 307 84 294 119 q 399 66 313 66 l 449 66 q 610 95 555 66 q 659 142 632 106 q 701 225 686 179 q 720 233 703 233 q 758 225 750 233 q 739 170 754 213 q 715 104 723 126 q 697 49 707 81 q 685 -4 688 16 q 460 0 631 -4 q 221 1 290 4 l 41 -4 q 37 18 37 0 q 41 41 37 41 q 92 50 58 41 q 132 71 126 58 q 141 194 141 99 l 141 707 q 132 818 141 788 q 94 842 127 833 q 39 852 60 852 q 34 872 34 852 q 39 897 34 891 q 220 891 129 891 z "},"":{"ha":438,"x_min":-26,"x_max":399,"o":"m 173 1079 q 204 1049 173 1079 q 235 1010 235 1019 q 229 995 235 1002 q 218 987 224 987 q 83 1042 193 987 q -26 1128 -26 1096 q -4 1161 -26 1149 q 47 1173 18 1173 q 72 1169 64 1173 q 173 1079 111 1139 m 141 708 q 130 822 141 789 q 92 843 125 833 q 43 853 60 853 q 38 873 38 853 q 41 898 38 895 q 116 894 47 898 q 221 890 184 890 q 395 898 232 890 q 399 876 399 886 q 393 853 399 853 q 345 842 381 853 q 305 822 308 831 q 294 703 294 780 l 294 193 q 307 71 294 118 q 344 51 309 61 q 391 41 378 41 q 396 15 396 41 q 393 -4 396 4 q 221 4 231 4 q 164 3 194 4 q 98 -1 134 1 q 41 -4 62 -3 q 35 15 35 1 q 41 41 35 41 q 92 50 57 41 q 130 71 126 60 q 141 184 141 113 l 141 708 z "},"":{"ha":438,"x_min":35,"x_max":461,"o":"m 206 995 q 203 999 206 995 q 201 1010 201 1002 q 262 1079 201 1019 q 363 1169 324 1139 q 388 1173 372 1173 q 439 1161 418 1173 q 461 1128 461 1149 q 352 1042 461 1096 q 217 987 243 987 q 206 995 212 987 m 141 708 q 130 822 141 789 q 92 843 125 833 q 43 853 60 853 q 38 873 38 853 q 41 898 38 895 q 116 894 47 898 q 221 890 184 890 q 395 898 232 890 q 399 876 399 886 q 393 853 399 853 q 345 842 381 853 q 305 822 308 831 q 294 703 294 780 l 294 193 q 307 71 294 118 q 344 51 309 61 q 391 41 378 41 q 396 15 396 41 q 393 -4 396 4 q 221 4 231 4 q 164 3 194 4 q 98 -1 134 1 q 41 -4 62 -3 q 35 15 35 1 q 41 41 35 41 q 92 50 57 41 q 130 71 126 60 q 141 184 141 113 l 141 708 z "},"":{"ha":438,"x_min":35,"x_max":399,"o":"m 369 987 q 217 1069 343 987 q 131 1017 184 1046 q 65 987 77 987 q 52 1013 52 987 q 83 1041 53 1015 q 144 1096 114 1067 q 201 1160 179 1130 q 217 1172 212 1172 q 233 1160 224 1172 q 289 1097 274 1112 q 334 1056 312 1076 q 368 1025 355 1036 q 382 1013 381 1015 q 369 987 382 987 m 141 708 q 130 822 141 789 q 92 843 125 833 q 43 853 60 853 q 38 873 38 853 q 41 898 38 895 q 116 894 47 898 q 221 890 184 890 q 395 898 232 890 q 399 876 399 886 q 393 853 399 853 q 345 842 381 853 q 305 822 308 831 q 294 703 294 780 l 294 193 q 307 71 294 118 q 344 51 309 61 q 391 41 378 41 q 396 15 396 41 q 393 -4 396 4 q 221 4 231 4 q 164 3 194 4 q 98 -1 134 1 q 41 -4 62 -3 q 35 15 35 1 q 41 41 35 41 q 92 50 57 41 q 130 71 126 60 q 141 184 141 113 l 141 708 z "},"":{"ha":438,"x_min":-5,"x_max":442,"o":"m 298 1012 q 286 1024 298 1012 q 274 1072 274 1036 q 298 1131 274 1107 q 358 1156 323 1156 q 418 1131 393 1156 q 442 1072 442 1107 q 418 1012 442 1036 q 358 987 393 987 q 298 1012 323 987 m 19 1012 q 7 1024 19 1012 q -5 1072 -5 1036 q 19 1131 -5 1107 q 79 1156 43 1156 q 138 1131 114 1156 q 163 1072 163 1107 q 138 1012 163 1036 q 79 987 114 987 q 19 1012 43 987 m 141 708 q 130 822 141 789 q 92 843 125 833 q 43 853 60 853 q 38 873 38 853 q 41 898 38 895 q 116 894 47 898 q 221 890 184 890 q 395 898 232 890 q 399 876 399 886 q 393 853 399 853 q 345 842 381 853 q 305 822 308 831 q 294 703 294 780 l 294 193 q 307 71 294 118 q 344 51 309 61 q 391 41 378 41 q 396 15 396 41 q 393 -4 396 4 q 221 4 231 4 q 164 3 194 4 q 98 -1 134 1 q 41 -4 62 -3 q 35 15 35 1 q 41 41 35 41 q 92 50 57 41 q 130 71 126 60 q 141 184 141 113 l 141 708 z "},"":{"ha":974,"x_min":42,"x_max":932,"o":"m 73 475 l 543 475 q 551 458 551 475 q 543 418 551 435 l 73 418 q 65 437 65 418 q 73 475 65 464 m 228 892 q 357 892 277 892 q 464 892 437 892 q 668 855 576 892 q 816 755 760 818 q 901 616 872 693 q 930 456 930 538 q 900 278 930 361 q 811 132 869 195 q 663 33 753 69 q 461 -4 572 -4 q 359 -1 439 -4 q 229 1 279 3 q 146 0 191 1 q 75 -3 102 -1 l 49 -5 q 43 16 43 0 q 49 41 43 41 q 100 50 65 41 q 140 71 134 58 q 149 194 149 95 l 149 707 q 140 818 149 784 q 100 840 136 829 q 47 852 64 852 q 42 872 42 852 q 46 897 42 892 q 228 892 137 892 m 302 719 l 302 187 q 319 87 302 111 q 389 71 331 76 q 483 65 448 65 q 690 165 618 65 q 762 461 762 264 q 732 639 762 557 q 634 772 701 720 q 475 825 567 825 l 467 825 q 320 803 336 825 q 302 719 302 780 z "},"":{"ha":1021,"x_min":37,"x_max":986,"o":"m 281 1001 q 270 1027 270 1001 q 294 1086 270 1050 q 407 1149 345 1149 q 530 1107 456 1149 q 654 1066 605 1066 q 711 1101 678 1066 q 747 1135 745 1135 q 757 1108 757 1135 q 734 1048 757 1084 q 623 987 688 987 q 499 1029 574 987 q 376 1070 425 1070 q 337 1053 358 1070 q 301 1018 316 1035 q 281 1001 286 1001 m 774 709 q 761 818 774 781 q 715 844 754 834 q 655 853 677 853 q 649 873 650 853 q 652 898 648 892 q 823 888 798 888 q 914 893 859 888 q 983 898 970 898 q 986 876 986 892 q 981 853 986 853 q 922 843 962 853 q 871 815 883 833 q 856 703 856 779 l 856 189 q 861 -1 856 140 q 831 -7 856 -7 q 788 24 810 -7 l 248 741 l 248 191 q 259 80 248 110 q 309 52 266 64 q 370 41 353 41 q 375 22 374 41 q 373 -4 376 3 q 203 4 210 4 q 113 1 167 4 q 42 -4 60 -3 q 37 19 37 1 q 42 41 37 41 q 104 51 65 41 q 153 81 142 61 q 167 195 167 110 l 167 727 q 152 826 167 800 q 105 844 146 836 q 45 852 64 852 q 39 872 39 852 q 43 898 38 892 q 205 891 186 891 q 327 898 250 891 q 421 753 353 849 q 609 501 490 658 q 772 285 728 345 q 774 340 774 301 l 774 709 z "},"":{"ha":940,"x_min":34,"x_max":903,"o":"m 424 1079 q 455 1049 424 1079 q 486 1010 486 1019 q 480 995 486 1002 q 469 987 475 987 q 334 1042 444 987 q 225 1128 225 1096 q 247 1161 225 1149 q 298 1173 269 1173 q 323 1169 315 1173 q 424 1079 362 1139 m 448 838 q 269 732 331 838 q 208 475 208 625 q 235 281 208 373 q 330 121 263 189 q 490 54 396 54 q 668 162 605 54 q 731 419 731 270 q 704 615 731 524 q 610 772 677 707 q 448 838 544 838 m 161 121 q 98 188 161 121 q 34 445 34 255 q 161 770 34 635 q 468 905 289 905 q 775 770 647 905 q 903 445 903 635 q 775 121 903 255 q 468 -14 647 -14 q 161 121 289 -14 z "},"":{"ha":940,"x_min":34,"x_max":903,"o":"m 457 995 q 454 999 457 995 q 452 1010 452 1002 q 513 1079 452 1019 q 614 1169 575 1139 q 639 1173 623 1173 q 690 1161 669 1173 q 712 1128 712 1149 q 603 1042 712 1096 q 468 987 494 987 q 457 995 463 987 m 448 838 q 269 732 331 838 q 208 475 208 625 q 235 281 208 373 q 330 121 263 189 q 490 54 396 54 q 668 162 605 54 q 731 419 731 270 q 704 615 731 524 q 610 772 677 707 q 448 838 544 838 m 161 121 q 98 188 161 121 q 34 445 34 255 q 161 770 34 635 q 468 905 289 905 q 775 770 647 905 q 903 445 903 635 q 775 121 903 255 q 468 -14 647 -14 q 161 121 289 -14 z "},"":{"ha":940,"x_min":34,"x_max":903,"o":"m 620 987 q 468 1069 594 987 q 382 1017 435 1046 q 316 987 328 987 q 302 1013 302 987 q 334 1041 304 1015 q 395 1096 365 1067 q 452 1160 430 1130 q 468 1172 463 1172 q 484 1160 475 1172 q 540 1097 525 1112 q 585 1056 563 1076 q 619 1025 606 1036 q 633 1013 632 1015 q 620 987 633 987 m 448 838 q 269 732 331 838 q 208 475 208 625 q 235 281 208 373 q 330 121 263 189 q 490 54 396 54 q 668 162 605 54 q 731 419 731 270 q 704 615 731 524 q 610 772 677 707 q 448 838 544 838 m 161 121 q 98 188 161 121 q 34 445 34 255 q 161 770 34 635 q 468 905 289 905 q 775 770 647 905 q 903 445 903 635 q 775 121 903 255 q 468 -14 647 -14 q 161 121 289 -14 z "},"":{"ha":940,"x_min":34,"x_max":903,"o":"m 235 1001 q 224 1027 224 1001 q 248 1086 224 1050 q 361 1149 298 1149 q 484 1107 410 1149 q 608 1066 559 1066 q 665 1101 632 1066 q 701 1135 699 1135 q 711 1108 711 1135 q 688 1048 711 1084 q 576 987 642 987 q 453 1029 528 987 q 330 1070 378 1070 q 291 1053 312 1070 q 255 1018 270 1035 q 235 1001 240 1001 m 448 838 q 269 732 331 838 q 208 475 208 625 q 235 281 208 373 q 330 121 263 189 q 490 54 396 54 q 668 162 605 54 q 731 419 731 270 q 704 615 731 524 q 610 772 677 707 q 448 838 544 838 m 161 121 q 98 188 161 121 q 34 445 34 255 q 161 770 34 635 q 468 905 289 905 q 775 770 647 905 q 903 445 903 635 q 775 121 903 255 q 468 -14 647 -14 q 161 121 289 -14 z "},"":{"ha":940,"x_min":34,"x_max":903,"o":"m 548 1012 q 536 1024 548 1012 q 524 1072 524 1036 q 548 1131 524 1107 q 608 1156 572 1156 q 667 1131 643 1156 q 692 1072 692 1107 q 667 1012 692 1036 q 608 987 643 987 q 548 1012 572 987 m 269 1012 q 256 1024 269 1012 q 244 1072 244 1036 q 269 1131 244 1107 q 328 1156 293 1156 q 388 1131 363 1156 q 412 1072 412 1107 q 388 1012 412 1036 q 328 987 363 987 q 269 1012 293 987 m 448 838 q 269 732 331 838 q 208 475 208 625 q 235 281 208 373 q 330 121 263 189 q 490 54 396 54 q 668 162 605 54 q 731 419 731 270 q 704 615 731 524 q 610 772 677 707 q 448 838 544 838 m 161 121 q 98 188 161 121 q 34 445 34 255 q 161 770 34 635 q 468 905 289 905 q 775 770 647 905 q 903 445 903 635 q 775 121 903 255 q 468 -14 647 -14 q 161 121 289 -14 z "},"":{"ha":568,"x_min":34,"x_max":530,"o":"m 218 331 q 217 339 222 334 l 38 518 q 35 529 33 524 q 58 564 42 544 q 84 586 75 583 q 96 583 91 589 l 279 400 q 288 401 282 396 l 472 583 q 483 585 477 589 q 507 562 490 582 q 530 526 525 541 l 529 518 l 350 339 q 347 331 345 334 l 529 152 l 530 142 q 508 106 525 129 q 487 80 491 83 q 475 81 481 75 l 288 269 q 278 269 282 274 l 90 79 q 83 77 85 77 q 65 90 73 77 q 34 145 30 136 l 218 331 z "},"":{"ha":947,"x_min":35,"x_max":906,"o":"m 450 838 q 271 731 332 838 q 209 475 209 624 q 226 328 209 400 q 275 194 243 256 q 364 93 308 132 q 491 54 420 54 q 626 108 570 54 q 707 243 682 161 q 732 419 732 324 q 716 568 732 496 q 668 702 700 640 q 579 801 636 764 q 450 838 522 838 m 709 911 q 727 904 716 909 q 747 892 738 899 q 754 882 757 886 l 216 -22 q 185 -6 202 -16 q 171 9 168 4 l 709 911 m 252 843 q 302 874 252 843 q 470 905 353 905 q 688 843 587 905 q 847 675 788 781 q 906 445 906 570 q 847 214 906 320 q 688 47 788 109 q 470 -14 587 -14 q 252 47 353 -14 q 94 214 152 109 q 35 445 35 320 q 94 675 35 570 q 252 843 152 781 z "},"":{"ha":994,"x_min":33,"x_max":962,"o":"m 452 1079 q 483 1049 452 1079 q 514 1010 514 1019 q 509 995 514 1002 q 498 987 503 987 q 363 1042 472 987 q 254 1128 254 1096 q 275 1161 254 1149 q 327 1173 297 1173 q 351 1169 343 1173 q 452 1079 391 1139 m 217 890 q 391 898 241 890 q 393 876 393 887 q 388 853 393 853 q 339 843 376 853 q 301 822 302 833 q 290 703 290 781 l 290 391 q 351 168 290 251 q 518 84 411 84 q 686 153 623 84 q 749 380 749 221 l 749 711 q 735 819 749 793 q 687 843 727 831 q 629 854 647 854 q 623 873 624 854 q 627 898 623 892 q 798 888 773 888 q 888 893 831 888 q 958 898 944 898 q 960 876 960 888 q 955 854 960 854 q 897 844 936 854 q 845 817 857 834 q 830 704 830 783 l 830 385 q 804 203 830 279 q 731 82 779 126 q 623 18 684 38 q 486 -3 563 -3 q 229 96 323 -3 q 136 412 136 194 l 136 708 q 125 822 136 795 q 87 843 119 833 q 38 853 54 853 q 33 873 33 853 q 37 898 33 894 q 217 890 209 890 z "},"":{"ha":994,"x_min":33,"x_max":962,"o":"m 486 995 q 483 999 486 995 q 480 1010 480 1002 q 542 1079 480 1019 q 643 1169 604 1139 q 667 1173 651 1173 q 719 1161 697 1173 q 741 1128 741 1149 q 631 1042 741 1096 q 496 987 522 987 q 486 995 491 987 m 217 890 q 391 898 241 890 q 393 876 393 887 q 388 853 393 853 q 339 843 376 853 q 301 822 302 833 q 290 703 290 781 l 290 391 q 351 168 290 251 q 518 84 411 84 q 686 153 623 84 q 749 380 749 221 l 749 711 q 735 819 749 793 q 687 843 727 831 q 629 854 647 854 q 623 873 624 854 q 627 898 623 892 q 798 888 773 888 q 888 893 831 888 q 958 898 944 898 q 960 876 960 888 q 955 854 960 854 q 897 844 936 854 q 845 817 857 834 q 830 704 830 783 l 830 385 q 804 203 830 279 q 731 82 779 126 q 623 18 684 38 q 486 -3 563 -3 q 229 96 323 -3 q 136 412 136 194 l 136 708 q 125 822 136 795 q 87 843 119 833 q 38 853 54 853 q 33 873 33 853 q 37 898 33 894 q 217 890 209 890 z "},"":{"ha":994,"x_min":33,"x_max":962,"o":"m 648 987 q 496 1069 623 987 q 410 1017 464 1046 q 345 987 357 987 q 331 1013 331 987 q 363 1041 332 1015 q 423 1096 393 1067 q 480 1160 458 1130 q 496 1172 491 1172 q 513 1160 503 1172 q 568 1097 553 1112 q 613 1056 591 1076 q 648 1025 635 1036 q 662 1013 661 1015 q 648 987 662 987 m 217 890 q 391 898 241 890 q 393 876 393 887 q 388 853 393 853 q 339 843 376 853 q 301 822 302 833 q 290 703 290 781 l 290 391 q 351 168 290 251 q 518 84 411 84 q 686 153 623 84 q 749 380 749 221 l 749 711 q 735 819 749 793 q 687 843 727 831 q 629 854 647 854 q 623 873 624 854 q 627 898 623 892 q 798 888 773 888 q 888 893 831 888 q 958 898 944 898 q 960 876 960 888 q 955 854 960 854 q 897 844 936 854 q 845 817 857 834 q 830 704 830 783 l 830 385 q 804 203 830 279 q 731 82 779 126 q 623 18 684 38 q 486 -3 563 -3 q 229 96 323 -3 q 136 412 136 194 l 136 708 q 125 822 136 795 q 87 843 119 833 q 38 853 54 853 q 33 873 33 853 q 37 898 33 894 q 217 890 209 890 z "},"":{"ha":994,"x_min":33,"x_max":962,"o":"m 578 1012 q 566 1024 578 1012 q 553 1072 553 1036 q 578 1131 553 1107 q 637 1156 602 1156 q 697 1131 673 1156 q 722 1072 722 1107 q 697 1012 722 1036 q 637 987 673 987 q 578 1012 602 987 m 298 1012 q 286 1024 298 1012 q 274 1072 274 1036 q 298 1131 274 1107 q 358 1156 323 1156 q 418 1131 393 1156 q 442 1072 442 1107 q 418 1012 442 1036 q 358 987 393 987 q 298 1012 323 987 m 217 890 q 391 898 241 890 q 393 876 393 887 q 388 853 393 853 q 339 843 376 853 q 301 822 302 833 q 290 703 290 781 l 290 391 q 351 168 290 251 q 518 84 411 84 q 686 153 623 84 q 749 380 749 221 l 749 711 q 735 819 749 793 q 687 843 727 831 q 629 854 647 854 q 623 873 624 854 q 627 898 623 892 q 798 888 773 888 q 888 893 831 888 q 958 898 944 898 q 960 876 960 888 q 955 854 960 854 q 897 844 936 854 q 845 817 857 834 q 830 704 830 783 l 830 385 q 804 203 830 279 q 731 82 779 126 q 623 18 684 38 q 486 -3 563 -3 q 229 96 323 -3 q 136 412 136 194 l 136 708 q 125 822 136 795 q 87 843 119 833 q 38 853 54 853 q 33 873 33 853 q 37 898 33 894 q 217 890 209 890 z "},"":{"ha":891,"x_min":31,"x_max":879,"o":"m 465 995 q 463 999 465 995 q 460 1010 460 1002 q 522 1079 460 1019 q 623 1169 583 1139 q 647 1173 631 1173 q 699 1161 677 1173 q 720 1128 720 1149 q 611 1042 720 1096 q 476 987 502 987 q 465 995 471 987 m 212 890 q 399 898 236 890 q 401 873 401 892 q 396 854 400 854 q 347 845 374 854 q 320 817 320 836 q 332 781 320 804 l 476 518 q 490 521 483 511 q 602 700 548 608 q 656 817 656 792 q 631 843 656 831 q 566 854 606 854 q 560 873 560 854 q 564 898 560 892 q 727 890 701 890 q 783 891 758 890 q 835 895 808 892 q 876 898 861 897 q 879 876 879 887 q 873 854 879 854 q 817 842 853 854 q 765 810 781 830 q 624 587 726 751 q 522 404 522 422 l 522 193 q 533 71 522 113 q 570 50 536 61 q 616 38 605 38 q 621 16 621 38 q 618 -5 621 3 q 567 -1 601 -4 q 505 3 533 1 q 449 4 476 4 q 349 0 412 4 q 271 -5 286 -4 q 266 16 266 0 q 270 38 266 38 q 320 49 286 38 q 358 71 354 60 q 369 190 369 110 l 369 391 q 360 417 369 397 q 330 477 351 437 q 292 546 308 517 q 239 640 275 575 q 184 736 202 705 q 114 830 145 810 q 74 847 100 840 q 35 854 47 854 q 31 868 31 854 q 33 887 30 882 q 212 890 65 890 z "},"":{"ha":765,"x_min":38,"x_max":705,"o":"m 222 890 q 396 898 247 890 q 400 876 400 887 q 395 853 400 853 q 346 843 382 853 q 307 822 309 833 q 297 708 297 781 q 297 703 297 705 q 296 696 297 700 q 296 692 296 692 q 301 684 296 684 q 317 688 302 684 q 359 696 332 692 q 412 700 385 700 q 486 692 449 700 q 564 665 524 684 q 635 620 604 647 q 686 549 666 593 q 705 453 705 506 q 626 267 705 353 q 422 182 547 182 q 363 192 392 182 q 326 216 335 202 q 321 231 323 220 q 319 250 319 241 q 324 259 320 259 q 400 247 354 247 q 502 300 464 247 q 540 434 540 354 q 391 632 540 632 q 312 624 331 632 q 300 604 304 620 q 296 530 296 587 l 296 190 q 308 71 296 115 q 346 51 311 61 q 393 41 381 41 q 399 16 399 41 q 396 -5 399 3 q 344 -1 378 -4 q 279 3 309 1 q 222 4 250 4 q 123 0 187 4 q 43 -5 58 -4 q 38 16 38 0 q 43 41 38 41 q 94 50 60 41 q 133 71 129 60 q 142 184 142 107 l 142 708 q 133 822 142 795 q 94 843 126 833 q 45 853 61 853 q 39 873 39 853 q 43 898 39 894 q 222 890 214 890 z "},"":{"ha":791,"x_min":50,"x_max":754,"o":"m 665 764 q 646 682 665 718 q 600 625 627 647 q 545 586 572 604 q 499 547 518 568 q 480 500 480 525 q 514 427 480 460 q 606 363 548 395 q 754 182 754 286 q 701 45 754 102 q 571 -11 648 -11 q 463 12 514 -11 q 399 56 411 35 q 448 144 399 144 q 486 129 471 144 q 510 96 502 114 q 534 64 518 79 q 571 49 549 49 q 614 79 598 49 q 629 140 629 109 q 603 205 629 176 q 539 254 576 233 q 464 298 502 275 q 399 358 426 320 q 373 448 373 396 q 389 512 373 484 q 429 560 406 540 q 475 602 452 581 q 514 661 498 624 q 530 745 530 697 q 496 846 530 810 q 399 883 463 883 q 336 863 361 883 q 301 804 312 842 q 287 730 290 765 q 283 644 283 694 l 285 186 q 296 68 285 117 q 328 47 297 58 q 369 37 358 37 q 374 18 373 37 q 372 -5 374 0 q 301 0 357 -4 q 214 4 245 4 q 126 0 182 4 q 54 -5 71 -4 q 50 16 50 -1 q 56 33 50 33 q 99 43 71 33 q 130 62 127 53 q 142 183 142 110 q 144 490 144 370 q 137 500 144 500 l 65 500 q 61 509 61 500 q 68 547 61 522 q 81 571 76 571 l 137 571 q 144 579 144 571 l 144 604 q 222 856 144 770 q 420 941 301 941 q 594 895 524 941 q 665 764 665 849 z "},"":{"ha":613,"x_min":38,"x_max":589,"o":"m 95 871 q 100 884 95 876 q 119 899 104 891 q 155 906 133 906 q 201 895 190 906 q 254 823 224 868 q 305 745 285 779 q 326 708 326 712 q 319 694 326 701 q 307 686 313 686 q 192 762 289 686 q 95 871 95 837 m 260 79 q 323 98 297 79 q 350 141 350 117 l 350 279 q 310 266 340 275 q 263 250 279 256 q 225 231 247 243 q 193 201 203 218 q 183 163 183 183 q 205 99 183 119 q 260 79 227 79 m 321 600 q 448 555 406 600 q 490 404 490 511 l 490 137 q 502 96 490 110 q 534 81 514 81 q 581 99 555 81 q 589 84 589 96 q 581 43 589 57 q 526 9 560 27 q 461 -8 492 -8 q 400 15 430 -8 q 361 65 370 38 q 351 56 359 64 q 326 38 342 49 q 291 16 311 27 q 245 -2 271 5 q 191 -9 218 -9 q 81 28 123 -9 q 38 130 38 65 q 54 191 38 163 q 91 238 69 220 q 149 274 113 256 q 212 300 186 292 q 280 321 239 309 q 338 339 321 334 q 350 361 350 345 l 350 435 q 328 510 350 483 q 270 537 307 537 q 206 512 229 537 q 183 441 183 487 q 163 401 183 414 q 117 388 142 388 q 46 420 66 388 q 135 543 46 486 q 321 600 224 600 z "},"":{"ha":613,"x_min":38,"x_max":1009,"o":"m 1009 974 m 399 906 q 434 899 420 906 q 452 884 448 891 q 456 871 456 876 q 359 762 456 837 q 245 686 263 686 q 232 694 239 686 q 225 708 225 701 q 272 785 225 715 q 353 895 319 856 q 399 906 363 906 m 260 79 q 323 98 297 79 q 350 141 350 117 l 350 279 q 310 266 340 275 q 263 250 279 256 q 225 231 247 243 q 193 201 203 218 q 183 163 183 183 q 205 99 183 119 q 260 79 227 79 m 321 600 q 448 555 406 600 q 490 404 490 511 l 490 137 q 502 96 490 110 q 534 81 514 81 q 581 99 555 81 q 589 84 589 96 q 581 43 589 57 q 526 9 560 27 q 461 -8 492 -8 q 400 15 430 -8 q 361 65 370 38 q 351 56 359 64 q 326 38 342 49 q 291 16 311 27 q 245 -2 271 5 q 191 -9 218 -9 q 81 28 123 -9 q 38 130 38 65 q 54 191 38 163 q 91 238 69 220 q 149 274 113 256 q 212 300 186 292 q 280 321 239 309 q 338 339 321 334 q 350 361 350 345 l 350 435 q 328 510 350 483 q 270 537 307 537 q 206 512 229 537 q 183 441 183 487 q 163 401 183 414 q 117 388 142 388 q 46 420 66 388 q 135 543 46 486 q 321 600 224 600 z "},"":{"ha":613,"x_min":38,"x_max":589,"o":"m 419 674 q 363 707 408 674 q 283 769 317 741 q 205 707 252 741 q 148 674 159 674 q 136 707 136 674 q 217 802 202 783 q 269 876 237 827 q 283 888 275 888 q 297 876 289 888 q 347 804 342 811 q 387 755 368 779 q 418 720 407 732 q 431 707 430 708 q 419 674 431 674 m 260 79 q 323 98 297 79 q 350 141 350 117 l 350 279 q 310 266 340 275 q 263 250 279 256 q 225 231 247 243 q 193 201 203 218 q 183 163 183 183 q 205 99 183 119 q 260 79 227 79 m 321 600 q 448 555 406 600 q 490 404 490 511 l 490 137 q 502 96 490 110 q 534 81 514 81 q 581 99 555 81 q 589 84 589 96 q 581 43 589 57 q 526 9 560 27 q 461 -8 492 -8 q 400 15 430 -8 q 361 65 370 38 q 351 56 359 64 q 326 38 342 49 q 291 16 311 27 q 245 -2 271 5 q 191 -9 218 -9 q 81 28 123 -9 q 38 130 38 65 q 54 191 38 163 q 91 238 69 220 q 149 274 113 256 q 212 300 186 292 q 280 321 239 309 q 338 339 321 334 q 350 361 350 345 l 350 435 q 328 510 350 483 q 270 537 307 537 q 206 512 229 537 q 183 441 183 487 q 163 401 183 414 q 117 388 142 388 q 46 420 66 388 q 135 543 46 486 q 321 600 224 600 z "},"":{"ha":613,"x_min":38,"x_max":589,"o":"m 79 699 q 69 722 69 699 q 91 774 69 743 q 182 829 132 829 q 282 793 221 829 q 384 757 343 757 q 431 787 404 757 q 461 818 458 818 q 468 793 468 818 q 449 739 468 766 q 359 686 411 686 q 258 722 319 686 q 156 758 197 758 q 110 728 137 758 q 79 699 83 699 m 260 79 q 323 98 297 79 q 350 141 350 117 l 350 279 q 310 266 340 275 q 263 250 279 256 q 225 231 247 243 q 193 201 203 218 q 183 163 183 183 q 205 99 183 119 q 260 79 227 79 m 321 600 q 448 555 406 600 q 490 404 490 511 l 490 137 q 502 96 490 110 q 534 81 514 81 q 581 99 555 81 q 589 84 589 96 q 581 43 589 57 q 526 9 560 27 q 461 -8 492 -8 q 400 15 430 -8 q 361 65 370 38 q 351 56 359 64 q 326 38 342 49 q 291 16 311 27 q 245 -2 271 5 q 191 -9 218 -9 q 81 28 123 -9 q 38 130 38 65 q 54 191 38 163 q 91 238 69 220 q 149 274 113 256 q 212 300 186 292 q 280 321 239 309 q 338 339 321 334 q 350 361 350 345 l 350 435 q 328 510 350 483 q 270 537 307 537 q 206 512 229 537 q 183 441 183 487 q 163 401 183 414 q 117 388 142 388 q 46 420 66 388 q 135 543 46 486 q 321 600 224 600 z "},"":{"ha":613,"x_min":38,"x_max":589,"o":"m 358 712 q 347 724 358 712 q 335 768 335 735 q 358 824 335 800 q 414 848 381 848 q 470 824 446 848 q 494 768 494 800 q 470 712 494 735 q 414 689 446 689 q 358 712 381 689 m 84 712 q 73 724 84 712 q 61 768 61 735 q 84 824 61 800 q 140 848 107 848 q 196 824 172 848 q 220 768 220 800 q 196 712 220 735 q 140 689 172 689 q 84 712 107 689 m 260 79 q 323 98 297 79 q 350 141 350 117 l 350 279 q 310 266 340 275 q 263 250 279 256 q 225 231 247 243 q 193 201 203 218 q 183 163 183 183 q 205 99 183 119 q 260 79 227 79 m 321 600 q 448 555 406 600 q 490 404 490 511 l 490 137 q 502 96 490 110 q 534 81 514 81 q 581 99 555 81 q 589 84 589 96 q 581 43 589 57 q 526 9 560 27 q 461 -8 492 -8 q 400 15 430 -8 q 361 65 370 38 q 351 56 359 64 q 326 38 342 49 q 291 16 311 27 q 245 -2 271 5 q 191 -9 218 -9 q 81 28 123 -9 q 38 130 38 65 q 54 191 38 163 q 91 238 69 220 q 149 274 113 256 q 212 300 186 292 q 280 321 239 309 q 338 339 321 334 q 350 361 350 345 l 350 435 q 328 510 350 483 q 270 537 307 537 q 206 512 229 537 q 183 441 183 487 q 163 401 183 414 q 117 388 142 388 q 46 420 66 388 q 135 543 46 486 q 321 600 224 600 z "},"":{"ha":613,"x_min":38,"x_max":589,"o":"m 233 876 q 222 864 233 876 q 210 821 210 853 q 233 765 210 788 q 289 742 256 742 q 344 765 321 742 q 366 821 366 788 q 344 876 366 853 q 289 898 321 898 q 233 876 256 898 m 194 726 q 174 746 194 726 q 155 821 155 766 q 194 914 155 875 q 289 954 233 954 q 383 914 345 954 q 422 821 422 875 q 382 726 422 765 q 289 686 343 686 q 194 726 233 686 m 260 79 q 323 98 297 79 q 350 141 350 117 l 350 279 q 310 266 340 275 q 263 250 279 256 q 225 231 247 243 q 193 201 203 218 q 183 163 183 183 q 205 99 183 119 q 260 79 227 79 m 321 600 q 448 555 406 600 q 490 404 490 511 l 490 137 q 502 96 490 110 q 534 81 514 81 q 581 99 555 81 q 589 84 589 96 q 581 43 589 57 q 526 9 560 27 q 461 -8 492 -8 q 400 15 430 -8 q 361 65 370 38 q 351 56 359 64 q 326 38 342 49 q 291 16 311 27 q 245 -2 271 5 q 191 -9 218 -9 q 81 28 123 -9 q 38 130 38 65 q 54 191 38 163 q 91 238 69 220 q 149 274 113 256 q 212 300 186 292 q 280 321 239 309 q 338 339 321 334 q 350 361 350 345 l 350 435 q 328 510 350 483 q 270 537 307 537 q 206 512 229 537 q 183 441 183 487 q 163 401 183 414 q 117 388 142 388 q 46 420 66 388 q 135 543 46 486 q 321 600 224 600 z "},"":{"ha":898,"x_min":43,"x_max":876,"o":"m 511 277 q 555 139 511 193 q 684 85 598 85 q 768 101 728 85 q 829 132 807 117 q 852 146 850 146 q 856 144 853 146 q 862 136 859 141 q 865 127 865 132 q 860 100 865 110 q 770 26 833 61 q 644 -9 708 -9 q 433 91 511 -9 q 198 -9 345 -9 q 85 32 126 -9 q 43 132 43 73 q 53 180 43 157 q 75 218 62 202 q 113 250 88 235 q 155 273 137 264 q 205 293 172 282 q 254 308 237 304 q 304 320 270 312 q 347 331 339 328 q 359 351 359 335 l 359 442 q 337 511 359 484 q 282 537 315 537 q 217 505 244 537 q 190 425 190 472 q 168 397 190 406 q 117 388 145 388 q 74 401 91 388 q 57 434 57 414 q 138 546 57 491 q 313 601 220 601 q 472 536 430 601 q 643 600 551 600 q 753 575 705 600 q 825 511 800 551 q 863 433 850 472 q 876 355 875 393 q 865 329 876 335 q 825 319 854 323 q 521 286 625 296 q 511 277 511 286 m 361 141 l 361 264 q 221 213 254 241 q 193 156 193 190 q 215 98 193 118 q 270 77 237 77 q 334 97 307 77 q 361 141 361 117 m 732 393 q 708 489 732 441 q 639 537 684 537 q 546 477 581 537 q 511 363 511 416 q 521 355 511 355 q 724 380 694 372 q 732 393 732 382 z "},"":{"ha":590,"x_min":34,"x_max":545,"o":"m 302 -37 q 332 -35 327 -35 q 380 -56 361 -35 q 399 -103 399 -76 q 362 -179 399 -151 q 269 -208 326 -208 q 214 -191 231 -208 q 210 -170 210 -175 q 216 -157 210 -163 q 225 -151 221 -151 q 249 -160 229 -151 q 283 -170 269 -170 q 325 -157 311 -170 q 339 -127 339 -145 q 328 -97 339 -109 q 301 -85 317 -85 q 263 -94 283 -85 q 253 -86 260 -94 q 247 -75 245 -79 q 269 -35 254 -62 q 288 -3 285 -7 l 324 -3 l 302 -37 m 328 600 q 456 576 400 600 q 537 524 513 552 q 522 447 537 477 q 475 416 506 416 q 433 430 449 416 q 401 475 418 444 q 311 537 370 537 q 218 478 252 537 q 183 330 183 419 q 233 149 183 208 q 361 90 283 90 q 400 92 381 90 q 435 98 419 94 q 464 107 452 103 q 489 119 476 111 q 507 131 502 127 q 524 142 513 134 q 534 149 534 149 q 541 141 537 148 q 545 127 545 134 q 537 102 545 113 q 457 28 517 65 q 324 -8 397 -8 q 119 80 203 -8 q 34 296 34 168 q 115 509 34 419 q 328 600 197 600 z "},"":{"ha":591,"x_min":34,"x_max":566,"o":"m 127 871 q 132 884 127 876 q 151 899 137 891 q 187 906 165 906 q 233 895 222 906 q 287 823 256 868 q 338 745 317 779 q 358 708 358 712 q 352 694 358 701 q 339 686 346 686 q 224 762 321 686 q 127 871 127 837 m 305 537 q 247 518 273 537 q 208 472 221 499 q 188 421 194 445 q 182 381 182 397 q 190 372 182 372 l 410 372 q 422 392 422 372 q 390 488 422 439 q 305 537 358 537 m 315 600 q 429 574 378 600 q 507 511 479 549 q 551 431 536 472 q 566 351 566 389 q 555 314 566 321 q 514 307 545 307 l 190 307 q 180 298 180 307 q 198 203 180 250 q 258 123 216 157 q 361 90 301 90 q 400 92 381 90 q 435 98 419 94 q 464 107 452 103 q 489 119 476 111 q 507 131 502 127 q 524 142 513 134 q 534 149 534 149 q 541 141 537 148 q 545 127 545 134 q 537 102 545 113 q 457 28 517 65 q 323 -8 397 -8 q 119 79 205 -8 q 34 292 34 167 q 113 514 34 429 q 315 600 193 600 z "},"":{"ha":591,"x_min":34,"x_max":566,"o":"m 445 906 q 480 899 467 906 q 498 884 494 891 q 502 871 502 876 q 406 762 502 837 q 292 686 309 686 q 278 694 285 686 q 271 708 271 701 q 318 785 271 715 q 399 895 365 856 q 445 906 410 906 m 305 537 q 247 518 273 537 q 208 472 221 499 q 188 421 194 445 q 182 381 182 397 q 190 372 182 372 l 410 372 q 422 392 422 372 q 390 488 422 439 q 305 537 358 537 m 315 600 q 429 574 378 600 q 507 511 479 549 q 551 431 536 472 q 566 351 566 389 q 555 314 566 321 q 514 307 545 307 l 190 307 q 180 298 180 307 q 198 203 180 250 q 258 123 216 157 q 361 90 301 90 q 400 92 381 90 q 435 98 419 94 q 464 107 452 103 q 489 119 476 111 q 507 131 502 127 q 524 142 513 134 q 534 149 534 149 q 541 141 537 148 q 545 127 545 134 q 537 102 545 113 q 457 28 517 65 q 323 -8 397 -8 q 119 79 205 -8 q 34 292 34 167 q 113 514 34 429 q 315 600 193 600 z "},"":{"ha":591,"x_min":34,"x_max":566,"o":"m 435 674 q 379 707 425 674 q 300 769 334 741 q 222 707 269 741 q 164 674 175 674 q 152 707 152 674 q 233 802 218 783 q 285 876 254 827 q 300 888 292 888 q 313 876 305 888 q 363 804 358 811 q 404 755 384 779 q 435 720 423 732 q 448 707 446 708 q 435 674 448 674 m 305 537 q 247 518 273 537 q 208 472 221 499 q 188 421 194 445 q 182 381 182 397 q 190 372 182 372 l 410 372 q 422 392 422 372 q 390 488 422 439 q 305 537 358 537 m 315 600 q 429 574 378 600 q 507 511 479 549 q 551 431 536 472 q 566 351 566 389 q 555 314 566 321 q 514 307 545 307 l 190 307 q 180 298 180 307 q 198 203 180 250 q 258 123 216 157 q 361 90 301 90 q 400 92 381 90 q 435 98 419 94 q 464 107 452 103 q 489 119 476 111 q 507 131 502 127 q 524 142 513 134 q 534 149 534 149 q 541 141 537 148 q 545 127 545 134 q 537 102 545 113 q 457 28 517 65 q 323 -8 397 -8 q 119 79 205 -8 q 34 292 34 167 q 113 514 34 429 q 315 600 193 600 z "},"":{"ha":591,"x_min":34,"x_max":566,"o":"m 374 712 q 363 724 374 712 q 351 768 351 735 q 374 824 351 800 q 430 848 397 848 q 486 824 463 848 q 510 768 510 800 q 486 712 510 735 q 430 689 463 689 q 374 712 397 689 m 100 712 q 89 724 100 712 q 77 768 77 735 q 100 824 77 800 q 156 848 123 848 q 212 824 189 848 q 236 768 236 800 q 212 712 236 735 q 156 689 189 689 q 100 712 123 689 m 305 537 q 247 518 273 537 q 208 472 221 499 q 188 421 194 445 q 182 381 182 397 q 190 372 182 372 l 410 372 q 422 392 422 372 q 390 488 422 439 q 305 537 358 537 m 315 600 q 429 574 378 600 q 507 511 479 549 q 551 431 536 472 q 566 351 566 389 q 555 314 566 321 q 514 307 545 307 l 190 307 q 180 298 180 307 q 198 203 180 250 q 258 123 216 157 q 361 90 301 90 q 400 92 381 90 q 435 98 419 94 q 464 107 452 103 q 489 119 476 111 q 507 131 502 127 q 524 142 513 134 q 534 149 534 149 q 541 141 537 148 q 545 127 545 134 q 537 102 545 113 q 457 28 517 65 q 323 -8 397 -8 q 119 79 205 -8 q 34 292 34 167 q 113 514 34 429 q 315 600 193 600 z "},"":{"ha":407,"x_min":30,"x_max":362,"o":"m 30 871 q 35 884 30 876 q 54 899 39 891 q 90 906 68 906 q 136 895 125 906 q 189 823 159 868 q 240 745 220 779 q 260 708 260 712 q 254 694 260 701 q 241 686 248 686 q 127 762 224 686 q 30 871 30 837 m 275 195 q 285 73 275 111 q 318 52 288 64 q 359 41 349 41 q 364 22 363 41 q 362 -4 365 3 q 311 -1 343 -3 q 254 3 279 1 q 205 4 228 4 q 153 3 179 4 q 96 -1 127 1 q 45 -4 65 -3 q 39 21 39 1 q 45 41 39 41 q 90 52 60 41 q 123 73 121 64 q 134 174 134 121 l 134 392 q 113 479 134 454 q 82 498 102 492 q 49 506 62 505 q 35 510 35 507 q 42 551 35 551 q 262 593 129 560 q 275 597 274 597 q 285 570 285 597 q 280 520 285 562 q 275 453 275 479 l 275 195 z "},"":{"ha":407,"x_min":35,"x_max":362,"o":"m 288 906 q 323 899 309 906 q 340 884 336 891 q 345 871 345 876 q 248 762 345 837 q 134 686 152 686 q 121 694 127 686 q 114 708 114 701 q 161 785 114 715 q 241 895 208 856 q 288 906 252 906 m 275 195 q 285 73 275 111 q 318 52 288 64 q 359 41 349 41 q 364 22 363 41 q 362 -4 365 3 q 311 -1 343 -3 q 254 3 279 1 q 205 4 228 4 q 153 3 179 4 q 96 -1 127 1 q 45 -4 65 -3 q 39 21 39 1 q 45 41 39 41 q 90 52 60 41 q 123 73 121 64 q 134 174 134 121 l 134 392 q 113 479 134 454 q 82 498 102 492 q 49 506 62 505 q 35 510 35 507 q 42 551 35 551 q 262 593 129 560 q 275 597 274 597 q 285 570 285 597 q 280 520 285 562 q 275 453 275 479 l 275 195 z "},"":{"ha":407,"x_min":35,"x_max":362,"o":"m 324 674 q 268 707 313 674 q 189 769 222 741 q 111 707 157 741 q 53 674 64 674 q 41 707 41 674 q 122 802 107 783 q 174 876 142 827 q 189 888 180 888 q 202 876 194 888 q 252 804 247 811 q 292 755 273 779 q 323 720 312 732 q 336 707 335 708 q 324 674 336 674 m 275 195 q 285 73 275 111 q 318 52 288 64 q 359 41 349 41 q 364 22 363 41 q 362 -4 365 3 q 311 -1 343 -3 q 254 3 279 1 q 205 4 228 4 q 153 3 179 4 q 96 -1 127 1 q 45 -4 65 -3 q 39 21 39 1 q 45 41 39 41 q 90 52 60 41 q 123 73 121 64 q 134 174 134 121 l 134 392 q 113 479 134 454 q 82 498 102 492 q 49 506 62 505 q 35 510 35 507 q 42 551 35 551 q 262 593 129 560 q 275 597 274 597 q 285 570 285 597 q 280 520 285 562 q 275 453 275 479 l 275 195 z "},"":{"ha":407,"x_min":-9,"x_max":395,"o":"m 258 823 q 270 835 258 823 q 315 846 282 846 q 371 823 347 846 q 395 766 395 799 q 370 711 395 734 q 313 688 346 688 q 257 711 281 688 q 233 768 233 735 q 258 823 233 800 m 15 823 q 27 835 15 823 q 72 846 39 846 q 128 823 104 846 q 152 766 152 799 q 127 711 152 734 q 71 688 103 688 q 14 711 38 688 q -9 768 -9 735 q 15 823 -9 800 m 275 195 q 285 73 275 111 q 318 52 288 64 q 359 41 349 41 q 364 22 363 41 q 362 -4 365 3 q 311 -1 343 -3 q 254 3 279 1 q 205 4 228 4 q 153 3 179 4 q 96 -1 127 1 q 45 -4 65 -3 q 39 21 39 1 q 45 41 39 41 q 90 52 60 41 q 123 73 121 64 q 134 174 134 121 l 134 392 q 113 479 134 454 q 82 498 102 492 q 49 506 62 505 q 35 510 35 507 q 42 551 35 551 q 262 593 129 560 q 275 597 274 597 q 285 570 285 597 q 280 520 285 562 q 275 453 275 479 l 275 195 z "},"":{"ha":701,"x_min":38,"x_max":640,"o":"m 513 951 q 537 906 545 913 l 178 678 q 155 724 145 716 l 513 951 m 334 600 q 401 593 366 600 q 448 578 435 587 q 104 899 385 799 q 109 924 104 910 q 121 939 113 939 q 260 903 190 930 q 399 827 331 876 q 521 713 468 779 q 607 557 574 648 q 640 361 640 465 q 555 88 640 184 q 349 -8 471 -8 q 130 81 221 -8 q 38 293 38 170 q 75 437 38 366 q 182 553 113 507 q 334 600 251 600 m 327 536 q 227 473 262 536 q 193 317 193 411 q 235 132 193 210 q 350 54 277 54 q 450 117 416 54 q 484 285 484 180 q 465 445 483 406 q 407 512 445 488 q 327 536 369 536 z "},"":{"ha":792,"x_min":39,"x_max":753,"o":"m 197 699 q 187 722 187 699 q 209 774 187 743 q 300 829 250 829 q 400 793 339 829 q 502 757 461 757 q 549 787 522 757 q 579 818 576 818 q 586 793 586 818 q 567 739 586 766 q 477 686 529 686 q 376 722 437 686 q 274 758 315 758 q 228 728 255 758 q 197 699 201 699 m 480 600 q 655 321 655 600 l 655 193 q 665 71 655 110 q 702 51 667 61 q 749 41 736 41 q 753 21 753 41 q 751 -5 754 1 q 680 0 743 -4 q 586 4 617 4 q 496 0 553 4 q 426 -5 438 -4 q 420 20 420 0 q 426 41 420 41 q 471 51 441 41 q 505 71 502 61 q 515 170 515 111 l 515 298 q 485 456 515 411 q 388 500 454 500 q 312 477 345 500 q 279 426 279 453 l 279 193 q 289 71 279 110 q 325 51 292 61 q 369 41 358 41 q 375 21 374 41 q 373 -5 376 1 q 302 0 362 -4 q 210 4 241 4 q 116 0 178 4 q 43 -5 54 -4 q 38 20 38 0 q 43 41 38 41 q 93 51 60 41 q 129 71 126 61 q 138 170 138 111 l 138 391 q 117 477 138 454 q 86 498 106 491 q 54 506 66 505 q 41 510 41 507 q 47 551 41 549 q 266 591 110 556 q 269 593 267 593 q 273 594 271 594 q 277 594 275 594 q 286 585 282 594 q 290 570 290 575 q 285 521 285 532 q 286 514 285 515 q 293 518 288 514 q 376 575 326 551 q 480 600 427 600 z "},"":{"ha":688,"x_min":37,"x_max":651,"o":"m 130 871 q 135 884 130 876 q 154 899 140 891 q 190 906 168 906 q 236 895 225 906 q 290 823 259 868 q 340 745 320 779 q 361 708 361 712 q 355 694 361 701 q 342 686 349 686 q 227 762 324 686 q 130 871 130 837 m 326 536 q 227 474 262 536 q 191 327 191 412 q 235 136 191 217 q 358 54 279 54 q 458 117 422 54 q 494 263 494 179 q 476 394 494 334 q 419 495 458 454 q 326 536 380 536 m 343 600 q 561 511 471 600 q 651 296 651 422 q 562 80 651 170 q 345 -9 473 -9 q 126 80 216 -9 q 37 296 37 170 q 125 511 37 423 q 343 600 214 600 z "},"":{"ha":688,"x_min":37,"x_max":651,"o":"m 496 906 q 532 899 518 906 q 549 884 545 891 q 553 871 553 876 q 457 762 553 837 q 343 686 361 686 q 330 694 336 686 q 323 708 323 701 q 370 785 323 715 q 450 895 416 856 q 496 906 461 906 m 326 536 q 227 474 262 536 q 191 327 191 412 q 235 136 191 217 q 358 54 279 54 q 458 117 422 54 q 494 263 494 179 q 476 394 494 334 q 419 495 458 454 q 326 536 380 536 m 343 600 q 561 511 471 600 q 651 296 651 422 q 562 80 651 170 q 345 -9 473 -9 q 126 80 216 -9 q 37 296 37 170 q 125 511 37 423 q 343 600 214 600 z "},"":{"ha":688,"x_min":37,"x_max":651,"o":"m 484 674 q 428 707 473 674 q 349 769 382 741 q 271 707 317 741 q 213 674 224 674 q 201 707 201 674 q 282 802 267 783 q 334 876 302 827 q 349 888 340 888 q 362 876 354 888 q 412 804 407 811 q 452 755 433 779 q 484 720 472 732 q 496 707 495 708 q 484 674 496 674 m 326 536 q 227 474 262 536 q 191 327 191 412 q 235 136 191 217 q 358 54 279 54 q 458 117 422 54 q 494 263 494 179 q 476 394 494 334 q 419 495 458 454 q 326 536 380 536 m 343 600 q 561 511 471 600 q 651 296 651 422 q 562 80 651 170 q 345 -9 473 -9 q 126 80 216 -9 q 37 296 37 170 q 125 511 37 423 q 343 600 214 600 z "},"":{"ha":688,"x_min":37,"x_max":651,"o":"m 152 699 q 142 722 142 699 q 164 774 142 743 q 255 829 205 829 q 355 793 294 829 q 457 757 416 757 q 505 787 477 757 q 534 818 532 818 q 541 793 541 818 q 522 739 541 766 q 433 686 484 686 q 331 722 392 686 q 229 758 270 758 q 183 728 210 758 q 152 699 156 699 m 326 536 q 227 474 262 536 q 191 327 191 412 q 235 136 191 217 q 358 54 279 54 q 458 117 422 54 q 494 263 494 179 q 476 394 494 334 q 419 495 458 454 q 326 536 380 536 m 343 600 q 561 511 471 600 q 651 296 651 422 q 562 80 651 170 q 345 -9 473 -9 q 126 80 216 -9 q 37 296 37 170 q 125 511 37 423 q 343 600 214 600 z "},"":{"ha":688,"x_min":37,"x_max":651,"o":"m 423 712 q 412 724 423 712 q 400 768 400 735 q 423 824 400 800 q 479 848 446 848 q 535 824 511 848 q 559 768 559 800 q 535 712 559 735 q 479 689 511 689 q 423 712 446 689 m 149 712 q 138 724 149 712 q 126 768 126 735 q 149 824 126 800 q 205 848 172 848 q 261 824 237 848 q 285 768 285 800 q 261 712 285 735 q 205 689 237 689 q 149 712 172 689 m 326 536 q 227 474 262 536 q 191 327 191 412 q 235 136 191 217 q 358 54 279 54 q 458 117 422 54 q 494 263 494 179 q 476 394 494 334 q 419 495 458 454 q 326 536 380 536 m 343 600 q 561 511 471 600 q 651 296 651 422 q 562 80 651 170 q 345 -9 473 -9 q 126 80 216 -9 q 37 296 37 170 q 125 511 37 423 q 343 600 214 600 z "},"":{"ha":711,"x_min":35,"x_max":673,"o":"m 405 544 q 394 532 405 544 q 353 521 382 521 q 302 539 323 521 q 278 589 282 557 l 278 594 q 300 645 278 623 q 353 667 323 667 q 403 650 382 667 q 427 601 423 632 l 427 594 q 405 544 427 567 m 353 0 q 302 20 323 0 q 278 71 282 39 l 278 76 q 300 128 278 104 q 353 152 323 152 q 403 131 382 152 q 427 79 423 110 l 427 76 q 404 24 427 47 q 353 0 381 0 m 35 301 q 40 347 35 315 q 54 380 45 380 l 663 380 q 673 366 673 378 q 662 298 673 342 q 658 292 661 294 q 654 290 655 290 l 651 289 l 43 289 q 38 292 43 289 q 35 301 35 296 z "},"":{"ha":693,"x_min":41,"x_max":654,"o":"m 363 54 q 465 117 431 54 q 498 264 498 180 q 467 434 498 362 l 275 85 q 363 54 311 54 m 334 541 q 230 477 264 541 q 195 328 195 412 q 231 152 195 227 l 423 506 q 334 541 385 541 m 347 604 q 464 581 410 604 l 488 623 q 502 627 494 628 q 545 600 518 627 q 551 586 551 594 l 529 545 q 621 436 587 502 q 654 296 654 370 q 565 80 654 170 q 347 -9 476 -9 q 235 11 288 -9 l 208 -37 q 193 -38 205 -42 q 153 -15 164 -28 l 146 0 l 171 45 q 76 153 111 87 q 41 296 41 220 q 130 513 41 423 q 347 604 218 604 z "},"":{"ha":753,"x_min":23,"x_max":719,"o":"m 209 871 q 214 884 209 876 q 233 899 218 891 q 269 906 247 906 q 315 895 304 906 q 368 823 338 868 q 419 745 399 779 q 439 708 439 712 q 433 694 439 701 q 420 686 427 686 q 306 762 403 686 q 209 871 209 837 m 629 453 l 629 184 q 640 90 629 119 q 656 79 644 83 q 680 73 667 75 q 702 72 692 72 q 713 71 712 72 q 719 58 719 69 q 716 40 719 53 q 708 27 713 27 q 660 22 689 27 q 604 13 631 18 q 552 3 576 8 q 513 -5 528 -3 q 498 -8 498 -8 q 488 14 488 -8 l 488 73 q 484 80 487 80 q 401 19 453 46 q 294 -8 350 -8 q 214 15 248 -8 q 159 75 179 38 q 131 153 140 111 q 122 239 122 195 l 122 391 q 100 477 122 454 q 69 498 88 491 q 37 506 50 505 q 23 510 23 507 q 30 551 23 549 q 141 567 69 553 q 248 591 213 581 q 254 593 250 591 q 259 594 258 594 q 269 585 266 594 q 273 570 273 575 q 260 450 260 477 l 260 288 q 290 136 260 182 q 387 90 320 90 q 460 116 430 90 q 490 167 490 142 l 490 391 q 468 477 490 454 q 437 498 457 491 q 404 506 418 505 q 391 510 391 507 q 399 551 391 549 q 509 567 437 553 q 616 591 581 581 q 622 593 617 591 q 627 594 627 594 q 637 585 633 594 q 640 570 642 575 q 629 453 629 477 z "},"":{"ha":753,"x_min":23,"x_max":719,"o":"m 507 906 q 543 899 529 906 q 560 884 556 891 q 564 871 564 876 q 468 762 564 837 q 354 686 372 686 q 340 694 347 686 q 334 708 334 701 q 380 785 334 715 q 461 895 427 856 q 507 906 472 906 m 629 453 l 629 184 q 640 90 629 119 q 656 79 644 83 q 680 73 667 75 q 702 72 692 72 q 713 71 712 72 q 719 58 719 69 q 716 40 719 53 q 708 27 713 27 q 660 22 689 27 q 604 13 631 18 q 552 3 576 8 q 513 -5 528 -3 q 498 -8 498 -8 q 488 14 488 -8 l 488 73 q 484 80 487 80 q 401 19 453 46 q 294 -8 350 -8 q 214 15 248 -8 q 159 75 179 38 q 131 153 140 111 q 122 239 122 195 l 122 391 q 100 477 122 454 q 69 498 88 491 q 37 506 50 505 q 23 510 23 507 q 30 551 23 549 q 141 567 69 553 q 248 591 213 581 q 254 593 250 591 q 259 594 258 594 q 269 585 266 594 q 273 570 273 575 q 260 450 260 477 l 260 288 q 290 136 260 182 q 387 90 320 90 q 460 116 430 90 q 490 167 490 142 l 490 391 q 468 477 490 454 q 437 498 457 491 q 404 506 418 505 q 391 510 391 507 q 399 551 391 549 q 509 567 437 553 q 616 591 581 581 q 622 593 617 591 q 627 594 627 594 q 637 585 633 594 q 640 570 642 575 q 629 453 629 477 z "},"":{"ha":753,"x_min":23,"x_max":719,"o":"m 506 674 q 450 707 495 674 q 370 769 404 741 q 292 707 339 741 q 235 674 245 674 q 222 707 222 674 q 304 802 289 783 q 355 876 324 827 q 370 888 362 888 q 384 876 376 888 q 434 804 429 811 q 474 755 454 779 q 505 720 494 732 q 518 707 517 708 q 506 674 518 674 m 629 453 l 629 184 q 640 90 629 119 q 656 79 644 83 q 680 73 667 75 q 702 72 692 72 q 713 71 712 72 q 719 58 719 69 q 716 40 719 53 q 708 27 713 27 q 660 22 689 27 q 604 13 631 18 q 552 3 576 8 q 513 -5 528 -3 q 498 -8 498 -8 q 488 14 488 -8 l 488 73 q 484 80 487 80 q 401 19 453 46 q 294 -8 350 -8 q 214 15 248 -8 q 159 75 179 38 q 131 153 140 111 q 122 239 122 195 l 122 391 q 100 477 122 454 q 69 498 88 491 q 37 506 50 505 q 23 510 23 507 q 30 551 23 549 q 141 567 69 553 q 248 591 213 581 q 254 593 250 591 q 259 594 258 594 q 269 585 266 594 q 273 570 273 575 q 260 450 260 477 l 260 288 q 290 136 260 182 q 387 90 320 90 q 460 116 430 90 q 490 167 490 142 l 490 391 q 468 477 490 454 q 437 498 457 491 q 404 506 418 505 q 391 510 391 507 q 399 551 391 549 q 509 567 437 553 q 616 591 581 581 q 622 593 617 591 q 627 594 627 594 q 637 585 633 594 q 640 570 642 575 q 629 453 629 477 z "},"":{"ha":753,"x_min":23,"x_max":719,"o":"m 461 712 q 450 724 461 712 q 438 768 438 735 q 461 824 438 800 q 517 848 484 848 q 573 824 549 848 q 597 768 597 800 q 573 712 597 735 q 517 689 549 689 q 461 712 484 689 m 187 712 q 176 724 187 712 q 164 768 164 735 q 187 824 164 800 q 243 848 210 848 q 299 824 275 848 q 323 768 323 800 q 299 712 323 735 q 243 689 275 689 q 187 712 210 689 m 629 453 l 629 184 q 640 90 629 119 q 656 79 644 83 q 680 73 667 75 q 702 72 692 72 q 713 71 712 72 q 719 58 719 69 q 716 40 719 53 q 708 27 713 27 q 660 22 689 27 q 604 13 631 18 q 552 3 576 8 q 513 -5 528 -3 q 498 -8 498 -8 q 488 14 488 -8 l 488 73 q 484 80 487 80 q 401 19 453 46 q 294 -8 350 -8 q 214 15 248 -8 q 159 75 179 38 q 131 153 140 111 q 122 239 122 195 l 122 391 q 100 477 122 454 q 69 498 88 491 q 37 506 50 505 q 23 510 23 507 q 30 551 23 549 q 141 567 69 553 q 248 591 213 581 q 254 593 250 591 q 259 594 258 594 q 269 585 266 594 q 273 570 273 575 q 260 450 260 477 l 260 288 q 290 136 260 182 q 387 90 320 90 q 460 116 430 90 q 490 167 490 142 l 490 391 q 468 477 490 454 q 437 498 457 491 q 404 506 418 505 q 391 510 391 507 q 399 551 391 549 q 509 567 437 553 q 616 591 581 581 q 622 593 617 591 q 627 594 627 594 q 637 585 633 594 q 640 570 642 575 q 629 453 629 477 z "},"":{"ha":711,"x_min":8,"x_max":694,"o":"m 552 906 q 587 899 574 906 q 605 884 601 891 q 609 871 609 876 q 513 762 609 837 q 399 686 416 686 q 385 694 392 686 q 378 708 378 701 q 425 785 378 715 q 506 895 472 856 q 552 906 517 906 m 182 586 q 267 590 212 586 q 336 594 323 594 q 339 570 339 585 q 334 551 339 551 q 291 541 320 551 q 260 518 262 530 l 260 510 q 387 201 263 488 q 439 334 397 225 q 488 460 481 444 q 496 502 496 483 q 475 535 496 519 q 410 551 453 551 q 404 571 404 551 q 410 594 404 589 q 476 590 426 594 q 559 586 526 586 q 629 590 587 586 q 689 594 670 594 q 694 572 694 586 q 689 551 694 551 q 634 537 670 551 q 587 496 598 524 l 339 -103 q 137 -301 255 -301 q 83 -282 102 -301 q 64 -239 64 -263 q 90 -186 64 -203 q 275 -75 231 -186 q 312 18 308 7 l 114 479 q 98 510 103 503 q 58 541 84 530 q 14 551 31 551 q 8 570 8 551 q 12 594 8 591 q 85 590 20 594 q 182 586 149 586 z "},"":{"ha":732,"x_min":39,"x_max":701,"o":"m 412 598 q 568 553 500 598 q 668 445 636 509 q 700 312 700 381 q 606 81 700 172 q 382 -11 513 -11 q 286 8 343 -11 q 281 -11 281 8 l 281 -103 q 290 -225 281 -187 q 328 -246 293 -236 q 374 -256 362 -256 q 379 -276 378 -256 q 377 -301 380 -296 q 306 -297 369 -301 q 212 -293 243 -293 q 117 -297 179 -293 q 46 -301 56 -301 q 41 -276 41 -296 q 46 -256 41 -256 q 94 -246 61 -256 q 130 -225 127 -236 q 141 -127 141 -186 l 141 730 q 133 825 141 787 q 62 846 126 846 l 52 846 q 43 868 43 846 q 52 890 43 890 q 131 901 92 894 q 195 914 170 907 q 238 928 220 921 q 266 938 256 935 q 277 941 275 941 l 279 941 q 290 934 285 941 q 296 920 296 926 q 281 792 281 867 l 281 559 q 285 552 281 552 q 342 583 305 568 q 412 598 380 598 m 381 526 q 309 500 336 526 q 281 431 281 475 l 281 152 q 317 81 281 107 q 396 54 354 54 q 502 111 458 54 q 545 271 545 168 q 501 454 545 381 q 381 526 457 526 z "},"":{"ha":711,"x_min":8,"x_max":694,"o":"m 480 712 q 469 724 480 712 q 457 768 457 735 q 480 824 457 800 q 536 848 503 848 q 592 824 568 848 q 616 768 616 800 q 592 712 616 735 q 536 689 568 689 q 480 712 503 689 m 206 712 q 195 724 206 712 q 183 768 183 735 q 206 824 183 800 q 262 848 229 848 q 318 824 294 848 q 342 768 342 800 q 318 712 342 735 q 262 689 294 689 q 206 712 229 689 m 182 586 q 267 590 212 586 q 336 594 323 594 q 339 570 339 585 q 334 551 339 551 q 291 541 320 551 q 260 518 262 530 l 260 510 q 387 201 263 488 q 439 334 397 225 q 488 460 481 444 q 496 502 496 483 q 475 535 496 519 q 410 551 453 551 q 404 571 404 551 q 410 594 404 589 q 476 590 426 594 q 559 586 526 586 q 629 590 587 586 q 689 594 670 594 q 694 572 694 586 q 689 551 694 551 q 634 537 670 551 q 587 496 598 524 l 339 -103 q 137 -301 255 -301 q 83 -282 102 -301 q 64 -239 64 -263 q 90 -186 64 -203 q 275 -75 231 -186 q 312 18 308 7 l 114 479 q 98 510 103 503 q 58 541 84 530 q 14 551 31 551 q 8 570 8 551 q 12 594 8 591 q 85 590 20 594 q 182 586 149 586 z "},"":{"ha":998,"x_min":37,"x_max":956,"o":"m 319 998 q 324 1046 319 1024 q 338 1067 330 1067 l 701 1067 q 709 1057 709 1067 q 696 993 708 1031 l 495 993 q 327 993 495 993 q 319 998 319 993 m 530 895 l 815 184 q 856 85 836 130 q 899 53 864 65 q 951 41 935 41 q 956 16 956 41 q 954 -4 956 0 q 783 4 791 4 q 606 -4 773 4 q 601 21 601 1 q 606 41 601 41 q 651 49 623 41 q 685 68 680 57 q 689 85 689 76 q 663 179 689 113 l 616 305 q 606 311 610 311 q 490 313 563 313 q 335 309 416 313 q 327 304 327 309 l 275 178 q 250 90 250 107 q 264 62 250 72 q 307 47 277 54 q 349 41 338 41 q 353 22 353 39 q 350 -4 353 4 q 286 0 343 -4 q 194 4 229 4 q 111 1 159 4 q 42 -4 62 -3 q 37 16 37 1 q 39 41 37 41 q 92 52 56 41 q 137 79 127 64 q 189 184 163 119 l 441 795 q 491 892 472 876 q 514 902 502 902 q 530 895 524 902 m 368 391 q 465 387 415 387 q 576 391 513 387 l 579 396 l 476 667 l 365 396 q 368 391 365 391 z "},"":{"ha":613,"x_min":38,"x_max":589,"o":"m 115 700 q 134 765 118 765 l 444 765 q 450 753 450 765 q 441 697 449 722 q 433 686 441 697 l 123 686 q 118 689 123 686 q 115 700 115 692 m 260 79 q 323 98 297 79 q 350 141 350 117 l 350 279 q 310 266 340 275 q 263 250 279 256 q 225 231 247 243 q 193 201 203 218 q 183 163 183 183 q 205 99 183 119 q 260 79 227 79 m 321 600 q 448 555 406 600 q 490 404 490 511 l 490 137 q 502 96 490 110 q 534 81 514 81 q 581 99 555 81 q 589 84 589 96 q 581 43 589 57 q 526 9 560 27 q 461 -8 492 -8 q 400 15 430 -8 q 361 65 370 38 q 351 56 359 64 q 326 38 342 49 q 291 16 311 27 q 245 -2 271 5 q 191 -9 218 -9 q 81 28 123 -9 q 38 130 38 65 q 54 191 38 163 q 91 238 69 220 q 149 274 113 256 q 212 300 186 292 q 280 321 239 309 q 338 339 321 334 q 350 361 350 345 l 350 435 q 328 510 350 483 q 270 537 307 537 q 206 512 229 537 q 183 441 183 487 q 163 401 183 414 q 117 388 142 388 q 46 420 66 388 q 135 543 46 486 q 321 600 224 600 z "},"":{"ha":998,"x_min":37,"x_max":956,"o":"m 445 1081 q 461 1071 445 1081 q 514 1061 477 1061 q 583 1081 551 1061 q 629 1131 616 1101 q 635 1134 631 1134 q 653 1122 642 1133 q 663 1107 665 1112 q 661 1097 663 1103 q 601 1018 640 1048 q 514 987 562 987 q 427 1017 467 987 q 368 1097 387 1047 q 365 1107 365 1103 q 375 1122 363 1112 q 393 1134 387 1133 q 399 1131 397 1134 q 445 1081 412 1101 m 530 895 l 815 184 q 856 85 836 130 q 899 53 864 65 q 951 41 935 41 q 956 16 956 41 q 954 -4 956 0 q 783 4 791 4 q 606 -4 773 4 q 601 21 601 1 q 606 41 601 41 q 651 49 623 41 q 685 68 680 57 q 689 85 689 76 q 663 179 689 113 l 616 305 q 606 311 610 311 q 490 313 563 313 q 335 309 416 313 q 327 304 327 309 l 275 178 q 250 90 250 107 q 264 62 250 72 q 307 47 277 54 q 349 41 338 41 q 353 22 353 39 q 350 -4 353 4 q 286 0 343 -4 q 194 4 229 4 q 111 1 159 4 q 42 -4 62 -3 q 37 16 37 1 q 39 41 37 41 q 92 52 56 41 q 137 79 127 64 q 189 184 163 119 l 441 795 q 491 892 472 876 q 514 902 502 902 q 530 895 524 902 m 368 391 q 465 387 415 387 q 576 391 513 387 l 579 396 l 476 667 l 365 396 q 368 391 365 391 z "},"":{"ha":613,"x_min":38,"x_max":589,"o":"m 206 783 q 223 770 206 783 q 278 758 240 758 q 347 783 316 758 q 388 846 378 807 q 393 852 388 852 q 413 842 400 852 q 426 827 426 833 q 425 822 426 826 q 425 817 425 818 q 372 724 412 761 q 278 686 331 686 q 181 724 224 686 q 126 818 138 761 q 125 823 126 819 q 125 827 125 826 q 138 842 125 833 q 157 852 151 852 q 163 846 163 852 q 206 783 172 807 m 260 79 q 323 98 297 79 q 350 141 350 117 l 350 279 q 310 266 340 275 q 263 250 279 256 q 225 231 247 243 q 193 201 203 218 q 183 163 183 183 q 205 99 183 119 q 260 79 227 79 m 321 600 q 448 555 406 600 q 490 404 490 511 l 490 137 q 502 96 490 110 q 534 81 514 81 q 581 99 555 81 q 589 84 589 96 q 581 43 589 57 q 526 9 560 27 q 461 -8 492 -8 q 400 15 430 -8 q 361 65 370 38 q 351 56 359 64 q 326 38 342 49 q 291 16 311 27 q 245 -2 271 5 q 191 -9 218 -9 q 81 28 123 -9 q 38 130 38 65 q 54 191 38 163 q 91 238 69 220 q 149 274 113 256 q 212 300 186 292 q 280 321 239 309 q 338 339 321 334 q 350 361 350 345 l 350 435 q 328 510 350 483 q 270 537 307 537 q 206 512 229 537 q 183 441 183 487 q 163 401 183 414 q 117 388 142 388 q 46 420 66 388 q 135 543 46 486 q 321 600 224 600 z "},"":{"ha":939,"x_min":11,"x_max":930,"o":"m 342 391 q 439 387 388 387 q 551 391 488 387 q 553 396 551 391 l 450 667 l 339 396 q 342 391 339 391 m 928 -4 q 892 -3 916 -4 q 851 0 868 -1 q 833 1 834 1 q 739 -74 780 -30 q 697 -157 697 -118 q 711 -193 697 -178 q 753 -208 726 -208 q 791 -201 772 -208 q 823 -187 811 -194 q 848 -171 834 -180 q 863 -160 861 -161 q 868 -182 868 -160 q 861 -208 868 -198 q 794 -270 837 -240 q 707 -300 751 -300 q 633 -269 663 -300 q 604 -195 604 -237 q 657 -85 604 -144 q 773 4 711 -26 l 757 4 q 581 -4 747 4 q 575 21 575 1 q 581 41 575 41 q 625 49 597 41 q 659 68 654 57 q 663 85 663 76 q 637 179 663 113 l 590 305 q 581 311 585 311 q 464 313 537 313 q 309 309 391 313 q 301 304 301 309 l 250 178 q 224 90 224 107 q 239 62 224 72 q 281 47 251 54 q 323 41 312 41 q 327 22 327 39 q 324 -4 327 4 q 260 0 317 -4 q 168 4 203 4 q 85 1 133 4 q 16 -4 37 -3 q 11 16 11 1 q 14 41 11 41 q 66 52 30 41 q 111 79 102 64 q 163 184 137 119 l 415 795 q 465 892 446 876 q 488 902 476 902 q 505 895 498 902 l 789 184 q 830 85 810 130 q 873 53 838 65 q 925 41 909 41 q 930 16 930 41 q 928 -4 930 0 z "},"":{"ha":602,"x_min":22,"x_max":575,"o":"m 296 600 q 430 557 385 600 q 475 410 475 514 l 475 137 q 519 79 475 79 q 541 83 530 79 q 557 92 551 87 l 564 96 q 571 92 567 96 q 575 87 575 88 q 566 42 575 61 l 513 8 q 358 -157 358 -90 q 372 -193 358 -178 q 412 -208 385 -208 q 451 -201 431 -208 q 482 -187 471 -194 q 507 -171 494 -180 q 522 -160 521 -161 q 529 -180 529 -160 q 521 -208 529 -197 q 454 -269 496 -240 q 366 -298 411 -298 q 293 -267 323 -298 q 263 -194 263 -236 q 310 -92 263 -149 q 410 -1 357 -35 q 347 65 366 15 q 336 57 346 65 q 312 38 327 49 q 277 16 297 27 q 231 -2 258 5 q 176 -9 203 -9 q 62 31 103 -9 q 22 138 22 72 q 37 196 22 170 q 75 240 53 222 q 134 274 98 258 q 197 299 170 290 q 265 321 224 308 q 323 339 307 334 q 336 361 336 343 l 336 442 q 314 511 336 484 q 259 537 292 537 q 193 509 221 537 q 165 434 165 481 q 143 404 165 415 q 94 393 121 393 q 50 406 66 393 q 33 439 33 419 q 117 547 33 495 q 296 600 201 600 m 336 141 l 336 279 q 296 266 326 275 q 249 250 266 256 q 210 231 232 243 q 178 201 189 218 q 167 163 167 184 q 189 100 167 121 q 244 79 210 79 q 309 98 281 79 q 336 141 336 117 z "},"":{"ha":867,"x_min":34,"x_max":831,"o":"m 445 995 q 442 999 445 995 q 439 1010 439 1002 q 501 1079 439 1019 q 602 1169 563 1139 q 627 1173 610 1173 q 678 1161 656 1173 q 700 1128 700 1149 q 591 1042 700 1096 q 456 987 481 987 q 445 995 450 987 m 831 247 q 811 142 831 229 q 780 49 791 54 q 465 -8 662 -8 q 160 123 286 -8 q 34 437 34 255 q 163 767 34 629 q 480 905 292 905 q 800 868 633 905 q 808 779 804 867 q 812 670 812 692 q 780 650 812 650 q 761 655 772 650 q 741 705 755 680 q 699 764 727 731 q 614 817 670 796 q 486 838 559 838 q 279 728 353 838 q 205 465 205 618 q 288 176 205 294 q 524 57 372 57 q 715 133 644 57 q 747 184 732 152 q 768 237 761 216 q 779 259 776 259 q 831 247 826 259 z "},"":{"ha":590,"x_min":34,"x_max":545,"o":"m 438 906 q 473 899 460 906 q 491 884 487 891 q 495 871 495 876 q 399 762 495 837 q 285 686 302 686 q 271 694 278 686 q 264 708 264 701 q 311 785 264 715 q 392 895 358 856 q 438 906 403 906 m 328 600 q 456 576 400 600 q 537 524 513 552 q 522 447 537 477 q 475 416 506 416 q 433 430 449 416 q 401 475 418 444 q 311 537 370 537 q 218 478 252 537 q 183 330 183 419 q 233 149 183 208 q 361 90 283 90 q 400 92 381 90 q 435 98 419 94 q 464 107 452 103 q 489 119 476 111 q 507 131 502 127 q 524 142 513 134 q 534 149 534 149 q 541 141 537 148 q 545 127 545 134 q 537 102 545 113 q 457 28 517 65 q 324 -8 397 -8 q 119 80 203 -8 q 34 296 34 168 q 115 509 34 419 q 328 600 197 600 z "},"":{"ha":867,"x_min":34,"x_max":831,"o":"m 637 987 q 486 1069 612 987 q 399 1017 453 1046 q 334 987 346 987 q 320 1013 320 987 q 352 1041 321 1015 q 412 1096 382 1067 q 469 1160 448 1130 q 486 1172 480 1172 q 502 1160 492 1172 q 557 1097 543 1112 q 602 1056 581 1076 q 637 1025 624 1036 q 651 1013 650 1015 q 637 987 651 987 m 831 247 q 811 142 831 229 q 780 49 791 54 q 465 -8 662 -8 q 160 123 286 -8 q 34 437 34 255 q 163 767 34 629 q 480 905 292 905 q 800 868 633 905 q 808 779 804 867 q 812 670 812 692 q 780 650 812 650 q 761 655 772 650 q 741 705 755 680 q 699 764 727 731 q 614 817 670 796 q 486 838 559 838 q 279 728 353 838 q 205 465 205 618 q 288 176 205 294 q 524 57 372 57 q 715 133 644 57 q 747 184 732 152 q 768 237 761 216 q 779 259 776 259 q 831 247 826 259 z "},"":{"ha":590,"x_min":34,"x_max":545,"o":"m 445 674 q 389 707 434 674 q 309 769 343 741 q 231 707 278 741 q 174 674 184 674 q 161 707 161 674 q 243 802 228 783 q 294 876 263 827 q 309 888 301 888 q 323 876 315 888 q 373 804 368 811 q 413 755 393 779 q 444 720 433 732 q 457 707 456 708 q 445 674 457 674 m 328 600 q 456 576 400 600 q 537 524 513 552 q 522 447 537 477 q 475 416 506 416 q 433 430 449 416 q 401 475 418 444 q 311 537 370 537 q 218 478 252 537 q 183 330 183 419 q 233 149 183 208 q 361 90 283 90 q 400 92 381 90 q 435 98 419 94 q 464 107 452 103 q 489 119 476 111 q 507 131 502 127 q 524 142 513 134 q 534 149 534 149 q 541 141 537 148 q 545 127 545 134 q 537 102 545 113 q 457 28 517 65 q 324 -8 397 -8 q 119 80 203 -8 q 34 296 34 168 q 115 509 34 419 q 328 600 197 600 z "},"":{"ha":867,"x_min":34,"x_max":831,"o":"m 420 1012 q 408 1024 420 1012 q 396 1072 396 1036 q 420 1131 396 1107 q 480 1156 445 1156 q 540 1131 515 1156 q 564 1072 564 1107 q 540 1012 564 1036 q 480 987 515 987 q 420 1012 445 987 m 831 247 q 811 142 831 229 q 780 49 791 54 q 465 -8 662 -8 q 160 123 286 -8 q 34 437 34 255 q 163 767 34 629 q 480 905 292 905 q 800 868 633 905 q 808 779 804 867 q 812 670 812 692 q 780 650 812 650 q 761 655 772 650 q 741 705 755 680 q 699 764 727 731 q 614 817 670 796 q 486 838 559 838 q 279 728 353 838 q 205 465 205 618 q 288 176 205 294 q 524 57 372 57 q 715 133 644 57 q 747 184 732 152 q 768 237 761 216 q 779 259 776 259 q 831 247 826 259 z "},"":{"ha":590,"x_min":34,"x_max":545,"o":"m 263 741 q 251 753 263 741 q 239 800 239 765 q 263 860 239 836 q 323 884 288 884 q 382 860 358 884 q 407 800 407 836 q 382 741 407 765 q 323 716 358 716 q 263 741 288 716 m 328 600 q 456 576 400 600 q 537 524 513 552 q 522 447 537 477 q 475 416 506 416 q 433 430 449 416 q 401 475 418 444 q 311 537 370 537 q 218 478 252 537 q 183 330 183 419 q 233 149 183 208 q 361 90 283 90 q 400 92 381 90 q 435 98 419 94 q 464 107 452 103 q 489 119 476 111 q 507 131 502 127 q 524 142 513 134 q 534 149 534 149 q 541 141 537 148 q 545 127 545 134 q 537 102 545 113 q 457 28 517 65 q 324 -8 397 -8 q 119 80 203 -8 q 34 296 34 168 q 115 509 34 419 q 328 600 197 600 z "},"":{"ha":867,"x_min":34,"x_max":831,"o":"m 643 1172 q 656 1145 656 1172 q 642 1133 655 1143 q 608 1102 629 1122 q 563 1061 586 1082 q 507 998 548 1046 q 491 987 499 987 q 475 998 484 987 q 418 1062 453 1028 q 357 1117 388 1090 q 326 1145 327 1143 q 339 1172 326 1172 q 405 1143 351 1172 q 491 1090 458 1114 q 643 1172 617 1172 m 831 247 q 811 142 831 229 q 780 49 791 54 q 465 -8 662 -8 q 160 123 286 -8 q 34 437 34 255 q 163 767 34 629 q 480 905 292 905 q 800 868 633 905 q 808 779 804 867 q 812 670 812 692 q 780 650 812 650 q 761 655 772 650 q 741 705 755 680 q 699 764 727 731 q 614 817 670 796 q 486 838 559 838 q 279 728 353 838 q 205 465 205 618 q 288 176 205 294 q 524 57 372 57 q 715 133 644 57 q 747 184 732 152 q 768 237 761 216 q 779 259 776 259 q 831 247 826 259 z "},"":{"ha":590,"x_min":34,"x_max":545,"o":"m 296 806 q 375 867 330 834 q 431 901 420 901 q 444 869 444 901 q 431 856 442 868 q 399 821 419 844 q 359 772 380 798 q 341 747 350 760 q 323 720 332 734 q 309 699 315 705 q 296 686 301 686 q 281 699 288 686 q 229 773 250 747 q 148 869 203 806 q 160 901 148 901 q 218 867 171 901 q 296 806 264 834 m 328 600 q 456 576 400 600 q 537 524 513 552 q 522 447 537 477 q 475 416 506 416 q 433 430 449 416 q 401 475 418 444 q 311 537 370 537 q 218 478 252 537 q 183 330 183 419 q 233 149 183 208 q 361 90 283 90 q 400 92 381 90 q 435 98 419 94 q 464 107 452 103 q 489 119 476 111 q 507 131 502 127 q 524 142 513 134 q 534 149 534 149 q 541 141 537 148 q 545 127 545 134 q 537 102 545 113 q 457 28 517 65 q 324 -8 397 -8 q 119 80 203 -8 q 34 296 34 168 q 115 509 34 419 q 328 600 197 600 z "},"":{"ha":960,"x_min":34,"x_max":924,"o":"m 566 1172 q 579 1145 579 1172 q 565 1133 578 1143 q 530 1102 552 1122 q 486 1061 509 1082 q 430 998 471 1046 q 414 987 422 987 q 397 998 407 987 q 340 1062 376 1028 q 280 1117 311 1090 q 248 1145 250 1143 q 262 1172 248 1172 q 328 1143 274 1172 q 414 1090 381 1114 q 566 1172 540 1172 m 220 892 q 454 892 220 892 q 800 762 675 892 q 924 456 924 632 q 798 128 924 260 q 453 -4 673 -4 q 341 -1 425 -4 q 221 1 258 1 l 41 -4 q 37 18 37 0 q 41 41 37 41 q 92 50 58 41 q 132 71 126 58 q 141 194 141 99 l 141 707 q 132 818 141 788 q 94 842 127 833 q 39 852 60 852 q 34 872 34 852 q 39 897 34 891 q 220 892 129 892 m 294 719 l 294 187 q 309 87 294 111 q 475 65 331 65 q 750 461 750 65 q 676 719 750 613 q 465 825 602 825 l 458 825 q 312 803 328 825 q 294 719 294 779 z "},"":{"ha":705,"x_min":28,"x_max":807,"o":"m 682 873 q 788 943 682 943 q 807 852 807 916 q 770 742 807 800 q 697 662 734 684 l 690 662 q 675 671 685 662 q 666 686 666 681 q 680 701 666 688 q 707 736 693 713 q 720 784 720 760 q 701 821 720 796 q 682 873 682 846 m 330 537 q 221 476 258 537 q 184 312 184 415 q 227 132 184 197 q 345 68 269 68 q 419 92 391 68 q 448 152 448 115 l 448 437 q 443 465 448 450 q 427 497 438 480 q 390 526 415 514 q 330 537 365 537 m 342 602 q 441 583 400 602 q 448 605 448 583 l 448 732 q 439 825 448 784 q 369 846 433 846 l 358 846 q 350 868 350 846 q 358 890 350 890 q 437 901 399 894 q 501 914 476 907 q 545 928 526 921 q 572 938 563 935 q 583 941 582 941 l 586 941 q 597 934 591 941 q 602 920 602 926 q 589 792 589 867 l 589 195 q 597 95 589 133 q 610 80 598 85 q 636 73 623 75 q 662 71 650 72 q 675 71 674 71 q 678 54 678 68 q 670 27 678 27 q 622 22 651 26 q 565 13 593 18 q 512 3 537 8 q 471 -5 487 -1 q 456 -8 456 -8 q 448 15 448 -8 l 448 38 q 446 43 448 42 q 442 43 444 45 q 301 -7 377 -7 q 110 74 191 -7 q 28 277 28 155 q 121 507 28 411 q 342 602 214 602 z "},"":{"ha":974,"x_min":42,"x_max":932,"o":"m 73 475 l 543 475 q 551 458 551 475 q 543 418 551 435 l 73 418 q 65 437 65 418 q 73 475 65 464 m 228 892 q 357 892 277 892 q 464 892 437 892 q 668 855 576 892 q 816 755 760 818 q 901 616 872 693 q 930 456 930 538 q 900 278 930 361 q 811 132 869 195 q 663 33 753 69 q 461 -4 572 -4 q 359 -1 439 -4 q 229 1 279 3 q 146 0 191 1 q 75 -3 102 -1 l 49 -5 q 43 16 43 0 q 49 41 43 41 q 100 50 65 41 q 140 71 134 58 q 149 194 149 95 l 149 707 q 140 818 149 784 q 100 840 136 829 q 47 852 64 852 q 42 872 42 852 q 46 897 42 892 q 228 892 137 892 m 302 719 l 302 187 q 319 87 302 111 q 389 71 331 76 q 483 65 448 65 q 690 165 618 65 q 762 461 762 264 q 732 639 762 557 q 634 772 701 720 q 475 825 567 825 l 467 825 q 320 803 336 825 q 302 719 302 780 z "},"":{"ha":726,"x_min":57,"x_max":708,"o":"m 472 172 l 472 434 q 456 498 472 479 q 350 540 423 540 q 252 476 293 540 q 210 320 210 412 q 254 148 210 217 q 370 79 297 79 q 445 103 418 79 q 472 172 472 127 m 613 195 q 621 95 613 133 q 637 80 624 85 q 663 73 650 75 q 689 71 677 72 l 703 71 q 708 60 708 68 q 700 27 708 27 q 650 22 680 26 q 593 13 621 18 q 538 3 564 8 q 496 -5 513 -1 l 480 -8 q 472 15 472 -8 l 472 49 q 471 56 472 54 q 467 54 469 57 q 320 -8 393 -8 q 134 71 212 -8 q 57 273 57 151 q 147 505 57 407 q 362 605 237 604 q 467 581 420 605 q 472 605 472 581 l 472 694 q 464 700 472 700 l 285 700 q 277 713 277 700 q 288 770 277 738 l 296 777 l 465 777 q 469 784 469 777 q 465 830 469 814 q 395 852 458 852 l 382 852 q 374 871 374 852 q 382 890 374 890 q 463 901 425 894 q 526 914 500 907 q 569 927 551 921 q 597 937 587 933 l 608 941 l 610 941 q 622 933 616 941 q 629 920 628 925 q 613 808 614 879 l 613 784 q 623 777 613 777 l 696 777 q 707 769 707 777 q 707 765 707 768 q 694 708 704 734 q 691 702 693 704 q 686 700 689 700 l 685 700 l 623 700 q 613 693 613 700 l 613 195 z "},"":{"ha":792,"x_min":34,"x_max":758,"o":"m 186 998 q 191 1046 186 1024 q 205 1067 197 1067 l 568 1067 q 576 1057 576 1067 q 563 993 575 1031 l 362 993 q 194 993 362 993 q 186 998 186 993 m 220 891 q 430 896 279 891 q 658 901 581 901 q 680 787 663 860 q 697 708 696 715 q 669 701 690 701 q 650 711 654 701 q 476 831 605 831 l 406 831 q 302 814 305 831 q 294 704 294 776 l 294 491 q 354 483 294 483 l 425 483 q 430 483 426 483 q 524 490 509 483 q 547 537 538 496 q 555 571 551 557 q 576 581 556 581 q 602 574 595 581 l 602 317 q 576 312 597 312 q 555 323 559 312 q 538 377 545 359 q 528 396 530 395 q 517 404 526 397 q 392 415 499 415 q 294 404 294 415 l 294 194 q 307 84 294 119 q 399 66 313 66 l 449 66 q 610 95 555 66 q 659 142 632 106 q 701 225 686 179 q 720 233 703 233 q 758 225 750 233 q 739 170 754 213 q 715 104 723 126 q 697 49 707 81 q 685 -4 688 16 q 460 0 631 -4 q 221 1 290 4 l 41 -4 q 37 18 37 0 q 41 41 37 41 q 92 50 58 41 q 132 71 126 58 q 141 194 141 99 l 141 707 q 132 818 141 788 q 94 842 127 833 q 39 852 60 852 q 34 872 34 852 q 39 897 34 891 q 220 891 129 891 z "},"":{"ha":591,"x_min":34,"x_max":566,"o":"m 133 700 q 152 765 136 765 l 461 765 q 468 753 468 765 q 458 697 467 722 q 450 686 458 697 l 141 686 q 136 689 141 686 q 133 700 133 692 m 305 537 q 247 518 273 537 q 208 472 221 499 q 188 421 194 445 q 182 381 182 397 q 190 372 182 372 l 410 372 q 422 392 422 372 q 390 488 422 439 q 305 537 358 537 m 315 600 q 429 574 378 600 q 507 511 479 549 q 551 431 536 472 q 566 351 566 389 q 555 314 566 321 q 514 307 545 307 l 190 307 q 180 298 180 307 q 198 203 180 250 q 258 123 216 157 q 361 90 301 90 q 400 92 381 90 q 435 98 419 94 q 464 107 452 103 q 489 119 476 111 q 507 131 502 127 q 524 142 513 134 q 534 149 534 149 q 541 141 537 148 q 545 127 545 134 q 537 102 545 113 q 457 28 517 65 q 323 -8 397 -8 q 119 79 205 -8 q 34 292 34 167 q 113 514 34 429 q 315 600 193 600 z "},"":{"ha":792,"x_min":34,"x_max":758,"o":"m 312 1081 q 328 1071 312 1081 q 381 1061 345 1061 q 450 1081 418 1061 q 496 1131 483 1101 q 502 1134 498 1134 q 520 1122 509 1133 q 530 1107 532 1112 q 528 1097 530 1103 q 468 1018 507 1048 q 381 987 429 987 q 294 1017 334 987 q 235 1097 254 1047 q 232 1107 232 1103 q 242 1122 231 1112 q 260 1134 254 1133 q 266 1131 264 1134 q 312 1081 279 1101 m 220 891 q 430 896 279 891 q 658 901 581 901 q 680 787 663 860 q 697 708 696 715 q 669 701 690 701 q 650 711 654 701 q 476 831 605 831 l 406 831 q 302 814 305 831 q 294 704 294 776 l 294 491 q 354 483 294 483 l 425 483 q 430 483 426 483 q 524 490 509 483 q 547 537 538 496 q 555 571 551 557 q 576 581 556 581 q 602 574 595 581 l 602 317 q 576 312 597 312 q 555 323 559 312 q 538 377 545 359 q 528 396 530 395 q 517 404 526 397 q 392 415 499 415 q 294 404 294 415 l 294 194 q 307 84 294 119 q 399 66 313 66 l 449 66 q 610 95 555 66 q 659 142 632 106 q 701 225 686 179 q 720 233 703 233 q 758 225 750 233 q 739 170 754 213 q 715 104 723 126 q 697 49 707 81 q 685 -4 688 16 q 460 0 631 -4 q 221 1 290 4 l 41 -4 q 37 18 37 0 q 41 41 37 41 q 92 50 58 41 q 132 71 126 58 q 141 194 141 99 l 141 707 q 132 818 141 788 q 94 842 127 833 q 39 852 60 852 q 34 872 34 852 q 39 897 34 891 q 220 891 129 891 z "},"":{"ha":591,"x_min":34,"x_max":566,"o":"m 232 783 q 249 770 232 783 q 304 758 266 758 q 373 783 342 758 q 414 846 404 807 q 419 852 414 852 q 439 842 426 852 q 452 827 452 833 q 451 822 452 826 q 450 817 450 818 q 397 724 438 761 q 304 686 357 686 q 207 724 250 686 q 152 818 164 761 q 151 823 152 819 q 151 827 151 826 q 163 842 151 833 q 183 852 176 852 q 189 846 189 852 q 232 783 198 807 m 305 537 q 247 518 273 537 q 208 472 221 499 q 188 421 194 445 q 182 381 182 397 q 190 372 182 372 l 410 372 q 422 392 422 372 q 390 488 422 439 q 305 537 358 537 m 315 600 q 429 574 378 600 q 507 511 479 549 q 551 431 536 472 q 566 351 566 389 q 555 314 566 321 q 514 307 545 307 l 190 307 q 180 298 180 307 q 198 203 180 250 q 258 123 216 157 q 361 90 301 90 q 400 92 381 90 q 435 98 419 94 q 464 107 452 103 q 489 119 476 111 q 507 131 502 127 q 524 142 513 134 q 534 149 534 149 q 541 141 537 148 q 545 127 545 134 q 537 102 545 113 q 457 28 517 65 q 323 -8 397 -8 q 119 79 205 -8 q 34 292 34 167 q 113 514 34 429 q 315 600 193 600 z "},"":{"ha":792,"x_min":34,"x_max":758,"o":"m 338 1012 q 326 1024 338 1012 q 313 1072 313 1036 q 338 1131 313 1107 q 397 1156 362 1156 q 457 1131 433 1156 q 481 1072 481 1107 q 457 1012 481 1036 q 397 987 433 987 q 338 1012 362 987 m 220 891 q 430 896 279 891 q 658 901 581 901 q 680 787 663 860 q 697 708 696 715 q 669 701 690 701 q 650 711 654 701 q 476 831 605 831 l 406 831 q 302 814 305 831 q 294 704 294 776 l 294 491 q 354 483 294 483 l 425 483 q 430 483 426 483 q 524 490 509 483 q 547 537 538 496 q 555 571 551 557 q 576 581 556 581 q 602 574 595 581 l 602 317 q 576 312 597 312 q 555 323 559 312 q 538 377 545 359 q 528 396 530 395 q 517 404 526 397 q 392 415 499 415 q 294 404 294 415 l 294 194 q 307 84 294 119 q 399 66 313 66 l 449 66 q 610 95 555 66 q 659 142 632 106 q 701 225 686 179 q 720 233 703 233 q 758 225 750 233 q 739 170 754 213 q 715 104 723 126 q 697 49 707 81 q 685 -4 688 16 q 460 0 631 -4 q 221 1 290 4 l 41 -4 q 37 18 37 0 q 41 41 37 41 q 92 50 58 41 q 132 71 126 58 q 141 194 141 99 l 141 707 q 132 818 141 788 q 94 842 127 833 q 39 852 60 852 q 34 872 34 852 q 39 897 34 891 q 220 891 129 891 z "},"":{"ha":591,"x_min":34,"x_max":566,"o":"m 250 741 q 237 753 250 741 q 225 800 225 765 q 250 860 225 836 q 309 884 274 884 q 369 860 345 884 q 393 800 393 836 q 369 741 393 765 q 309 716 345 716 q 250 741 274 716 m 305 537 q 247 518 273 537 q 208 472 221 499 q 188 421 194 445 q 182 381 182 397 q 190 372 182 372 l 410 372 q 422 392 422 372 q 390 488 422 439 q 305 537 358 537 m 315 600 q 429 574 378 600 q 507 511 479 549 q 551 431 536 472 q 566 351 566 389 q 555 314 566 321 q 514 307 545 307 l 190 307 q 180 298 180 307 q 198 203 180 250 q 258 123 216 157 q 361 90 301 90 q 400 92 381 90 q 435 98 419 94 q 464 107 452 103 q 489 119 476 111 q 507 131 502 127 q 524 142 513 134 q 534 149 534 149 q 541 141 537 148 q 545 127 545 134 q 537 102 545 113 q 457 28 517 65 q 323 -8 397 -8 q 119 79 205 -8 q 34 292 34 167 q 113 514 34 429 q 315 600 193 600 z "},"":{"ha":784,"x_min":22,"x_max":746,"o":"m 208 892 q 419 895 269 892 q 646 898 570 898 q 667 785 651 857 q 685 705 684 712 q 656 699 678 699 q 637 708 642 699 q 464 829 593 829 l 393 829 q 290 811 293 829 q 282 701 282 773 l 282 488 q 342 480 282 480 l 412 480 q 418 480 414 480 q 511 487 496 480 q 534 534 526 494 q 543 568 538 555 q 564 578 544 578 q 590 571 583 578 l 590 315 q 564 309 585 309 q 543 320 547 309 q 526 374 533 357 q 516 393 518 392 q 505 401 514 395 q 380 412 487 412 q 282 401 282 412 l 282 191 q 294 81 282 117 q 387 64 301 64 l 437 64 q 598 92 543 64 q 647 140 620 103 q 689 222 674 176 q 708 231 692 231 q 746 222 738 231 q 673 -5 678 31 q 557 -61 620 -9 q 494 -157 494 -113 q 509 -193 494 -178 q 551 -209 524 -209 q 589 -202 570 -209 q 620 -188 608 -195 q 645 -171 632 -180 q 659 -160 658 -161 q 665 -182 665 -160 q 659 -209 665 -202 q 592 -271 635 -241 q 505 -300 549 -300 q 431 -269 461 -300 q 401 -195 401 -237 q 450 -88 401 -144 q 559 -4 498 -33 q 209 1 328 1 l 28 -5 q 24 18 24 -1 q 28 41 24 41 q 80 50 46 41 q 119 71 114 58 q 129 194 129 99 l 129 707 q 119 818 129 781 q 79 840 115 829 q 27 852 43 852 q 22 872 22 852 q 27 897 22 891 q 208 892 117 892 z "},"":{"ha":583,"x_min":33,"x_max":549,"o":"m 301 537 q 231 505 259 537 q 193 439 202 472 q 184 381 184 407 q 194 372 184 372 l 393 372 q 406 392 406 373 q 377 488 406 439 q 301 537 349 537 m 317 600 q 410 583 369 600 q 476 540 450 566 q 519 480 502 514 q 543 414 536 446 q 549 351 549 382 q 538 316 549 323 q 494 309 526 309 q 193 307 388 307 q 184 296 184 307 l 184 269 q 232 142 189 199 q 361 84 275 84 q 428 93 396 84 q 475 111 460 102 q 510 134 490 119 l 532 149 q 543 127 543 145 q 536 102 543 111 q 475 45 518 80 q 364 -62 400 -15 q 328 -157 328 -109 q 342 -193 328 -178 q 382 -209 355 -209 q 421 -202 401 -209 q 452 -188 441 -195 q 477 -171 464 -180 q 492 -160 491 -161 q 499 -182 499 -160 q 491 -209 499 -198 q 424 -271 467 -241 q 336 -300 381 -300 q 263 -269 293 -300 q 233 -195 233 -237 q 272 -99 233 -153 q 355 -8 311 -45 q 315 -11 345 -11 q 113 73 193 -11 q 33 283 33 157 q 114 510 33 420 q 317 600 195 600 z "},"":{"ha":792,"x_min":34,"x_max":758,"o":"m 545 1172 q 559 1145 559 1172 q 545 1133 557 1143 q 510 1102 532 1122 q 465 1061 488 1082 q 410 998 450 1046 q 393 987 401 987 q 377 998 387 987 q 320 1062 355 1028 q 260 1117 290 1090 q 228 1145 229 1143 q 241 1172 228 1172 q 307 1143 254 1172 q 393 1090 361 1114 q 545 1172 519 1172 m 220 891 q 430 896 279 891 q 658 901 581 901 q 680 787 663 860 q 697 708 696 715 q 669 701 690 701 q 650 711 654 701 q 476 831 605 831 l 406 831 q 302 814 305 831 q 294 704 294 776 l 294 491 q 354 483 294 483 l 425 483 q 430 483 426 483 q 524 490 509 483 q 547 537 538 496 q 555 571 551 557 q 576 581 556 581 q 602 574 595 581 l 602 317 q 576 312 597 312 q 555 323 559 312 q 538 377 545 359 q 528 396 530 395 q 517 404 526 397 q 392 415 499 415 q 294 404 294 415 l 294 194 q 307 84 294 119 q 399 66 313 66 l 449 66 q 610 95 555 66 q 659 142 632 106 q 701 225 686 179 q 720 233 703 233 q 758 225 750 233 q 739 170 754 213 q 715 104 723 126 q 697 49 707 81 q 685 -4 688 16 q 460 0 631 -4 q 221 1 290 4 l 41 -4 q 37 18 37 0 q 41 41 37 41 q 92 50 58 41 q 132 71 126 58 q 141 194 141 99 l 141 707 q 132 818 141 788 q 94 842 127 833 q 39 852 60 852 q 34 872 34 852 q 39 897 34 891 q 220 891 129 891 z "},"":{"ha":591,"x_min":34,"x_max":566,"o":"m 301 806 q 380 867 335 834 q 437 901 426 901 q 449 869 449 901 q 436 856 448 868 q 405 821 425 844 q 365 772 385 798 q 347 747 355 760 q 329 720 338 734 q 315 699 320 705 q 301 686 307 686 q 286 699 293 686 q 235 773 255 747 q 153 869 209 806 q 165 901 153 901 q 223 867 176 901 q 301 806 270 834 m 305 537 q 247 518 273 537 q 208 472 221 499 q 188 421 194 445 q 182 381 182 397 q 190 372 182 372 l 410 372 q 422 392 422 372 q 390 488 422 439 q 305 537 358 537 m 315 600 q 429 574 378 600 q 507 511 479 549 q 551 431 536 472 q 566 351 566 389 q 555 314 566 321 q 514 307 545 307 l 190 307 q 180 298 180 307 q 198 203 180 250 q 258 123 216 157 q 361 90 301 90 q 400 92 381 90 q 435 98 419 94 q 464 107 452 103 q 489 119 476 111 q 507 131 502 127 q 524 142 513 134 q 534 149 534 149 q 541 141 537 148 q 545 127 545 134 q 537 102 545 113 q 457 28 517 65 q 323 -8 397 -8 q 119 79 205 -8 q 34 292 34 167 q 113 514 34 429 q 315 600 193 600 z "},"":{"ha":952,"x_min":34,"x_max":917,"o":"m 632 987 q 480 1069 606 987 q 394 1017 448 1046 q 328 987 340 987 q 315 1013 315 987 q 347 1041 316 1015 q 407 1096 377 1067 q 464 1160 442 1130 q 480 1172 475 1172 q 496 1160 487 1172 q 552 1097 537 1112 q 597 1056 575 1076 q 631 1025 618 1036 q 646 1013 644 1015 q 632 987 646 987 m 34 437 q 164 766 34 628 q 480 905 294 905 q 795 854 600 905 q 806 764 799 853 q 814 659 814 675 q 787 643 814 643 q 757 651 768 643 q 745 689 753 670 q 718 737 738 708 q 671 787 699 766 q 595 823 643 807 q 486 838 547 838 q 278 732 353 838 q 203 461 203 627 q 238 273 203 363 q 348 120 273 183 q 524 57 423 57 q 654 83 609 57 q 667 114 667 92 l 666 212 l 666 221 q 656 331 666 302 q 616 357 651 349 q 559 365 582 365 q 553 385 553 365 q 559 410 553 404 q 641 406 574 410 q 749 401 708 401 q 913 410 750 401 q 917 387 917 397 q 911 363 917 363 q 876 355 903 363 q 836 342 848 347 q 818 243 818 331 q 819 186 818 214 q 819 155 819 157 q 826 113 819 130 q 833 92 833 95 q 803 60 833 73 q 723 26 749 35 q 625 3 697 16 q 464 -11 552 -11 q 159 122 285 -11 q 34 437 34 255 z "},"":{"ha":647,"x_min":33,"x_max":610,"o":"m 422 674 q 366 707 411 674 q 286 769 320 741 q 208 707 255 741 q 151 674 161 674 q 138 707 138 674 q 220 802 205 783 q 271 876 240 827 q 286 888 278 888 q 300 876 292 888 q 350 804 345 811 q 390 755 370 779 q 421 720 410 732 q 434 707 433 708 q 422 674 434 674 m 483 -113 q 414 -50 483 -65 q 231 -34 346 -34 q 224 -35 228 -34 q 217 -39 221 -37 q 190 -51 199 -46 q 168 -66 180 -56 q 150 -90 156 -76 q 144 -122 144 -103 q 195 -203 144 -171 q 311 -236 247 -236 q 435 -201 387 -236 q 483 -113 483 -165 m 193 400 q 220 288 193 334 q 296 243 247 243 q 370 281 346 243 q 393 377 393 320 q 366 494 393 449 q 288 538 339 538 q 216 496 239 538 q 193 400 193 454 m 296 597 q 408 579 345 597 q 517 562 472 562 l 594 562 q 604 544 597 562 q 610 517 610 526 q 602 498 610 498 l 514 498 q 509 494 509 498 q 521 458 509 492 q 533 393 533 425 q 466 249 533 313 q 298 184 399 184 q 214 190 250 184 q 184 165 198 183 q 171 132 171 146 q 184 109 171 118 q 224 95 197 99 q 270 90 251 91 q 324 87 289 88 q 345 87 339 87 q 543 50 480 83 q 606 -50 606 16 q 509 -227 608 -152 q 279 -301 410 -301 q 106 -263 180 -302 q 33 -152 33 -224 q 71 -76 33 -113 q 155 -24 110 -39 q 90 17 119 -14 q 60 88 60 47 q 160 209 60 146 q 87 279 121 227 q 53 389 53 331 q 123 541 53 486 q 296 597 194 597 z "},"":{"ha":952,"x_min":34,"x_max":917,"o":"m 411 1081 q 427 1071 411 1081 q 480 1061 444 1061 q 549 1081 517 1061 q 595 1131 582 1101 q 601 1134 597 1134 q 619 1122 608 1133 q 629 1107 631 1112 q 627 1097 629 1103 q 567 1018 606 1048 q 480 987 528 987 q 393 1017 433 987 q 334 1097 353 1047 q 331 1107 331 1103 q 341 1122 330 1112 q 359 1134 353 1133 q 365 1131 363 1134 q 411 1081 378 1101 m 34 437 q 164 766 34 628 q 480 905 294 905 q 795 854 600 905 q 806 764 799 853 q 814 659 814 675 q 787 643 814 643 q 757 651 768 643 q 745 689 753 670 q 718 737 738 708 q 671 787 699 766 q 595 823 643 807 q 486 838 547 838 q 278 732 353 838 q 203 461 203 627 q 238 273 203 363 q 348 120 273 183 q 524 57 423 57 q 654 83 609 57 q 667 114 667 92 l 666 212 l 666 221 q 656 331 666 302 q 616 357 651 349 q 559 365 582 365 q 553 385 553 365 q 559 410 553 404 q 641 406 574 410 q 749 401 708 401 q 913 410 750 401 q 917 387 917 397 q 911 363 917 363 q 876 355 903 363 q 836 342 848 347 q 818 243 818 331 q 819 186 818 214 q 819 155 819 157 q 826 113 819 130 q 833 92 833 95 q 803 60 833 73 q 723 26 749 35 q 625 3 697 16 q 464 -11 552 -11 q 159 122 285 -11 q 34 437 34 255 z "},"":{"ha":647,"x_min":33,"x_max":610,"o":"m 212 783 q 229 770 212 783 q 283 758 245 758 q 353 783 321 758 q 393 846 384 807 q 399 852 393 852 q 418 842 406 852 q 431 827 431 833 q 431 822 431 826 q 430 817 430 818 q 377 724 418 761 q 283 686 336 686 q 186 724 229 686 q 132 818 144 761 q 131 823 132 819 q 130 827 130 826 q 143 842 130 833 q 163 852 156 852 q 168 846 168 852 q 212 783 178 807 m 483 -113 q 414 -50 483 -65 q 231 -34 346 -34 q 224 -35 228 -34 q 217 -39 221 -37 q 190 -51 199 -46 q 168 -66 180 -56 q 150 -90 156 -76 q 144 -122 144 -103 q 195 -203 144 -171 q 311 -236 247 -236 q 435 -201 387 -236 q 483 -113 483 -165 m 193 400 q 220 288 193 334 q 296 243 247 243 q 370 281 346 243 q 393 377 393 320 q 366 494 393 449 q 288 538 339 538 q 216 496 239 538 q 193 400 193 454 m 296 597 q 408 579 345 597 q 517 562 472 562 l 594 562 q 604 544 597 562 q 610 517 610 526 q 602 498 610 498 l 514 498 q 509 494 509 498 q 521 458 509 492 q 533 393 533 425 q 466 249 533 313 q 298 184 399 184 q 214 190 250 184 q 184 165 198 183 q 171 132 171 146 q 184 109 171 118 q 224 95 197 99 q 270 90 251 91 q 324 87 289 88 q 345 87 339 87 q 543 50 480 83 q 606 -50 606 16 q 509 -227 608 -152 q 279 -301 410 -301 q 106 -263 180 -302 q 33 -152 33 -224 q 71 -76 33 -113 q 155 -24 110 -39 q 90 17 119 -14 q 60 88 60 47 q 160 209 60 146 q 87 279 121 227 q 53 389 53 331 q 123 541 53 486 q 296 597 194 597 z "},"":{"ha":952,"x_min":34,"x_max":917,"o":"m 420 1012 q 408 1024 420 1012 q 396 1072 396 1036 q 420 1131 396 1107 q 480 1156 445 1156 q 540 1131 515 1156 q 564 1072 564 1107 q 540 1012 564 1036 q 480 987 515 987 q 420 1012 445 987 m 34 437 q 164 766 34 628 q 480 905 294 905 q 795 854 600 905 q 806 764 799 853 q 814 659 814 675 q 787 643 814 643 q 757 651 768 643 q 745 689 753 670 q 718 737 738 708 q 671 787 699 766 q 595 823 643 807 q 486 838 547 838 q 278 732 353 838 q 203 461 203 627 q 238 273 203 363 q 348 120 273 183 q 524 57 423 57 q 654 83 609 57 q 667 114 667 92 l 666 212 l 666 221 q 656 331 666 302 q 616 357 651 349 q 559 365 582 365 q 553 385 553 365 q 559 410 553 404 q 641 406 574 410 q 749 401 708 401 q 913 410 750 401 q 917 387 917 397 q 911 363 917 363 q 876 355 903 363 q 836 342 848 347 q 818 243 818 331 q 819 186 818 214 q 819 155 819 157 q 826 113 819 130 q 833 92 833 95 q 803 60 833 73 q 723 26 749 35 q 625 3 697 16 q 464 -11 552 -11 q 159 122 285 -11 q 34 437 34 255 z "},"":{"ha":647,"x_min":33,"x_max":610,"o":"m 237 741 q 225 753 237 741 q 213 800 213 765 q 237 860 213 836 q 297 884 262 884 q 357 860 332 884 q 381 800 381 836 q 357 741 381 765 q 297 716 332 716 q 237 741 262 716 m 483 -113 q 414 -50 483 -65 q 231 -34 346 -34 q 224 -35 228 -34 q 217 -39 221 -37 q 190 -51 199 -46 q 168 -66 180 -56 q 150 -90 156 -76 q 144 -122 144 -103 q 195 -203 144 -171 q 311 -236 247 -236 q 435 -201 387 -236 q 483 -113 483 -165 m 193 400 q 220 288 193 334 q 296 243 247 243 q 370 281 346 243 q 393 377 393 320 q 366 494 393 449 q 288 538 339 538 q 216 496 239 538 q 193 400 193 454 m 296 597 q 408 579 345 597 q 517 562 472 562 l 594 562 q 604 544 597 562 q 610 517 610 526 q 602 498 610 498 l 514 498 q 509 494 509 498 q 521 458 509 492 q 533 393 533 425 q 466 249 533 313 q 298 184 399 184 q 214 190 250 184 q 184 165 198 183 q 171 132 171 146 q 184 109 171 118 q 224 95 197 99 q 270 90 251 91 q 324 87 289 88 q 345 87 339 87 q 543 50 480 83 q 606 -50 606 16 q 509 -227 608 -152 q 279 -301 410 -301 q 106 -263 180 -302 q 33 -152 33 -224 q 71 -76 33 -113 q 155 -24 110 -39 q 90 17 119 -14 q 60 88 60 47 q 160 209 60 146 q 87 279 121 227 q 53 389 53 331 q 123 541 53 486 q 296 597 194 597 z "},"":{"ha":952,"x_min":34,"x_max":917,"o":"m 396 -134 q 431 -83 396 -103 q 519 -62 465 -62 q 541 -97 532 -73 q 549 -141 549 -121 q 431 -304 549 -233 l 425 -304 q 404 -298 415 -304 q 392 -289 392 -293 q 407 -276 392 -288 q 437 -248 422 -264 q 452 -217 452 -232 q 424 -176 452 -195 q 396 -134 396 -157 m 34 437 q 164 766 34 628 q 480 905 294 905 q 795 854 600 905 q 806 764 799 853 q 814 659 814 675 q 787 643 814 643 q 757 651 768 643 q 745 689 753 670 q 718 737 738 708 q 671 787 699 766 q 595 823 643 807 q 486 838 547 838 q 278 732 353 838 q 203 461 203 627 q 238 273 203 363 q 348 120 273 183 q 524 57 423 57 q 654 83 609 57 q 667 114 667 92 l 666 212 l 666 221 q 656 331 666 302 q 616 357 651 349 q 559 365 582 365 q 553 385 553 365 q 559 410 553 404 q 641 406 574 410 q 749 401 708 401 q 913 410 750 401 q 917 387 917 397 q 911 363 917 363 q 876 355 903 363 q 836 342 848 347 q 818 243 818 331 q 819 186 818 214 q 819 155 819 157 q 826 113 819 130 q 833 92 833 95 q 803 60 833 73 q 723 26 749 35 q 625 3 697 16 q 464 -11 552 -11 q 159 122 285 -11 q 34 437 34 255 z "},"":{"ha":647,"x_min":33,"x_max":610,"o":"m 377 757 q 342 705 377 726 q 254 685 308 685 q 233 720 241 696 q 224 764 224 743 q 342 926 224 856 l 349 926 q 370 921 358 926 q 381 911 381 916 q 366 899 381 910 q 336 871 351 887 q 321 840 321 854 q 349 799 321 818 q 377 757 377 780 m 483 -113 q 414 -50 483 -65 q 231 -34 346 -34 q 224 -35 228 -34 q 217 -39 221 -37 q 190 -51 199 -46 q 168 -66 180 -56 q 150 -90 156 -76 q 144 -122 144 -103 q 195 -203 144 -171 q 311 -236 247 -236 q 435 -201 387 -236 q 483 -113 483 -165 m 193 400 q 220 288 193 334 q 296 243 247 243 q 370 281 346 243 q 393 377 393 320 q 366 494 393 449 q 288 538 339 538 q 216 496 239 538 q 193 400 193 454 m 296 597 q 408 579 345 597 q 517 562 472 562 l 594 562 q 604 544 597 562 q 610 517 610 526 q 602 498 610 498 l 514 498 q 509 494 509 498 q 521 458 509 492 q 533 393 533 425 q 466 249 533 313 q 298 184 399 184 q 214 190 250 184 q 184 165 198 183 q 171 132 171 146 q 184 109 171 118 q 224 95 197 99 q 270 90 251 91 q 324 87 289 88 q 345 87 339 87 q 543 50 480 83 q 606 -50 606 16 q 509 -227 608 -152 q 279 -301 410 -301 q 106 -263 180 -302 q 33 -152 33 -224 q 71 -76 33 -113 q 155 -24 110 -39 q 90 17 119 -14 q 60 88 60 47 q 160 209 60 146 q 87 279 121 227 q 53 389 53 331 q 123 541 53 486 q 296 597 194 597 z "},"":{"ha":960,"x_min":35,"x_max":921,"o":"m 631 987 q 479 1069 605 987 q 393 1017 446 1046 q 327 987 339 987 q 313 1013 313 987 q 345 1041 315 1015 q 406 1096 376 1067 q 463 1160 441 1130 q 479 1172 473 1172 q 495 1160 486 1172 q 551 1097 536 1112 q 595 1056 574 1076 q 630 1025 617 1036 q 644 1013 643 1015 q 631 987 644 987 m 913 41 q 918 15 918 41 q 916 -4 918 4 q 743 4 753 4 q 686 3 716 4 q 621 -1 656 1 q 563 -4 585 -3 q 557 15 557 1 q 563 41 557 41 q 614 50 579 41 q 652 71 648 60 q 663 184 663 113 l 663 418 l 661 423 q 481 426 533 426 q 294 419 294 423 l 294 193 q 307 71 294 118 q 344 51 309 61 q 391 41 378 41 q 396 15 396 41 q 393 -4 396 4 q 221 4 231 4 q 164 3 194 4 q 98 -1 134 1 q 41 -4 62 -3 q 35 15 35 1 q 41 41 35 41 q 92 50 57 41 q 130 71 126 60 q 141 184 141 113 l 141 708 q 130 822 141 789 q 92 843 125 833 q 43 853 60 853 q 38 873 38 853 q 41 898 38 895 q 116 894 47 898 q 221 890 184 890 q 395 898 232 890 q 399 876 399 886 q 393 853 399 853 q 345 842 381 853 q 305 822 308 831 q 294 703 294 780 l 294 505 l 297 500 q 481 498 430 498 q 661 500 538 498 q 663 506 663 503 l 663 708 q 652 822 663 789 q 614 843 647 833 q 566 853 582 853 q 560 873 560 853 q 563 898 560 895 q 638 894 570 898 q 743 890 707 890 q 917 898 754 890 q 921 876 921 886 q 916 853 921 853 q 867 842 903 853 q 827 822 830 831 q 817 703 817 780 l 817 193 q 829 71 817 118 q 866 51 831 61 q 913 41 901 41 z "},"":{"ha":784,"x_min":34,"x_max":751,"o":"m 351 987 q 199 1069 326 987 q 113 1017 167 1046 q 47 987 60 987 q 34 1013 34 987 q 66 1041 35 1015 q 126 1096 96 1067 q 183 1160 161 1130 q 199 1172 194 1172 q 216 1160 206 1172 q 271 1097 256 1112 q 316 1056 294 1076 q 351 1025 338 1036 q 365 1013 363 1015 q 351 987 365 987 m 480 600 q 654 332 654 600 l 654 193 q 665 71 654 110 q 701 51 666 61 q 747 41 735 41 q 752 21 751 41 q 751 -5 753 1 q 679 0 742 -4 q 586 4 616 4 q 494 0 552 4 q 423 -5 437 -4 q 419 20 419 0 q 423 41 419 41 q 470 51 439 41 q 505 71 500 61 q 513 170 513 111 l 513 302 q 482 458 513 415 q 385 500 452 500 q 311 477 345 500 q 277 426 277 454 l 277 193 q 288 71 277 110 q 323 51 290 61 q 369 41 357 41 q 374 21 373 41 q 372 -5 374 1 q 300 0 361 -4 q 209 4 240 4 q 115 0 176 4 q 42 -5 53 -4 q 37 20 37 0 q 42 41 37 41 q 92 51 58 41 q 127 71 125 61 q 137 168 137 111 l 137 732 q 130 825 137 787 q 60 846 123 846 l 47 846 q 39 868 39 846 q 47 890 39 890 q 127 901 90 894 q 191 914 165 907 q 234 928 216 921 q 262 938 252 935 q 273 941 273 941 l 275 941 q 286 934 281 941 q 293 920 292 926 q 277 792 277 867 l 277 518 q 282 510 277 510 q 288 514 283 510 q 371 573 316 547 q 480 600 426 600 z "},"":{"ha":993,"x_min":52,"x_max":937,"o":"m 233 890 q 410 898 247 890 q 414 872 414 891 q 408 853 414 853 q 360 843 396 853 q 321 822 324 833 q 311 708 312 789 q 496 705 327 705 q 680 708 625 705 q 670 822 678 788 q 632 843 666 833 q 582 853 598 853 q 576 873 576 853 q 581 898 576 892 q 639 895 602 897 q 706 891 675 892 q 765 890 736 890 q 933 898 770 890 q 936 876 936 887 q 930 853 936 853 q 882 843 918 853 q 844 822 846 833 q 834 708 834 784 l 903 708 q 911 689 911 708 q 903 651 911 665 l 833 651 l 833 190 q 844 71 833 111 q 882 50 846 60 q 930 41 917 41 q 936 16 936 41 q 932 -5 936 5 q 863 0 928 -4 q 762 4 799 4 q 659 0 726 4 q 581 -5 593 -4 q 575 20 575 0 q 581 41 575 41 q 631 50 597 41 q 670 71 666 60 q 680 184 680 104 l 680 406 l 677 411 q 496 414 549 414 q 309 407 311 411 l 309 190 q 321 71 309 115 q 359 51 324 61 q 407 41 395 41 q 412 22 412 41 q 410 -5 412 3 q 356 -1 392 -4 q 290 3 320 1 q 233 4 260 4 q 135 0 197 4 q 57 -5 73 -4 q 52 16 52 0 q 56 41 52 41 q 107 50 72 41 q 146 71 142 60 q 156 184 156 106 l 156 651 l 92 651 q 85 670 85 651 q 94 708 85 694 l 156 708 q 146 821 155 793 q 109 843 141 833 q 58 853 76 853 q 53 876 53 853 q 57 898 53 894 q 132 894 68 898 q 233 890 195 890 m 496 651 q 309 651 372 651 l 309 492 q 312 488 309 488 q 496 486 445 486 q 677 488 555 486 q 680 494 680 491 l 680 651 q 496 651 624 651 z "},"":{"ha":762,"x_min":37,"x_max":753,"o":"m 62 770 q 458 770 62 770 q 467 754 467 770 q 458 711 467 730 q 61 711 458 711 q 54 730 54 711 q 62 770 54 757 m 480 600 q 654 332 654 600 l 654 193 q 665 71 654 110 q 701 51 666 61 q 747 41 735 41 q 752 21 751 41 q 751 -5 753 1 q 679 0 742 -4 q 586 4 616 4 q 494 0 552 4 q 423 -5 437 -4 q 419 20 419 0 q 423 41 419 41 q 470 51 439 41 q 505 71 500 61 q 513 170 513 111 l 513 302 q 482 458 513 415 q 385 500 452 500 q 311 477 345 500 q 277 426 277 454 l 277 193 q 288 71 277 110 q 323 51 290 61 q 369 41 357 41 q 374 21 373 41 q 372 -5 374 1 q 300 0 361 -4 q 209 4 240 4 q 115 0 176 4 q 42 -5 53 -4 q 37 20 37 0 q 42 41 37 41 q 92 51 58 41 q 127 71 125 61 q 137 168 137 111 l 137 732 q 130 825 137 787 q 60 846 123 846 l 47 846 q 39 868 39 846 q 47 890 39 890 q 127 901 90 894 q 191 914 165 907 q 234 928 216 921 q 262 938 252 935 q 273 941 273 941 l 275 941 q 286 934 281 941 q 293 920 292 926 q 277 792 277 867 l 277 518 q 282 510 277 510 q 288 514 283 510 q 371 573 316 547 q 480 600 426 600 z "},"":{"ha":438,"x_min":-26,"x_max":461,"o":"m -15 1001 q -26 1027 -26 1001 q -1 1086 -26 1050 q 111 1149 49 1149 q 235 1107 160 1149 q 358 1066 309 1066 q 416 1101 382 1066 q 452 1135 449 1135 q 461 1108 461 1135 q 438 1048 461 1084 q 327 987 392 987 q 203 1029 278 987 q 80 1070 129 1070 q 41 1053 62 1070 q 5 1018 20 1035 q -15 1001 -9 1001 m 141 708 q 130 822 141 789 q 92 843 125 833 q 43 853 60 853 q 38 873 38 853 q 41 898 38 895 q 116 894 47 898 q 221 890 184 890 q 395 898 232 890 q 399 876 399 886 q 393 853 399 853 q 345 842 381 853 q 305 822 308 831 q 294 703 294 780 l 294 193 q 307 71 294 118 q 344 51 309 61 q 391 41 378 41 q 396 15 396 41 q 393 -4 396 4 q 221 4 231 4 q 164 3 194 4 q 98 -1 134 1 q 41 -4 62 -3 q 35 15 35 1 q 41 41 35 41 q 92 50 57 41 q 130 71 126 60 q 141 184 141 113 l 141 708 z "},"":{"ha":407,"x_min":4,"x_max":403,"o":"m 14 699 q 4 722 4 699 q 26 774 4 743 q 117 829 66 829 q 217 793 156 829 q 319 757 278 757 q 366 787 339 757 q 396 818 393 818 q 403 793 403 818 q 384 739 403 766 q 294 686 346 686 q 193 722 254 686 q 91 758 132 758 q 45 728 72 758 q 14 699 18 699 m 275 195 q 285 73 275 111 q 318 52 288 64 q 359 41 349 41 q 364 22 363 41 q 362 -4 365 3 q 311 -1 343 -3 q 254 3 279 1 q 205 4 228 4 q 153 3 179 4 q 96 -1 127 1 q 45 -4 65 -3 q 39 21 39 1 q 45 41 39 41 q 90 52 60 41 q 123 73 121 64 q 134 174 134 121 l 134 392 q 113 479 134 454 q 82 498 102 492 q 49 506 62 505 q 35 510 35 507 q 42 551 35 551 q 262 593 129 560 q 275 597 274 597 q 285 570 285 597 q 280 520 285 562 q 275 453 275 479 l 275 195 z "},"":{"ha":438,"x_min":23,"x_max":414,"o":"m 23 998 q 28 1046 23 1024 q 42 1067 34 1067 l 406 1067 q 414 1057 414 1067 q 400 993 412 1031 l 199 993 q 31 993 199 993 q 23 998 23 993 m 141 708 q 130 822 141 789 q 92 843 125 833 q 43 853 60 853 q 38 873 38 853 q 41 898 38 895 q 116 894 47 898 q 221 890 184 890 q 395 898 232 890 q 399 876 399 886 q 393 853 399 853 q 345 842 381 853 q 305 822 308 831 q 294 703 294 780 l 294 193 q 307 71 294 118 q 344 51 309 61 q 391 41 378 41 q 396 15 396 41 q 393 -4 396 4 q 221 4 231 4 q 164 3 194 4 q 98 -1 134 1 q 41 -4 62 -3 q 35 15 35 1 q 41 41 35 41 q 92 50 57 41 q 130 71 126 60 q 141 184 141 113 l 141 708 z "},"":{"ha":407,"x_min":35,"x_max":372,"o":"m 37 700 q 56 765 39 765 l 365 765 q 372 753 372 765 q 362 697 370 722 q 354 686 362 697 l 45 686 q 39 689 45 686 q 37 700 37 692 m 275 195 q 285 73 275 111 q 318 52 288 64 q 359 41 349 41 q 364 22 363 41 q 362 -4 365 3 q 311 -1 343 -3 q 254 3 279 1 q 205 4 228 4 q 153 3 179 4 q 96 -1 127 1 q 45 -4 65 -3 q 39 21 39 1 q 45 41 39 41 q 90 52 60 41 q 123 73 121 64 q 134 174 134 121 l 134 392 q 113 479 134 454 q 82 498 102 492 q 49 506 62 505 q 35 510 35 507 q 42 551 35 551 q 262 593 129 560 q 275 597 274 597 q 285 570 285 597 q 280 520 285 562 q 275 453 275 479 l 275 195 z "},"":{"ha":438,"x_min":35,"x_max":399,"o":"m 149 1081 q 165 1071 149 1081 q 218 1061 182 1061 q 288 1081 255 1061 q 334 1131 320 1101 q 339 1134 335 1134 q 357 1122 346 1133 q 368 1107 369 1112 q 365 1097 368 1103 q 305 1018 345 1048 q 218 987 266 987 q 131 1017 171 987 q 72 1097 91 1047 q 69 1107 69 1103 q 79 1122 68 1112 q 98 1134 91 1133 q 103 1131 102 1134 q 149 1081 117 1101 m 141 708 q 130 822 141 789 q 92 843 125 833 q 43 853 60 853 q 38 873 38 853 q 41 898 38 895 q 116 894 47 898 q 221 890 184 890 q 395 898 232 890 q 399 876 399 886 q 393 853 399 853 q 345 842 381 853 q 305 822 308 831 q 294 703 294 780 l 294 193 q 307 71 294 118 q 344 51 309 61 q 391 41 378 41 q 396 15 396 41 q 393 -4 396 4 q 221 4 231 4 q 164 3 194 4 q 98 -1 134 1 q 41 -4 62 -3 q 35 15 35 1 q 41 41 35 41 q 92 50 57 41 q 130 71 126 60 q 141 184 141 113 l 141 708 z "},"":{"ha":407,"x_min":35,"x_max":362,"o":"m 136 783 q 153 770 136 783 q 208 758 170 758 q 277 783 245 758 q 317 846 308 807 q 323 852 317 852 q 342 842 330 852 q 355 827 355 833 q 355 822 355 826 q 354 817 354 818 q 301 724 342 761 q 208 686 260 686 q 111 724 153 686 q 56 818 68 761 q 55 823 56 819 q 54 827 54 826 q 67 842 54 833 q 87 852 80 852 q 92 846 92 852 q 136 783 102 807 m 275 195 q 285 73 275 111 q 318 52 288 64 q 359 41 349 41 q 364 22 363 41 q 362 -4 365 3 q 311 -1 343 -3 q 254 3 279 1 q 205 4 228 4 q 153 3 179 4 q 96 -1 127 1 q 45 -4 65 -3 q 39 21 39 1 q 45 41 39 41 q 90 52 60 41 q 123 73 121 64 q 134 174 134 121 l 134 392 q 113 479 134 454 q 82 498 102 492 q 49 506 62 505 q 35 510 35 507 q 42 551 35 551 q 262 593 129 560 q 275 597 274 597 q 285 570 285 597 q 280 520 285 562 q 275 453 275 479 l 275 195 z "},"":{"ha":384,"x_min":11,"x_max":374,"o":"m 197 890 q 370 898 208 890 q 374 876 374 886 q 369 853 374 853 q 320 842 357 853 q 281 822 283 831 q 270 703 270 780 l 270 193 q 282 71 270 118 q 319 51 285 61 q 366 41 354 41 q 372 16 372 41 q 369 -5 372 3 q 332 -3 357 -5 q 294 0 307 -1 q 201 -75 241 -31 q 160 -157 160 -118 q 175 -193 160 -178 q 217 -209 190 -209 q 255 -202 236 -209 q 286 -188 274 -195 q 311 -171 298 -180 q 326 -160 324 -161 q 331 -182 331 -160 q 326 -209 331 -202 q 258 -271 301 -241 q 171 -300 216 -300 q 98 -269 127 -300 q 68 -195 68 -237 q 121 -85 68 -144 q 236 3 174 -27 q 216 3 229 3 q 197 4 203 4 q 97 0 160 4 q 16 -5 34 -4 q 11 16 11 0 q 16 41 11 41 q 67 50 33 41 q 106 71 102 60 q 117 184 117 113 l 117 708 q 106 822 117 789 q 68 843 100 833 q 19 853 35 853 q 14 873 14 853 q 16 898 14 895 q 92 894 23 898 q 197 890 160 890 z "},"":{"ha":388,"x_min":31,"x_max":361,"o":"m 271 195 q 281 73 271 111 q 314 52 283 64 q 355 41 345 41 q 360 22 359 41 q 358 -4 361 3 l 294 0 q 201 -75 241 -31 q 160 -157 160 -118 q 174 -193 160 -178 q 216 -208 189 -208 q 254 -201 235 -208 q 286 -187 274 -194 q 311 -171 297 -180 q 326 -160 324 -161 q 331 -182 331 -160 q 324 -208 331 -198 q 257 -270 300 -240 q 170 -300 214 -300 q 96 -269 126 -300 q 66 -195 66 -237 q 120 -85 66 -144 q 236 3 174 -27 q 218 3 231 3 q 201 4 206 4 q 149 3 175 4 q 92 -1 123 1 q 41 -4 61 -3 q 35 21 35 1 q 41 41 35 41 q 86 52 56 41 q 119 73 117 64 q 130 174 130 121 l 130 392 q 109 479 130 454 q 78 498 98 492 q 45 506 58 505 q 31 510 31 507 q 38 551 31 551 q 258 593 125 560 q 271 597 270 597 q 281 570 281 597 q 276 520 281 562 q 271 453 271 479 l 271 195 m 130 742 q 118 754 130 742 q 106 802 106 766 q 130 861 106 837 q 189 886 155 886 q 248 861 222 886 q 273 802 273 836 q 248 743 273 768 q 189 718 222 718 q 130 742 155 718 z "},"":{"ha":438,"x_min":35,"x_max":399,"o":"m 157 1012 q 145 1024 157 1012 q 133 1072 133 1036 q 157 1131 133 1107 q 217 1156 182 1156 q 277 1131 252 1156 q 301 1072 301 1107 q 277 1012 301 1036 q 217 987 252 987 q 157 1012 182 987 m 141 708 q 130 822 141 789 q 92 843 125 833 q 43 853 60 853 q 38 873 38 853 q 41 898 38 895 q 116 894 47 898 q 221 890 184 890 q 395 898 232 890 q 399 876 399 886 q 393 853 399 853 q 345 842 381 853 q 305 822 308 831 q 294 703 294 780 l 294 193 q 307 71 294 118 q 344 51 309 61 q 391 41 378 41 q 396 15 396 41 q 393 -4 396 4 q 221 4 231 4 q 164 3 194 4 q 98 -1 134 1 q 41 -4 62 -3 q 35 15 35 1 q 41 41 35 41 q 92 50 57 41 q 130 71 126 60 q 141 184 141 113 l 141 708 z "},"":{"ha":407,"x_min":35,"x_max":365,"o":"m 275 195 q 285 73 275 111 q 318 52 288 64 q 359 41 349 41 q 364 22 363 41 q 362 -4 365 3 q 311 -1 343 -3 q 254 3 279 1 q 205 4 228 4 q 153 3 179 4 q 96 -1 127 1 q 45 -4 65 -3 q 39 21 39 1 q 45 41 39 41 q 90 52 60 41 q 123 73 121 64 q 134 174 134 121 l 134 392 q 113 479 134 454 q 82 498 102 492 q 49 506 62 505 q 35 510 35 507 q 42 551 35 551 q 262 593 129 560 q 275 597 274 597 q 285 570 285 597 q 280 520 285 562 q 275 453 275 479 l 275 195 z "},"":{"ha":768,"x_min":35,"x_max":842,"o":"m 739 703 l 739 155 q 637 -174 739 -46 q 369 -301 536 -301 q 324 -293 349 -301 q 294 -279 300 -285 q 277 -218 277 -256 q 302 -165 277 -187 q 362 -144 328 -144 q 424 -179 391 -144 q 476 -214 457 -214 q 555 -121 526 -214 q 585 144 585 -28 l 585 711 q 575 822 585 787 q 538 846 571 838 q 483 853 505 853 q 477 873 477 853 q 480 898 477 895 q 538 895 500 897 q 608 891 576 892 q 666 890 639 890 q 838 898 675 890 q 842 876 842 886 q 837 853 842 853 q 789 842 825 853 q 750 822 753 831 q 739 703 739 780 m 141 708 q 130 822 141 789 q 92 843 125 833 q 43 853 60 853 q 38 873 38 853 q 41 898 38 895 q 116 894 47 898 q 221 890 184 890 q 395 898 232 890 q 399 876 399 886 q 393 853 399 853 q 345 842 381 853 q 305 822 308 831 q 294 703 294 780 l 294 193 q 307 71 294 118 q 344 51 309 61 q 391 41 378 41 q 396 15 396 41 q 393 -4 396 4 q 221 4 231 4 q 164 3 194 4 q 98 -1 134 1 q 41 -4 62 -3 q 35 15 35 1 q 41 41 35 41 q 92 50 57 41 q 130 71 126 60 q 141 184 141 113 l 141 708 z "},"":{"ha":760,"x_min":39,"x_max":606,"o":"m 453 391 q 431 477 453 454 q 401 498 420 491 q 369 506 382 505 q 355 510 355 507 q 363 551 355 549 q 473 567 401 553 q 581 591 545 581 q 587 593 582 591 q 591 594 591 594 q 602 585 598 594 q 605 570 606 575 q 594 453 594 477 l 594 127 q 534 -151 594 -58 q 435 -249 502 -202 q 330 -304 368 -296 q 309 -278 312 -294 q 309 -272 309 -277 q 311 -266 309 -267 q 319 -262 311 -266 q 340 -248 328 -258 q 368 -222 353 -237 q 399 -178 384 -206 q 426 -114 414 -151 q 446 -22 438 -77 q 453 98 453 33 l 453 391 m 449 760 q 437 773 449 760 q 425 820 425 785 q 449 879 425 854 q 509 903 473 903 q 568 879 544 903 q 593 820 593 854 q 568 760 593 785 q 509 735 544 735 q 449 760 473 735 m 137 760 q 125 773 137 760 q 113 820 113 785 q 137 879 113 854 q 197 903 161 903 q 256 879 232 903 q 281 820 281 854 q 256 760 281 785 q 197 735 232 735 q 137 760 161 735 m 278 193 q 289 71 278 110 q 326 51 292 61 q 372 41 359 41 q 378 21 377 41 q 376 -5 378 1 q 303 0 366 -4 q 210 4 240 4 q 115 0 176 4 q 43 -5 53 -4 q 38 20 38 0 q 43 41 38 41 q 92 51 58 41 q 129 71 126 61 q 138 170 138 111 l 138 391 q 117 477 138 454 q 85 498 104 491 q 53 506 66 505 q 39 510 39 507 q 47 551 39 549 q 157 567 85 553 q 264 591 229 581 q 271 593 266 591 q 275 594 275 594 q 286 585 282 594 q 289 570 290 575 q 278 453 278 483 l 278 193 z "},"":{"ha":632,"x_min":31,"x_max":597,"o":"m 566 987 q 414 1069 540 987 q 328 1017 381 1046 q 262 987 274 987 q 248 1013 248 987 q 280 1041 250 1015 q 340 1096 311 1067 q 397 1160 376 1130 q 414 1172 408 1172 q 430 1160 420 1172 q 486 1097 471 1112 q 530 1056 509 1076 q 565 1025 552 1036 q 579 1013 578 1015 q 566 987 579 987 m 494 703 l 494 155 q 392 -174 494 -46 q 123 -301 290 -301 q 79 -293 103 -301 q 49 -279 54 -285 q 31 -218 31 -256 q 57 -165 31 -187 q 117 -144 83 -144 q 178 -179 145 -144 q 231 -214 212 -214 q 310 -121 281 -214 q 339 144 339 -28 l 339 711 q 330 822 339 787 q 292 846 326 838 q 237 853 259 853 q 232 873 232 853 q 235 898 232 895 q 293 895 255 897 q 362 891 331 892 q 420 890 393 890 q 593 898 430 890 q 597 876 597 886 q 591 853 597 853 q 543 842 579 853 q 505 822 507 831 q 494 703 494 780 z "},"":{"ha":372,"x_min":-14,"x_max":340,"o":"m 328 686 q 272 720 317 686 q 193 781 227 753 q 115 720 161 753 q 57 686 68 686 q 45 719 45 686 q 126 814 111 795 q 178 888 146 840 q 193 901 184 901 q 206 888 198 901 q 256 817 251 823 q 296 768 277 791 q 328 732 316 745 q 340 719 339 720 q 328 686 340 686 m 271 453 l 271 136 q 212 -151 271 -49 q 14 -304 151 -256 q -14 -274 -14 -292 q -11 -264 -14 -267 q -3 -259 -11 -264 q 16 -248 7 -254 q 38 -228 24 -241 q 64 -197 52 -214 q 88 -153 76 -180 q 110 -92 100 -125 q 125 -14 119 -60 q 130 85 130 33 l 130 392 q 109 479 130 454 q 78 498 98 492 q 45 506 58 505 q 31 510 31 507 q 38 551 31 551 q 258 593 125 560 q 271 597 270 597 q 281 570 281 597 q 276 520 281 562 q 271 453 271 479 z "},"":{"ha":979,"x_min":35,"x_max":937,"o":"m 418 -134 q 452 -83 418 -103 q 541 -62 487 -62 q 562 -97 553 -73 q 571 -141 571 -121 q 453 -304 571 -233 l 446 -304 q 425 -298 437 -304 q 414 -289 414 -293 q 429 -276 414 -288 q 458 -248 444 -264 q 473 -217 473 -232 q 446 -176 473 -195 q 418 -134 418 -157 m 294 703 l 294 484 q 296 478 294 480 q 301 475 298 476 l 302 475 l 313 475 q 384 521 342 475 q 623 792 492 637 q 644 833 644 818 q 614 852 644 846 q 564 857 585 857 q 557 873 559 857 q 559 898 556 888 q 723 890 709 890 q 774 891 749 890 q 828 895 799 892 q 876 898 857 897 q 878 875 879 892 q 873 857 878 857 q 736 800 779 846 l 484 513 q 487 475 469 495 l 804 98 q 870 54 829 68 q 930 41 911 41 q 937 15 937 41 q 933 -4 937 4 q 747 4 770 4 q 644 1 704 4 q 559 -4 583 -3 q 553 21 553 1 q 559 41 553 41 q 597 50 574 41 q 620 71 620 60 q 582 127 620 77 q 477 256 544 178 q 346 401 411 334 q 316 407 340 407 q 294 391 294 407 l 294 190 q 307 71 294 118 q 344 51 309 61 q 391 41 378 41 q 396 15 396 41 q 393 -4 396 4 q 221 4 231 4 q 164 3 194 4 q 98 -1 134 1 q 41 -4 62 -3 q 35 15 35 1 q 41 41 35 41 q 92 50 57 41 q 130 71 126 60 q 141 184 141 113 l 141 708 q 130 822 141 789 q 92 843 125 833 q 43 853 60 853 q 38 873 38 853 q 41 898 38 895 q 116 894 47 898 q 221 890 184 890 q 395 898 232 890 q 399 876 399 886 q 393 853 399 853 q 345 842 381 853 q 305 822 308 831 q 294 703 294 780 z "},"":{"ha":808,"x_min":39,"x_max":766,"o":"m 332 -134 q 367 -83 332 -103 q 456 -62 401 -62 q 477 -97 468 -73 q 486 -141 486 -121 q 368 -304 486 -233 l 361 -304 q 340 -298 351 -304 q 328 -289 328 -293 q 343 -276 328 -288 q 373 -248 358 -264 q 388 -217 388 -232 q 360 -176 388 -195 q 332 -134 332 -157 m 604 509 q 517 448 576 492 q 410 353 458 403 q 509 243 449 311 q 608 132 568 175 q 662 76 647 88 q 714 49 682 60 q 760 38 746 38 q 765 15 765 38 q 764 -4 765 0 q 605 3 614 3 q 553 1 579 3 q 494 -2 526 0 q 444 -5 463 -4 q 438 19 438 0 q 444 38 438 38 q 475 44 457 38 q 492 57 492 50 q 491 60 492 60 l 293 281 l 277 277 l 277 193 q 288 71 278 104 q 324 51 290 61 q 372 41 358 41 q 376 21 376 41 q 374 -5 377 1 q 302 0 365 -4 q 209 4 240 4 q 115 0 176 4 q 42 -5 53 -4 q 37 20 37 0 q 42 41 37 41 q 92 51 58 41 q 127 71 125 61 q 137 170 137 111 l 137 732 q 130 825 137 787 q 60 846 123 846 l 47 846 q 39 868 39 846 q 47 890 39 890 q 127 901 90 894 q 191 914 165 907 q 234 928 216 921 q 262 938 252 935 q 273 941 273 941 l 275 941 q 286 934 281 941 q 293 920 292 926 q 277 792 277 867 l 277 339 q 317 354 309 347 q 379 408 346 380 q 427 448 412 435 q 457 474 442 460 q 477 496 472 488 q 481 513 481 505 q 451 531 481 528 q 420 536 420 534 q 416 559 416 545 q 422 575 416 574 q 553 575 525 575 q 697 581 590 575 q 704 566 703 576 q 703 545 705 555 q 697 536 701 536 q 604 509 648 536 z "},"":{"ha":762,"x_min":23,"x_max":750,"o":"m 304 354 q 387 420 363 401 q 441 465 410 438 q 484 505 473 492 q 494 526 494 518 q 463 546 494 543 q 431 551 433 549 q 429 575 429 560 q 434 591 429 590 q 564 589 536 589 q 651 592 593 589 q 727 597 709 595 q 733 574 734 590 q 730 553 732 557 l 703 549 q 616 524 646 541 q 522 455 593 510 q 401 353 452 400 q 500 241 442 308 q 595 131 557 174 q 646 76 632 88 q 699 49 666 60 q 743 38 731 38 q 750 15 750 38 q 749 -4 750 -1 q 589 3 613 3 q 538 1 564 3 q 479 -2 511 0 q 429 -5 448 -4 q 423 19 423 0 q 429 38 423 38 q 459 44 441 38 q 477 57 477 50 l 475 60 l 279 281 l 263 277 l 263 193 q 274 71 263 113 q 311 51 277 61 q 358 41 346 41 q 363 20 362 41 q 361 -5 363 0 q 286 -1 347 -5 q 195 4 225 4 q 104 0 163 4 q 28 -5 45 -4 q 23 20 23 0 q 28 41 23 41 q 78 51 45 41 q 114 71 111 61 q 123 170 123 111 l 123 385 q 117 477 123 444 q 46 499 110 499 l 34 499 q 26 521 26 499 q 34 543 26 543 q 114 553 76 547 q 177 567 152 560 q 220 580 202 574 q 250 590 239 586 l 259 594 l 262 594 q 273 587 267 594 q 279 572 278 579 q 263 445 263 521 l 263 339 q 304 354 290 343 z "},"":{"ha":792,"x_min":37,"x_max":758,"o":"m 149 995 q 146 999 149 995 q 144 1010 144 1002 q 205 1079 144 1019 q 307 1169 267 1139 q 331 1173 315 1173 q 382 1161 361 1173 q 404 1128 404 1149 q 295 1042 404 1096 q 160 987 186 987 q 149 995 155 987 m 294 703 l 294 193 q 307 84 294 126 q 399 66 313 66 l 449 66 q 610 95 555 66 q 659 142 632 106 q 701 225 686 179 q 720 233 703 233 q 758 225 750 233 q 739 170 754 213 q 715 104 723 126 q 697 49 707 81 q 685 -4 688 16 q 460 0 631 -4 q 221 1 290 4 l 41 -4 q 37 18 37 0 q 41 41 37 41 q 92 50 58 41 q 132 71 126 58 q 141 194 141 99 l 141 707 q 130 822 141 789 q 92 843 125 833 q 43 853 60 853 q 38 873 38 853 q 41 898 38 895 q 116 894 47 898 q 221 890 184 890 q 395 898 232 890 q 399 876 399 886 q 393 853 399 853 q 345 842 381 853 q 305 822 308 831 q 294 703 294 780 z "},"":{"ha":400,"x_min":34,"x_max":366,"o":"m 111 995 q 109 999 111 995 q 106 1010 106 1002 q 168 1079 106 1019 q 269 1169 229 1139 q 293 1173 277 1173 q 345 1161 323 1173 q 366 1128 366 1149 q 257 1042 366 1096 q 122 987 148 987 q 111 995 117 987 m 273 195 q 282 73 273 111 q 315 52 285 64 q 357 41 346 41 q 361 22 361 41 q 359 -4 362 3 q 309 -1 340 -3 q 251 3 277 1 q 202 4 225 4 q 151 3 176 4 q 94 -1 125 1 q 42 -4 62 -3 q 37 21 37 1 q 42 41 37 41 q 87 52 57 41 q 121 73 118 64 q 132 174 132 121 l 132 738 q 123 830 132 789 q 56 852 117 852 l 42 852 q 34 868 34 852 q 42 890 34 890 q 122 901 84 894 q 185 914 160 907 q 229 927 210 921 q 258 937 247 933 l 267 941 l 270 941 q 281 933 275 941 q 289 920 288 925 q 273 792 273 868 l 273 195 z "}}}
